SplineFontDB: 3.0
FontName: DejaVuSerif
FullName: DejaVu Serif
FamilyName: DejaVu Serif
Weight: Book
Copyright: Copyright (c) 2003 by Bitstream, Inc. All Rights Reserved.\nDejaVu changes are in public domain\n
Version: 2.32
ItalicAngle: 0
UnderlinePosition: -85
UnderlineWidth: 90
Ascent: 1556
Descent: 492
LayerCount: 2
Layer: 0 1 "Back"  1
Layer: 1 1 "Fore"  0
NeedsXUIDChange: 1
FSType: 0
OS2Version: 0
OS2_WeightWidthSlopeOnly: 0
OS2_UseTypoMetrics: 0
PfmFamily: 17
TTFWeight: 400
TTFWidth: 5
LineGap: 0
VLineGap: 0
Panose: 2 6 6 3 5 6 5 2 2 4
OS2TypoAscent: 1556
OS2TypoAOffset: 0
OS2TypoDescent: -492
OS2TypoDOffset: 0
OS2TypoLinegap: 410
OS2WinAscent: 1901
OS2WinAOffset: 0
OS2WinDescent: 483
OS2WinDOffset: 0
HheadAscent: 1901
HheadAOffset: 0
HheadDescent: -483
HheadDOffset: 0
OS2Vendor: 'PfEd'
Lookup: 1 0 0 "'locl' for Romanian"  {"'locl' for Romanian-1"  } ['locl' ('latn' <'MOL ' 'ROM ' > ) ]
Lookup: 6 0 0 "'ccmp' Contextual Chaining Substitution"  {"'ccmp' Contextual Chaining Substitution"  } ['ccmp' ('DFLT' <'dflt' > 'cyrl' <'MKD ' 'SRB ' 'dflt' > 'grek' <'dflt' > 'latn' <'AZE ' 'CRT ' 'GAG ' 'ISM ' 'KAZ ' 'KRK ' 'KSM ' 'LSM ' 'MOL ' 'NSM ' 'ROM ' 'SKS ' 'SSM ' 'TAT ' 'TRK ' 'dflt' > ) ]
Lookup: 1 0 0 "'locl' Localized Forms in Cyrillic - Serbian"  {"'locl' Localized Forms in Cyrillic - Serbian"  } ['locl' ('cyrl' <'MKD ' 'SRB ' > ) ]
Lookup: 1 0 0 "'locl' Localized Forms in Latin - Sami"  {"'locl' Localized Forms in Latin - Sami"  } ['locl' ('latn' <'ISM ' 'KSM ' 'LSM ' 'NSM ' 'SKS ' 'SSM ' > ) ]
Lookup: 4 0 1 "'liga' Standard Ligatures"  {"'liga' Standard Ligatures"  } ['liga' ('DFLT' <'dflt' > 'cyrl' <'MKD ' 'SRB ' 'dflt' > 'grek' <'dflt' > 'latn' <'AZE ' 'CRT ' 'GAG ' 'ISM ' 'KAZ ' 'KRK ' 'KSM ' 'LSM ' 'MOL ' 'NSM ' 'ROM ' 'SKS ' 'SSM ' 'TAT ' 'TRK ' 'dflt' > ) ]

StartChar: .notdef
Encoding: 0 -1 0
Width: 1229
Flags: W
LayerCount: 2
Fore
SplineSet
102 -362 m 1,0,-1
 102 1444 l 1,1,-1
 1126 1444 l 1,2,-1
 1126 -362 l 1,3,-1
 102 -362 l 1,0,-1
217 -248 m 1,4,-1
 1012 -248 l 1,5,-1
 1012 1329 l 1,6,-1
 217 1329 l 1,7,-1
 217 -248 l 1,4,-1
EndSplineSet
EndChar
StartChar: exclam
Encoding: 33 33 33
Width: 823
Flags: W
LayerCount: 2
Fore
SplineSet
279 104 m 0,0,1
 279 160 279 160 317 199 c 128,-1,2
 355 238 355 238 412 238 c 0,3,4
 467 238 467 238 506 199 c 128,-1,5
 545 160 545 160 545 104 c 0,6,7
 545 49 545 49 506 10 c 128,-1,8
 467 -29 467 -29 412 -29 c 0,9,10
 355 -29 355 -29 317 9.5 c 128,-1,11
 279 48 279 48 279 104 c 0,0,1
283 1493 m 1,12,-1
 541 1493 l 1,13,-1
 473 672 l 1,14,-1
 473 420 l 1,15,-1
 350 420 l 1,16,-1
 350 672 l 1,17,-1
 283 1493 l 1,12,-1
EndSplineSet
EndChar
StartChar: quotedbl
Encoding: 34 34 34
Width: 942
Flags: W
LayerCount: 2
Fore
SplineSet
360 1493 m 1,0,-1
 360 938 l 1,1,-1
 201 938 l 1,2,-1
 201 1493 l 1,3,-1
 360 1493 l 1,0,-1
741 1493 m 1,4,-1
 741 938 l 1,5,-1
 582 938 l 1,6,-1
 582 1493 l 1,7,-1
 741 1493 l 1,4,-1
EndSplineSet
EndChar
StartChar: numbersign
Encoding: 35 35 35
Width: 1716
Flags: W
LayerCount: 2
Fore
SplineSet
1042 901 m 1,0,-1
 760 901 l 1,1,-1
 676 567 l 1,2,-1
 961 567 l 1,3,-1
 1042 901 l 1,0,-1
901 1470 m 1,4,-1
 799 1055 l 1,5,-1
 1081 1055 l 1,6,-1
 1184 1470 l 1,7,-1
 1356 1470 l 1,8,-1
 1251 1055 l 1,9,-1
 1559 1055 l 1,10,-1
 1559 901 l 1,11,-1
 1212 901 l 1,12,-1
 1130 567 l 1,13,-1
 1444 567 l 1,14,-1
 1444 414 l 1,15,-1
 1092 414 l 1,16,-1
 989 0 l 1,17,-1
 817 0 l 1,18,-1
 922 414 l 1,19,-1
 639 414 l 1,20,-1
 535 0 l 1,21,-1
 365 0 l 1,22,-1
 467 414 l 1,23,-1
 158 414 l 1,24,-1
 158 567 l 1,25,-1
 506 567 l 1,26,-1
 588 901 l 1,27,-1
 272 901 l 1,28,-1
 272 1055 l 1,29,-1
 627 1055 l 1,30,-1
 731 1470 l 1,31,-1
 901 1470 l 1,4,-1
EndSplineSet
EndChar
StartChar: dollar
Encoding: 36 36 36
Width: 1303
Flags: W
LayerCount: 2
Fore
SplineSet
690 68 m 1,0,1
 803 78 803 78 862.5 133 c 128,-1,2
 922 188 922 188 922 283 c 0,3,4
 922 369 922 369 863 429 c 128,-1,5
 804 489 804 489 690 520 c 1,6,-1
 690 68 l 1,0,1
590 1187 m 1,7,8
 487 1180 487 1180 430 1127.5 c 128,-1,9
 373 1075 373 1075 373 987 c 0,10,11
 373 907 373 907 425.5 854 c 128,-1,12
 478 801 478 801 590 768 c 1,13,-1
 590 1187 l 1,7,8
176 72 m 1,14,-1
 176 348 l 1,15,-1
 284 348 l 1,16,17
 288 211 288 211 364 141 c 128,-1,18
 440 71 440 71 590 68 c 1,19,-1
 590 553 l 1,20,21
 360 617 360 617 267 700.5 c 128,-1,22
 174 784 174 784 174 922 c 0,23,24
 174 1082 174 1082 284 1179 c 128,-1,25
 394 1276 394 1276 590 1288 c 1,26,-1
 590 1556 l 1,27,-1
 690 1556 l 1,28,-1
 690 1288 l 1,29,30
 791 1280 791 1280 884.5 1255.5 c 128,-1,31
 978 1231 978 1231 1067 1190 c 1,32,-1
 1067 928 l 1,33,-1
 958 928 l 1,34,35
 946 1044 946 1044 877 1111 c 128,-1,36
 808 1178 808 1178 690 1187 c 1,37,-1
 690 735 l 1,38,39
 936 668 936 668 1034.5 581.5 c 128,-1,40
 1133 495 1133 495 1133 350 c 0,41,42
 1133 184 1133 184 1017 84 c 128,-1,43
 901 -16 901 -16 690 -31 c 1,44,-1
 690 -301 l 1,45,-1
 590 -301 l 1,46,-1
 590 -31 l 1,47,48
 494 -29 494 -29 391 -3.5 c 128,-1,49
 288 22 288 22 176 72 c 1,14,-1
EndSplineSet
EndChar
StartChar: percent
Encoding: 37 37 37
Width: 1946
Flags: W
LayerCount: 2
Fore
SplineSet
459 1427 m 0,0,1
 371 1427 371 1427 321.5 1344 c 128,-1,2
 272 1261 272 1261 272 1112 c 0,3,4
 272 965 272 965 322.5 881 c 128,-1,5
 373 797 373 797 459 797 c 0,6,7
 544 797 544 797 593.5 880.5 c 128,-1,8
 643 964 643 964 643 1112 c 0,9,10
 643 1260 643 1260 593.5 1343.5 c 128,-1,11
 544 1427 544 1427 459 1427 c 0,0,1
1489 694 m 0,12,13
 1402 694 1402 694 1352.5 610 c 128,-1,14
 1303 526 1303 526 1303 377 c 0,15,16
 1303 230 1303 230 1353 146.5 c 128,-1,17
 1403 63 1403 63 1489 63 c 0,18,19
 1575 63 1575 63 1624 146.5 c 128,-1,20
 1673 230 1673 230 1673 377 c 0,21,22
 1673 525 1673 525 1623.5 609.5 c 128,-1,23
 1574 694 1574 694 1489 694 c 0,12,13
1489 784 m 0,24,25
 1647 784 1647 784 1740 674 c 128,-1,26
 1833 564 1833 564 1833 377 c 0,27,28
 1833 190 1833 190 1739.5 80.5 c 128,-1,29
 1646 -29 1646 -29 1489 -29 c 0,30,31
 1329 -29 1329 -29 1236 80.5 c 128,-1,32
 1143 190 1143 190 1143 377 c 0,33,34
 1143 565 1143 565 1236.5 674.5 c 128,-1,35
 1330 784 1330 784 1489 784 c 0,24,25
1364 1520 m 1,36,-1
 1516 1520 l 1,37,-1
 582 -29 l 1,38,-1
 430 -29 l 1,39,-1
 1364 1520 l 1,36,-1
457 1520 m 0,40,41
 615 1520 615 1520 709 1410.5 c 128,-1,42
 803 1301 803 1301 803 1114 c 0,43,44
 803 925 803 925 709.5 816 c 128,-1,45
 616 707 616 707 457 707 c 0,46,47
 298 707 298 707 205.5 816.5 c 128,-1,48
 113 926 113 926 113 1114 c 0,49,50
 113 1300 113 1300 206 1410 c 128,-1,51
 299 1520 299 1520 457 1520 c 0,40,41
EndSplineSet
EndChar
StartChar: ampersand
Encoding: 38 38 38
Width: 1823
Flags: W
LayerCount: 2
Fore
SplineSet
1106 231 m 1,0,-1
 524 844 l 1,1,2
 437 766 437 766 393.5 675.5 c 128,-1,3
 350 585 350 585 350 483 c 0,4,5
 350 317 350 317 465 204.5 c 128,-1,6
 580 92 580 92 752 92 c 0,7,8
 854 92 854 92 944.5 127.5 c 128,-1,9
 1035 163 1035 163 1106 231 c 1,0,-1
1726 0 m 1,10,-1
 1325 0 l 1,11,-1
 1188 145 l 1,12,13
 1083 57 1083 57 964 14 c 128,-1,14
 845 -29 845 -29 707 -29 c 0,15,16
 449 -29 449 -29 298 103 c 128,-1,17
 147 235 147 235 147 461 c 0,18,19
 147 594 147 594 223.5 709.5 c 128,-1,20
 300 825 300 825 455 926 c 1,21,22
 404 987 404 987 380 1047.5 c 128,-1,23
 356 1108 356 1108 356 1174 c 0,24,25
 356 1333 356 1333 470.5 1426.5 c 128,-1,26
 585 1520 585 1520 782 1520 c 0,27,28
 849 1520 849 1520 938.5 1503 c 128,-1,29
 1028 1486 1028 1486 1143 1452 c 1,30,-1
 1143 1194 l 1,31,-1
 1030 1194 l 1,32,33
 1016 1301 1016 1301 952 1357 c 128,-1,34
 888 1413 888 1413 778 1413 c 0,35,36
 675 1413 675 1413 611 1356.5 c 128,-1,37
 547 1300 547 1300 547 1210 c 0,38,39
 547 1149 547 1149 581 1088.5 c 128,-1,40
 615 1028 615 1028 723 915 c 2,41,-1
 1239 371 l 1,42,43
 1308 451 1308 451 1347.5 543.5 c 128,-1,44
 1387 636 1387 636 1397 741 c 1,45,-1
 1217 741 l 1,46,-1
 1217 848 l 1,47,-1
 1690 848 l 1,48,-1
 1690 741 l 1,49,-1
 1518 741 l 1,50,51
 1501 611 1501 611 1451.5 498 c 128,-1,52
 1402 385 1402 385 1319 289 c 1,53,-1
 1491 106 l 1,54,-1
 1726 106 l 1,55,-1
 1726 0 l 1,10,-1
EndSplineSet
EndChar
StartChar: quotesingle
Encoding: 39 39 39
Width: 563
Flags: W
LayerCount: 2
Fore
SplineSet
360 1493 m 1,0,-1
 360 938 l 1,1,-1
 201 938 l 1,2,-1
 201 1493 l 1,3,-1
 360 1493 l 1,0,-1
EndSplineSet
EndChar
StartChar: parenleft
Encoding: 40 40 40
Width: 799
Flags: W
LayerCount: 2
Fore
SplineSet
653 -319 m 1,0,1
 410 -210 410 -210 286 26.5 c 128,-1,2
 162 263 162 263 162 618 c 0,3,4
 162 974 162 974 286 1210.5 c 128,-1,5
 410 1447 410 1447 653 1556 c 1,6,-1
 653 1458 l 1,7,8
 499 1352 499 1352 432 1159.5 c 128,-1,9
 365 967 365 967 365 618 c 0,10,11
 365 270 365 270 432 77.5 c 128,-1,12
 499 -115 499 -115 653 -221 c 1,13,-1
 653 -319 l 1,0,1
EndSplineSet
EndChar
StartChar: parenright
Encoding: 41 41 41
Width: 799
Flags: W
LayerCount: 2
Fore
SplineSet
145 -319 m 1,0,-1
 145 -221 l 1,1,2
 299 -115 299 -115 366.5 77.5 c 128,-1,3
 434 270 434 270 434 618 c 0,4,5
 434 967 434 967 366.5 1159.5 c 128,-1,6
 299 1352 299 1352 145 1458 c 1,7,-1
 145 1556 l 1,8,9
 389 1447 389 1447 513 1210.5 c 128,-1,10
 637 974 637 974 637 618 c 0,11,12
 637 263 637 263 513 26.5 c 128,-1,13
 389 -210 389 -210 145 -319 c 1,0,-1
EndSplineSet
EndChar
StartChar: asterisk
Encoding: 42 42 42
Width: 1024
Flags: W
LayerCount: 2
Fore
SplineSet
991 1237 m 1,0,-1
 600 1055 l 1,1,-1
 991 870 l 1,2,-1
 915 752 l 1,3,-1
 567 969 l 1,4,-1
 580 588 l 1,5,-1
 444 588 l 1,6,-1
 457 969 l 1,7,-1
 109 752 l 1,8,-1
 33 870 l 1,9,-1
 424 1053 l 1,10,-1
 33 1237 l 1,11,-1
 109 1356 l 1,12,-1
 457 1139 l 1,13,-1
 444 1520 l 1,14,-1
 580 1520 l 1,15,-1
 567 1139 l 1,16,-1
 915 1356 l 1,17,-1
 991 1237 l 1,0,-1
EndSplineSet
EndChar
StartChar: plus
Encoding: 43 43 43
Width: 1716
Flags: W
LayerCount: 2
Fore
SplineSet
938 1284 m 1,0,-1
 938 723 l 1,1,-1
 1499 723 l 1,2,-1
 1499 561 l 1,3,-1
 938 561 l 1,4,-1
 938 0 l 1,5,-1
 778 0 l 1,6,-1
 778 561 l 1,7,-1
 217 561 l 1,8,-1
 217 723 l 1,9,-1
 778 723 l 1,10,-1
 778 1284 l 1,11,-1
 938 1284 l 1,0,-1
EndSplineSet
EndChar
StartChar: comma
Encoding: 44 44 44
Width: 651
Flags: W
LayerCount: 2
Fore
SplineSet
74 -199 m 1,0,1
 168 -130 168 -130 212 -36.5 c 128,-1,2
 256 57 256 57 256 190 c 2,3,-1
 256 227 l 1,4,-1
 453 227 l 1,5,6
 445 56 445 56 372.5 -66.5 c 128,-1,7
 300 -189 300 -189 154 -279 c 1,8,-1
 74 -199 l 1,0,1
EndSplineSet
EndChar
StartChar: hyphen
Encoding: 45 45 45
Width: 692
Flags: W
LayerCount: 2
Fore
SplineSet
90 627 m 1,0,-1
 602 627 l 1,1,-1
 602 471 l 1,2,-1
 90 471 l 1,3,-1
 90 627 l 1,0,-1
EndSplineSet
EndChar
StartChar: period
Encoding: 46 46 46
Width: 651
Flags: W
LayerCount: 2
Fore
SplineSet
193 104 m 0,0,1
 193 160 193 160 231 199 c 128,-1,2
 269 238 269 238 326 238 c 0,3,4
 381 238 381 238 420 199 c 128,-1,5
 459 160 459 160 459 104 c 0,6,7
 459 49 459 49 420 10 c 128,-1,8
 381 -29 381 -29 326 -29 c 0,9,10
 269 -29 269 -29 231 9.5 c 128,-1,11
 193 48 193 48 193 104 c 0,0,1
EndSplineSet
EndChar
StartChar: slash
Encoding: 47 47 47
Width: 690
Flags: W
LayerCount: 2
Fore
SplineSet
530 1493 m 1,0,-1
 690 1493 l 1,1,-1
 160 -190 l 1,2,-1
 0 -190 l 1,3,-1
 530 1493 l 1,0,-1
EndSplineSet
EndChar
StartChar: zero
Encoding: 48 48 48
Width: 1303
Flags: W
LayerCount: 2
Fore
SplineSet
651 70 m 0,0,1
 804 70 804 70 880 238 c 128,-1,2
 956 406 956 406 956 745 c 0,3,4
 956 1085 956 1085 880 1253 c 128,-1,5
 804 1421 804 1421 651 1421 c 0,6,7
 498 1421 498 1421 422 1253 c 128,-1,8
 346 1085 346 1085 346 745 c 0,9,10
 346 406 346 406 422 238 c 128,-1,11
 498 70 498 70 651 70 c 0,0,1
651 -29 m 0,12,13
 408 -29 408 -29 271.5 175 c 128,-1,14
 135 379 135 379 135 745 c 0,15,16
 135 1112 135 1112 271.5 1316 c 128,-1,17
 408 1520 408 1520 651 1520 c 0,18,19
 895 1520 895 1520 1031 1316 c 128,-1,20
 1167 1112 1167 1112 1167 745 c 0,21,22
 1167 379 1167 379 1031 175 c 128,-1,23
 895 -29 895 -29 651 -29 c 0,12,13
EndSplineSet
EndChar
StartChar: one
Encoding: 49 49 49
Width: 1303
Flags: W
LayerCount: 2
Fore
SplineSet
291 0 m 1,0,-1
 291 106 l 1,1,-1
 551 106 l 1,2,-1
 551 1348 l 1,3,-1
 250 1153 l 1,4,-1
 250 1284 l 1,5,-1
 614 1520 l 1,6,-1
 752 1520 l 1,7,-1
 752 106 l 1,8,-1
 1012 106 l 1,9,-1
 1012 0 l 1,10,-1
 291 0 l 1,0,-1
EndSplineSet
EndChar
StartChar: two
Encoding: 50 50 50
Width: 1303
Flags: W
LayerCount: 2
Fore
SplineSet
262 1137 m 1,0,-1
 150 1137 l 1,1,-1
 150 1403 l 1,2,3
 257 1460 257 1460 365.5 1490 c 128,-1,4
 474 1520 474 1520 578 1520 c 0,5,6
 811 1520 811 1520 946 1407 c 128,-1,7
 1081 1294 1081 1294 1081 1100 c 0,8,9
 1081 881 1081 881 775 576 c 0,10,11
 751 553 751 553 739 541 c 2,12,-1
 362 164 l 1,13,-1
 985 164 l 1,14,-1
 985 348 l 1,15,-1
 1102 348 l 1,16,-1
 1102 0 l 1,17,-1
 139 0 l 1,18,-1
 139 109 l 1,19,-1
 592 561 l 2,20,21
 742 711 742 711 806 836.5 c 128,-1,22
 870 962 870 962 870 1100 c 0,23,24
 870 1251 870 1251 791.5 1336 c 128,-1,25
 713 1421 713 1421 575 1421 c 0,26,27
 432 1421 432 1421 354 1350 c 128,-1,28
 276 1279 276 1279 262 1137 c 1,0,-1
EndSplineSet
EndChar
StartChar: three
Encoding: 51 51 51
Width: 1303
Flags: W
LayerCount: 2
Fore
SplineSet
199 1430 m 1,0,1
 316 1474 316 1474 423.5 1497 c 128,-1,2
 531 1520 531 1520 625 1520 c 0,3,4
 844 1520 844 1520 967 1425.5 c 128,-1,5
 1090 1331 1090 1331 1090 1163 c 0,6,7
 1090 1028 1090 1028 1005 937.5 c 128,-1,8
 920 847 920 847 764 815 c 1,9,10
 948 789 948 789 1049.5 681.5 c 128,-1,11
 1151 574 1151 574 1151 403 c 0,12,13
 1151 194 1151 194 1010.5 82.5 c 128,-1,14
 870 -29 870 -29 606 -29 c 0,15,16
 489 -29 489 -29 377.5 -4 c 128,-1,17
 266 21 266 21 156 72 c 1,18,-1
 156 362 l 1,19,-1
 268 362 l 1,20,21
 278 218 278 218 365 144 c 128,-1,22
 452 70 452 70 610 70 c 0,23,24
 763 70 763 70 851.5 158.5 c 128,-1,25
 940 247 940 247 940 401 c 0,26,27
 940 577 940 577 849 667.5 c 128,-1,28
 758 758 758 758 582 758 c 2,29,-1
 487 758 l 1,30,-1
 487 860 l 1,31,-1
 537 860 l 2,32,33
 712 860 712 860 799.5 932.5 c 128,-1,34
 887 1005 887 1005 887 1151 c 0,35,36
 887 1282 887 1282 815 1351.5 c 128,-1,37
 743 1421 743 1421 608 1421 c 0,38,39
 473 1421 473 1421 398.5 1357 c 128,-1,40
 324 1293 324 1293 311 1167 c 1,41,-1
 199 1167 l 1,42,-1
 199 1430 l 1,0,1
EndSplineSet
EndChar
StartChar: four
Encoding: 52 52 52
Width: 1303
Flags: W
LayerCount: 2
Fore
SplineSet
715 506 m 1,0,-1
 715 1300 l 1,1,-1
 205 506 l 1,2,-1
 715 506 l 1,0,-1
1155 0 m 1,3,-1
 475 0 l 1,4,-1
 475 106 l 1,5,-1
 715 106 l 1,6,-1
 715 399 l 1,7,-1
 63 399 l 1,8,-1
 63 508 l 1,9,-1
 717 1520 l 1,10,-1
 915 1520 l 1,11,-1
 915 506 l 1,12,-1
 1200 506 l 1,13,-1
 1200 399 l 1,14,-1
 915 399 l 1,15,-1
 915 106 l 1,16,-1
 1155 106 l 1,17,-1
 1155 0 l 1,3,-1
EndSplineSet
EndChar
StartChar: five
Encoding: 53 53 53
Width: 1303
Flags: W
LayerCount: 2
Fore
SplineSet
1030 1493 m 1,0,-1
 1030 1329 l 1,1,-1
 346 1329 l 1,2,-1
 346 901 l 1,3,4
 398 937 398 937 467.5 955 c 128,-1,5
 537 973 537 973 623 973 c 0,6,7
 865 973 865 973 1005 839 c 128,-1,8
 1145 705 1145 705 1145 473 c 0,9,10
 1145 236 1145 236 1003.5 103.5 c 128,-1,11
 862 -29 862 -29 606 -29 c 0,12,13
 503 -29 503 -29 395 -4 c 128,-1,14
 287 21 287 21 174 72 c 1,15,-1
 174 362 l 1,16,-1
 287 362 l 1,17,18
 296 220 296 220 377.5 145 c 128,-1,19
 459 70 459 70 606 70 c 0,20,21
 764 70 764 70 849 174 c 128,-1,22
 934 278 934 278 934 473 c 0,23,24
 934 667 934 667 849.5 770.5 c 128,-1,25
 765 874 765 874 606 874 c 0,26,27
 516 874 516 874 447.5 842 c 128,-1,28
 379 810 379 810 326 743 c 1,29,-1
 240 743 l 1,30,-1
 240 1493 l 1,31,-1
 1030 1493 l 1,0,-1
EndSplineSet
EndChar
StartChar: six
Encoding: 54 54 54
Width: 1303
Flags: W
LayerCount: 2
Fore
SplineSet
670 70 m 0,0,1
 811 70 811 70 887 173.5 c 128,-1,2
 963 277 963 277 963 471 c 0,3,4
 963 665 963 665 887 768.5 c 128,-1,5
 811 872 811 872 670 872 c 0,6,7
 527 872 527 872 452 772 c 128,-1,8
 377 672 377 672 377 483 c 0,9,10
 377 284 377 284 453 177 c 128,-1,11
 529 70 529 70 670 70 c 0,0,1
344 822 m 1,12,13
 412 897 412 897 498 934 c 128,-1,14
 584 971 584 971 692 971 c 0,15,16
 915 971 915 971 1044.5 837 c 128,-1,17
 1174 703 1174 703 1174 471 c 0,18,19
 1174 244 1174 244 1034.5 107.5 c 128,-1,20
 895 -29 895 -29 662 -29 c 0,21,22
 409 -29 409 -29 273 159.5 c 128,-1,23
 137 348 137 348 137 698 c 0,24,25
 137 1090 137 1090 298 1305 c 128,-1,26
 459 1520 459 1520 752 1520 c 0,27,28
 831 1520 831 1520 918 1505 c 128,-1,29
 1005 1490 1005 1490 1096 1460 c 1,30,-1
 1096 1214 l 1,31,-1
 983 1214 l 1,32,33
 971 1315 971 1315 906 1368 c 128,-1,34
 841 1421 841 1421 731 1421 c 0,35,36
 537 1421 537 1421 442 1274 c 128,-1,37
 347 1127 347 1127 344 822 c 1,12,13
EndSplineSet
EndChar
StartChar: seven
Encoding: 55 55 55
Width: 1303
Flags: W
LayerCount: 2
Fore
SplineSet
1155 1391 m 1,0,-1
 571 0 l 1,1,-1
 422 0 l 1,2,-1
 979 1329 l 1,3,-1
 289 1329 l 1,4,-1
 289 1145 l 1,5,-1
 172 1145 l 1,6,-1
 172 1493 l 1,7,-1
 1155 1493 l 1,8,-1
 1155 1391 l 1,0,-1
EndSplineSet
EndChar
StartChar: eight
Encoding: 56 56 56
Width: 1303
Flags: W
LayerCount: 2
Fore
SplineSet
954 408 m 0,0,1
 954 568 954 568 874.5 656.5 c 128,-1,2
 795 745 795 745 651 745 c 0,3,4
 507 745 507 745 427.5 656.5 c 128,-1,5
 348 568 348 568 348 408 c 0,6,7
 348 247 348 247 427.5 158.5 c 128,-1,8
 507 70 507 70 651 70 c 0,9,10
 795 70 795 70 874.5 158.5 c 128,-1,11
 954 247 954 247 954 408 c 0,0,1
913 1133 m 0,12,13
 913 1269 913 1269 844 1345 c 128,-1,14
 775 1421 775 1421 651 1421 c 0,15,16
 528 1421 528 1421 458.5 1345 c 128,-1,17
 389 1269 389 1269 389 1133 c 0,18,19
 389 996 389 996 458.5 920 c 128,-1,20
 528 844 528 844 651 844 c 0,21,22
 775 844 775 844 844 920 c 128,-1,23
 913 996 913 996 913 1133 c 0,12,13
805 795 m 1,24,25
 975 772 975 772 1070 669.5 c 128,-1,26
 1165 567 1165 567 1165 408 c 0,27,28
 1165 198 1165 198 1032 84.5 c 128,-1,29
 899 -29 899 -29 651 -29 c 0,30,31
 404 -29 404 -29 270.5 84.5 c 128,-1,32
 137 198 137 198 137 408 c 0,33,34
 137 567 137 567 232 669.5 c 128,-1,35
 327 772 327 772 498 795 c 1,36,37
 347 822 347 822 266.5 909.5 c 128,-1,38
 186 997 186 997 186 1133 c 0,39,40
 186 1313 186 1313 310 1416.5 c 128,-1,41
 434 1520 434 1520 651 1520 c 0,42,43
 868 1520 868 1520 992 1416.5 c 128,-1,44
 1116 1313 1116 1313 1116 1133 c 0,45,46
 1116 997 1116 997 1035.5 909.5 c 128,-1,47
 955 822 955 822 805 795 c 1,24,25
EndSplineSet
EndChar
StartChar: nine
Encoding: 57 57 57
Width: 1303
Flags: W
LayerCount: 2
Fore
SplineSet
958 669 m 1,0,1
 891 594 891 594 804 557 c 128,-1,2
 717 520 717 520 608 520 c 0,3,4
 386 520 386 520 257.5 654 c 128,-1,5
 129 788 129 788 129 1020 c 0,6,7
 129 1247 129 1247 268.5 1383.5 c 128,-1,8
 408 1520 408 1520 641 1520 c 0,9,10
 894 1520 894 1520 1029.5 1331.5 c 128,-1,11
 1165 1143 1165 1143 1165 793 c 0,12,13
 1165 401 1165 401 1004 186 c 128,-1,14
 843 -29 843 -29 551 -29 c 0,15,16
 472 -29 472 -29 385 -14 c 128,-1,17
 298 1 298 1 207 31 c 1,18,-1
 207 279 l 1,19,-1
 319 279 l 1,20,21
 332 178 332 178 397 124 c 128,-1,22
 462 70 462 70 571 70 c 0,23,24
 765 70 765 70 860 216.5 c 128,-1,25
 955 363 955 363 958 669 c 1,0,1
633 1421 m 0,26,27
 491 1421 491 1421 415.5 1317.5 c 128,-1,28
 340 1214 340 1214 340 1020 c 0,29,30
 340 826 340 826 415.5 722 c 128,-1,31
 491 618 491 618 633 618 c 0,32,33
 775 618 775 618 850.5 718.5 c 128,-1,34
 926 819 926 819 926 1008 c 0,35,36
 926 1207 926 1207 850 1314 c 128,-1,37
 774 1421 774 1421 633 1421 c 0,26,27
EndSplineSet
EndChar
StartChar: colon
Encoding: 58 58 58
Width: 690
Flags: W
LayerCount: 2
Fore
SplineSet
213 104 m 0,0,1
 213 160 213 160 251.5 199 c 128,-1,2
 290 238 290 238 346 238 c 0,3,4
 402 238 402 238 440.5 199 c 128,-1,5
 479 160 479 160 479 104 c 0,6,7
 479 48 479 48 441 9.5 c 128,-1,8
 403 -29 403 -29 346 -29 c 0,9,10
 289 -29 289 -29 251 9.5 c 128,-1,11
 213 48 213 48 213 104 c 0,0,1
213 756 m 0,12,13
 213 812 213 812 251.5 850.5 c 128,-1,14
 290 889 290 889 346 889 c 0,15,16
 403 889 403 889 441 851 c 128,-1,17
 479 813 479 813 479 756 c 0,18,19
 479 699 479 699 441 661 c 128,-1,20
 403 623 403 623 346 623 c 0,21,22
 290 623 290 623 251.5 661.5 c 128,-1,23
 213 700 213 700 213 756 c 0,12,13
EndSplineSet
EndChar
StartChar: semicolon
Encoding: 59 59 59
Width: 690
Flags: W
LayerCount: 2
Fore
SplineSet
74 -199 m 1,0,1
 168 -130 168 -130 212 -36.5 c 128,-1,2
 256 57 256 57 256 190 c 2,3,-1
 256 227 l 1,4,-1
 453 227 l 1,5,6
 445 56 445 56 372.5 -66.5 c 128,-1,7
 300 -189 300 -189 154 -279 c 1,8,-1
 74 -199 l 1,0,1
217 756 m 0,9,10
 217 812 217 812 255.5 850.5 c 128,-1,11
 294 889 294 889 350 889 c 0,12,13
 406 889 406 889 444.5 850 c 128,-1,14
 483 811 483 811 483 756 c 0,15,16
 483 700 483 700 444.5 661.5 c 128,-1,17
 406 623 406 623 350 623 c 0,18,19
 294 623 294 623 255.5 661.5 c 128,-1,20
 217 700 217 700 217 756 c 0,9,10
EndSplineSet
EndChar
StartChar: less
Encoding: 60 60 60
Width: 1716
Flags: W
LayerCount: 2
Fore
SplineSet
1499 1020 m 1,0,-1
 461 641 l 1,1,-1
 1499 264 l 1,2,-1
 1499 94 l 1,3,-1
 217 559 l 1,4,-1
 217 725 l 1,5,-1
 1499 1190 l 1,6,-1
 1499 1020 l 1,0,-1
EndSplineSet
EndChar
StartChar: equal
Encoding: 61 61 61
Width: 1716
Flags: W
LayerCount: 2
Fore
SplineSet
217 926 m 1,0,-1
 1499 926 l 1,1,-1
 1499 766 l 1,2,-1
 217 766 l 1,3,-1
 217 926 l 1,0,-1
217 518 m 1,4,-1
 1499 518 l 1,5,-1
 1499 358 l 1,6,-1
 217 358 l 1,7,-1
 217 518 l 1,4,-1
EndSplineSet
EndChar
StartChar: greater
Encoding: 62 62 62
Width: 1716
Flags: W
LayerCount: 2
Fore
SplineSet
217 1020 m 1,0,-1
 217 1190 l 1,1,-1
 1499 725 l 1,2,-1
 1499 559 l 1,3,-1
 217 94 l 1,4,-1
 217 264 l 1,5,-1
 1255 641 l 1,6,-1
 217 1020 l 1,0,-1
EndSplineSet
EndChar
StartChar: question
Encoding: 63 63 63
Width: 1098
Flags: W
LayerCount: 2
Fore
SplineSet
360 104 m 0,0,1
 360 160 360 160 398.5 199 c 128,-1,2
 437 238 437 238 494 238 c 0,3,4
 549 238 549 238 588 199 c 128,-1,5
 627 160 627 160 627 104 c 0,6,7
 627 49 627 49 588 10 c 128,-1,8
 549 -29 549 -29 494 -29 c 0,9,10
 437 -29 437 -29 398.5 9.5 c 128,-1,11
 360 48 360 48 360 104 c 0,0,1
139 1427 m 1,12,13
 245 1474 245 1474 340.5 1497 c 128,-1,14
 436 1520 436 1520 520 1520 c 0,15,16
 742 1520 742 1520 870.5 1413 c 128,-1,17
 999 1306 999 1306 999 1124 c 0,18,19
 999 938 999 938 888.5 820 c 128,-1,20
 778 702 778 702 555 651 c 1,21,-1
 555 397 l 1,22,-1
 432 397 l 1,23,-1
 432 725 l 1,24,25
 609 768 609 768 698.5 869 c 128,-1,26
 788 970 788 970 788 1126 c 0,27,28
 788 1263 788 1263 715 1342 c 128,-1,29
 642 1421 642 1421 516 1421 c 0,30,31
 402 1421 402 1421 329.5 1355.5 c 128,-1,32
 257 1290 257 1290 236 1167 c 1,33,-1
 139 1167 l 1,34,-1
 139 1427 l 1,12,13
EndSplineSet
EndChar
StartChar: at
Encoding: 64 64 64
Width: 2048
Flags: W
LayerCount: 2
Fore
SplineSet
1294 248 m 1,0,1
 1235 166 1235 166 1161.5 126 c 128,-1,2
 1088 86 1088 86 995 86 c 0,3,4
 820 86 820 86 711 211 c 128,-1,5
 602 336 602 336 602 537 c 0,6,7
 602 738 602 738 711 862.5 c 128,-1,8
 820 987 820 987 995 987 c 0,9,10
 1088 987 1088 987 1161.5 947 c 128,-1,11
 1235 907 1235 907 1294 825 c 1,12,-1
 1294 967 l 1,13,-1
 1450 967 l 1,14,-1
 1450 195 l 1,15,16
 1620 232 1620 232 1714 357 c 128,-1,17
 1808 482 1808 482 1808 670 c 0,18,19
 1808 781 1808 781 1774 880 c 128,-1,20
 1740 979 1740 979 1673 1063 c 0,21,22
 1567 1196 1567 1196 1414.5 1266.5 c 128,-1,23
 1262 1337 1262 1337 1083 1337 c 0,24,25
 993 1337 993 1337 905 1318 c 128,-1,26
 817 1299 817 1299 731 1260 c 0,27,28
 529 1167 529 1167 417 978.5 c 128,-1,29
 305 790 305 790 305 543 c 0,30,31
 305 376 305 376 355 235.5 c 128,-1,32
 405 95 405 95 500 -8 c 0,33,34
 609 -127 609 -127 758.5 -189.5 c 128,-1,35
 908 -252 908 -252 1081 -252 c 0,36,37
 1210 -252 1210 -252 1322 -214 c 128,-1,38
 1434 -176 1434 -176 1530 -100 c 1,39,-1
 1583 -170 l 1,40,41
 1475 -263 1475 -263 1338 -309.5 c 128,-1,42
 1201 -356 1201 -356 1038 -356 c 0,43,44
 855 -356 855 -356 688.5 -289.5 c 128,-1,45
 522 -223 522 -223 397 -100 c 0,46,47
 268 27 268 27 201.5 190.5 c 128,-1,48
 135 354 135 354 135 543 c 0,49,50
 135 727 135 727 202 890 c 128,-1,51
 269 1053 269 1053 397 1180 c 0,52,53
 524 1306 524 1306 696.5 1374 c 128,-1,54
 869 1442 869 1442 1063 1442 c 0,55,56
 1277 1442 1277 1442 1453.5 1359 c 128,-1,57
 1630 1276 1630 1276 1749 1120 c 0,58,59
 1825 1022 1825 1022 1864 907 c 128,-1,60
 1903 792 1903 792 1903 668 c 0,61,62
 1903 400 1903 400 1740 244.5 c 128,-1,63
 1577 89 1577 89 1295 86 c 1,64,-1
 1294 248 l 1,0,1
1294 485 m 2,65,-1
 1294 590 l 2,66,67
 1294 715 1294 715 1222.5 792.5 c 128,-1,68
 1151 870 1151 870 1036 870 c 0,69,70
 915 870 915 870 847.5 782.5 c 128,-1,71
 780 695 780 695 780 537 c 0,72,73
 780 378 780 378 848 290.5 c 128,-1,74
 916 203 916 203 1038 203 c 0,75,76
 1152 203 1152 203 1223 281.5 c 128,-1,77
 1294 360 1294 360 1294 485 c 2,65,-1
EndSplineSet
EndChar
StartChar: A
Encoding: 65 65 65
Width: 1479
Flags: W
AnchorPoint: "below" 739 0 basechar 0
AnchorPoint: "above" 739 1465 basechar 0
LayerCount: 2
Fore
SplineSet
410 541 m 1,0,-1
 958 541 l 1,1,-1
 684 1251 l 1,2,-1
 410 541 l 1,0,-1
-12 0 m 1,3,-1
 -12 106 l 1,4,-1
 119 106 l 1,5,-1
 651 1493 l 1,6,-1
 819 1493 l 1,7,-1
 1352 106 l 1,8,-1
 1499 106 l 1,9,-1
 1499 0 l 1,10,-1
 956 0 l 1,11,-1
 956 106 l 1,12,-1
 1122 106 l 1,13,-1
 997 434 l 1,14,-1
 369 434 l 1,15,-1
 244 106 l 1,16,-1
 408 106 l 1,17,-1
 408 0 l 1,18,-1
 -12 0 l 1,3,-1
EndSplineSet
EndChar
StartChar: B
Encoding: 66 66 66
Width: 1505
Flags: W
AnchorPoint: "below" 743 0 basechar 0
AnchorPoint: "above" 743 1465 basechar 0
LayerCount: 2
Fore
SplineSet
506 106 m 1,0,-1
 805 106 l 2,1,2
 985 106 985 106 1068 184 c 128,-1,3
 1151 262 1151 262 1151 432 c 0,4,5
 1151 601 1151 601 1068.5 678.5 c 128,-1,6
 986 756 986 756 805 756 c 2,7,-1
 506 756 l 1,8,-1
 506 106 l 1,0,-1
506 862 m 1,9,-1
 760 862 l 2,10,11
 924 862 924 862 999.5 925 c 128,-1,12
 1075 988 1075 988 1075 1124 c 0,13,14
 1075 1261 1075 1261 999.5 1323.5 c 128,-1,15
 924 1386 924 1386 760 1386 c 2,16,-1
 506 1386 l 1,17,-1
 506 862 l 1,9,-1
113 0 m 1,18,-1
 113 106 l 1,19,-1
 303 106 l 1,20,-1
 303 1386 l 1,21,-1
 113 1386 l 1,22,-1
 113 1493 l 1,23,-1
 850 1493 l 2,24,25
 1076 1493 1076 1493 1190.5 1400.5 c 128,-1,26
 1305 1308 1305 1308 1305 1124 c 0,27,28
 1305 991 1305 991 1225.5 912 c 128,-1,29
 1146 833 1146 833 993 815 c 1,30,31
 1183 791 1183 791 1281.5 693.5 c 128,-1,32
 1380 596 1380 596 1380 432 c 0,33,34
 1380 210 1380 210 1240 105 c 128,-1,35
 1100 0 1100 0 803 0 c 2,36,-1
 113 0 l 1,18,-1
EndSplineSet
EndChar
StartChar: C
Encoding: 67 67 67
Width: 1567
Flags: W
AnchorPoint: "below" 829 0 basechar 0
AnchorPoint: "above" 829 1465 basechar 0
LayerCount: 2
Fore
SplineSet
1444 395 m 1,0,1
 1378 186 1378 186 1222.5 78.5 c 128,-1,2
 1067 -29 1067 -29 829 -29 c 0,3,4
 683 -29 683 -29 558 21 c 128,-1,5
 433 71 433 71 336 168 c 0,6,7
 224 280 224 280 169.5 422.5 c 128,-1,8
 115 565 115 565 115 745 c 0,9,10
 115 1093 115 1093 316 1306.5 c 128,-1,11
 517 1520 517 1520 846 1520 c 0,12,13
 968 1520 968 1520 1106 1488 c 128,-1,14
 1244 1456 1244 1456 1403 1391 c 1,15,-1
 1403 1047 l 1,16,-1
 1290 1047 l 1,17,18
 1253 1235 1253 1235 1141.5 1324 c 128,-1,19
 1030 1413 1030 1413 829 1413 c 0,20,21
 590 1413 590 1413 467 1243.5 c 128,-1,22
 344 1074 344 1074 344 745 c 0,23,24
 344 417 344 417 467 247.5 c 128,-1,25
 590 78 590 78 829 78 c 0,26,27
 996 78 996 78 1104 157.5 c 128,-1,28
 1212 237 1212 237 1260 395 c 1,29,-1
 1444 395 l 1,0,1
EndSplineSet
EndChar
StartChar: D
Encoding: 68 68 68
Width: 1642
Flags: W
AnchorPoint: "below" 743 0 basechar 0
AnchorPoint: "above" 743 1465 basechar 0
LayerCount: 2
Fore
SplineSet
506 106 m 1,0,-1
 692 106 l 2,1,2
 983 106 983 106 1138.5 272 c 128,-1,3
 1294 438 1294 438 1294 748 c 0,4,5
 1294 1058 1294 1058 1139 1222 c 128,-1,6
 984 1386 984 1386 692 1386 c 2,7,-1
 506 1386 l 1,8,-1
 506 106 l 1,0,-1
113 0 m 1,9,-1
 113 106 l 1,10,-1
 303 106 l 1,11,-1
 303 1386 l 1,12,-1
 113 1386 l 1,13,-1
 113 1493 l 1,14,-1
 707 1493 l 2,15,16
 1093 1493 1093 1493 1308.5 1296 c 128,-1,17
 1524 1099 1524 1099 1524 748 c 0,18,19
 1524 396 1524 396 1308 198 c 128,-1,20
 1092 0 1092 0 707 0 c 2,21,-1
 113 0 l 1,9,-1
EndSplineSet
EndChar
StartChar: E
Encoding: 69 69 69
Width: 1495
Flags: W
AnchorPoint: "below" 748 0 basechar 0
AnchorPoint: "above" 748 1465 basechar 0
LayerCount: 2
Fore
SplineSet
113 0 m 1,0,-1
 113 106 l 1,1,-1
 303 106 l 1,2,-1
 303 1386 l 1,3,-1
 113 1386 l 1,4,-1
 113 1493 l 1,5,-1
 1315 1493 l 1,6,-1
 1315 1161 l 1,7,-1
 1192 1161 l 1,8,-1
 1192 1370 l 1,9,-1
 506 1370 l 1,10,-1
 506 870 l 1,11,-1
 995 870 l 1,12,-1
 995 1057 l 1,13,-1
 1118 1057 l 1,14,-1
 1118 561 l 1,15,-1
 995 561 l 1,16,-1
 995 748 l 1,17,-1
 506 748 l 1,18,-1
 506 123 l 1,19,-1
 1208 123 l 1,20,-1
 1208 332 l 1,21,-1
 1331 332 l 1,22,-1
 1331 0 l 1,23,-1
 113 0 l 1,0,-1
EndSplineSet
EndChar
StartChar: F
Encoding: 70 70 70
Width: 1421
Flags: W
AnchorPoint: "above" 758 1465 basechar 0
AnchorPoint: "below" 404 0 basechar 0
LayerCount: 2
Fore
SplineSet
113 0 m 1,0,-1
 113 106 l 1,1,-1
 303 106 l 1,2,-1
 303 1386 l 1,3,-1
 113 1386 l 1,4,-1
 113 1493 l 1,5,-1
 1335 1493 l 1,6,-1
 1335 1161 l 1,7,-1
 1212 1161 l 1,8,-1
 1212 1370 l 1,9,-1
 506 1370 l 1,10,-1
 506 870 l 1,11,-1
 1016 870 l 1,12,-1
 1016 1057 l 1,13,-1
 1139 1057 l 1,14,-1
 1139 561 l 1,15,-1
 1016 561 l 1,16,-1
 1016 748 l 1,17,-1
 506 748 l 1,18,-1
 506 106 l 1,19,-1
 745 106 l 1,20,-1
 745 0 l 1,21,-1
 113 0 l 1,0,-1
EndSplineSet
EndChar
StartChar: G
Encoding: 71 71 71
Width: 1636
Flags: W
AnchorPoint: "below" 856 0 basechar 0
AnchorPoint: "above" 856 1465 basechar 0
LayerCount: 2
Fore
SplineSet
1311 1047 m 1,0,1
 1276 1234 1276 1234 1165 1323.5 c 128,-1,2
 1054 1413 1054 1413 856 1413 c 0,3,4
 598 1413 598 1413 471 1247 c 128,-1,5
 344 1081 344 1081 344 745 c 0,6,7
 344 416 344 416 475 247 c 128,-1,8
 606 78 606 78 860 78 c 0,9,10
 973 78 973 78 1076 106 c 128,-1,11
 1179 134 1179 134 1272 190 c 1,12,-1
 1272 575 l 1,13,-1
 991 575 l 1,14,-1
 991 682 l 1,15,-1
 1475 682 l 1,16,-1
 1475 125 l 1,17,18
 1342 48 1342 48 1188.5 9.5 c 128,-1,19
 1035 -29 1035 -29 860 -29 c 0,20,21
 522 -29 522 -29 318.5 182.5 c 128,-1,22
 115 394 115 394 115 745 c 0,23,24
 115 1099 115 1099 319 1309.5 c 128,-1,25
 523 1520 523 1520 868 1520 c 0,26,27
 996 1520 996 1520 1132.5 1490.5 c 128,-1,28
 1269 1461 1269 1461 1423 1401 c 1,29,-1
 1423 1047 l 1,30,-1
 1311 1047 l 1,0,1
EndSplineSet
EndChar
StartChar: H
Encoding: 72 72 72
Width: 1786
Flags: W
AnchorPoint: "below" 893 0 basechar 0
AnchorPoint: "above" 893 1465 basechar 0
LayerCount: 2
Fore
SplineSet
113 0 m 1,0,-1
 113 106 l 1,1,-1
 303 106 l 1,2,-1
 303 1386 l 1,3,-1
 113 1386 l 1,4,-1
 113 1493 l 1,5,-1
 696 1493 l 1,6,-1
 696 1386 l 1,7,-1
 506 1386 l 1,8,-1
 506 870 l 1,9,-1
 1280 870 l 1,10,-1
 1280 1386 l 1,11,-1
 1090 1386 l 1,12,-1
 1090 1493 l 1,13,-1
 1673 1493 l 1,14,-1
 1673 1386 l 1,15,-1
 1483 1386 l 1,16,-1
 1483 106 l 1,17,-1
 1673 106 l 1,18,-1
 1673 0 l 1,19,-1
 1090 0 l 1,20,-1
 1090 106 l 1,21,-1
 1280 106 l 1,22,-1
 1280 748 l 1,23,-1
 506 748 l 1,24,-1
 506 106 l 1,25,-1
 696 106 l 1,26,-1
 696 0 l 1,27,-1
 113 0 l 1,0,-1
EndSplineSet
EndChar
StartChar: I
Encoding: 73 73 73
Width: 809
Flags: W
AnchorPoint: "below" 406 0 basechar 0
AnchorPoint: "above" 406 1465 basechar 0
LayerCount: 2
Fore
SplineSet
506 106 m 1,0,-1
 696 106 l 1,1,-1
 696 0 l 1,2,-1
 113 0 l 1,3,-1
 113 106 l 1,4,-1
 303 106 l 1,5,-1
 303 1386 l 1,6,-1
 113 1386 l 1,7,-1
 113 1493 l 1,8,-1
 696 1493 l 1,9,-1
 696 1386 l 1,10,-1
 506 1386 l 1,11,-1
 506 106 l 1,0,-1
EndSplineSet
EndChar
StartChar: J
Encoding: 74 74 74
Width: 821
Flags: W
AnchorPoint: "below" 187 -430 basechar 0
AnchorPoint: "above" 435 1465 basechar 0
LayerCount: 2
Fore
SplineSet
-172 -358 m 1,0,-1
 -172 -123 l 1,1,-1
 -58 -123 l 1,2,3
 -55 -222 -55 -222 -11 -270.5 c 128,-1,4
 33 -319 33 -319 121 -319 c 0,5,6
 240 -319 240 -319 287 -244 c 128,-1,7
 334 -169 334 -169 334 49 c 2,8,-1
 334 1386 l 1,9,-1
 102 1386 l 1,10,-1
 102 1493 l 1,11,-1
 727 1493 l 1,12,-1
 727 1386 l 1,13,-1
 537 1386 l 1,14,-1
 537 41 l 2,15,16
 537 -206 537 -206 438 -316 c 128,-1,17
 339 -426 339 -426 119 -426 c 0,18,19
 48 -426 48 -426 -25.5 -409 c 128,-1,20
 -99 -392 -99 -392 -172 -358 c 1,0,-1
EndSplineSet
EndChar
StartChar: K
Encoding: 75 75 75
Width: 1530
Flags: W
AnchorPoint: "above" 841 1465 basechar 0
AnchorPoint: "below" 841 0 basechar 0
LayerCount: 2
Fore
SplineSet
113 0 m 1,0,-1
 113 106 l 1,1,-1
 303 106 l 1,2,-1
 303 1386 l 1,3,-1
 113 1386 l 1,4,-1
 113 1493 l 1,5,-1
 696 1493 l 1,6,-1
 696 1386 l 1,7,-1
 506 1386 l 1,8,-1
 506 821 l 1,9,-1
 1149 1386 l 1,10,-1
 987 1386 l 1,11,-1
 987 1493 l 1,12,-1
 1483 1493 l 1,13,-1
 1483 1386 l 1,14,-1
 1315 1386 l 1,15,-1
 674 823 l 1,16,-1
 1391 106 l 1,17,-1
 1561 106 l 1,18,-1
 1561 0 l 1,19,-1
 1214 0 l 1,20,-1
 506 709 l 1,21,-1
 506 106 l 1,22,-1
 696 106 l 1,23,-1
 696 0 l 1,24,-1
 113 0 l 1,0,-1
EndSplineSet
EndChar
StartChar: L
Encoding: 76 76 76
Width: 1360
Flags: W
AnchorPoint: "above" 406 1465 basechar 0
AnchorPoint: "below" 760 0 basechar 0
LayerCount: 2
Fore
SplineSet
113 0 m 1,0,-1
 113 106 l 1,1,-1
 303 106 l 1,2,-1
 303 1386 l 1,3,-1
 113 1386 l 1,4,-1
 113 1493 l 1,5,-1
 696 1493 l 1,6,-1
 696 1386 l 1,7,-1
 506 1386 l 1,8,-1
 506 123 l 1,9,-1
 1188 123 l 1,10,-1
 1188 373 l 1,11,-1
 1311 373 l 1,12,-1
 1311 0 l 1,13,-1
 113 0 l 1,0,-1
EndSplineSet
EndChar
StartChar: M
Encoding: 77 77 77
Width: 2097
Flags: W
AnchorPoint: "below" 1048 0 basechar 0
AnchorPoint: "above" 1048 1465 basechar 0
LayerCount: 2
Fore
SplineSet
113 0 m 1,0,-1
 113 106 l 1,1,-1
 303 106 l 1,2,-1
 303 1386 l 1,3,-1
 102 1386 l 1,4,-1
 102 1493 l 1,5,-1
 537 1493 l 1,6,-1
 1061 430 l 1,7,-1
 1585 1493 l 1,8,-1
 1993 1493 l 1,9,-1
 1993 1386 l 1,10,-1
 1794 1386 l 1,11,-1
 1794 106 l 1,12,-1
 1985 106 l 1,13,-1
 1985 0 l 1,14,-1
 1401 0 l 1,15,-1
 1401 106 l 1,16,-1
 1591 106 l 1,17,-1
 1591 1260 l 1,18,-1
 1079 219 l 1,19,-1
 938 219 l 1,20,-1
 426 1260 l 1,21,-1
 426 106 l 1,22,-1
 616 106 l 1,23,-1
 616 0 l 1,24,-1
 113 0 l 1,0,-1
EndSplineSet
EndChar
StartChar: N
Encoding: 78 78 78
Width: 1792
Flags: W
AnchorPoint: "below" 871 0 basechar 0
AnchorPoint: "above" 871 1465 basechar 0
LayerCount: 2
Fore
SplineSet
100 0 m 1,0,-1
 100 106 l 1,1,-1
 301 106 l 1,2,-1
 301 1386 l 1,3,-1
 100 1386 l 1,4,-1
 100 1493 l 1,5,-1
 483 1493 l 1,6,-1
 1378 315 l 1,7,-1
 1378 1386 l 1,8,-1
 1178 1386 l 1,9,-1
 1178 1493 l 1,10,-1
 1702 1493 l 1,11,-1
 1702 1386 l 1,12,-1
 1501 1386 l 1,13,-1
 1501 -29 l 1,14,-1
 1380 -29 l 1,15,-1
 424 1229 l 1,16,-1
 424 106 l 1,17,-1
 625 106 l 1,18,-1
 625 0 l 1,19,-1
 100 0 l 1,0,-1
EndSplineSet
EndChar
StartChar: O
Encoding: 79 79 79
Width: 1679
Flags: W
AnchorPoint: "below" 840 0 basechar 0
AnchorPoint: "above" 840 1465 basechar 0
LayerCount: 2
Fore
SplineSet
840 78 m 0,0,1
 1085 78 1085 78 1210 246.5 c 128,-1,2
 1335 415 1335 415 1335 745 c 0,3,4
 1335 1076 1335 1076 1210 1244.5 c 128,-1,5
 1085 1413 1085 1413 840 1413 c 0,6,7
 594 1413 594 1413 469 1244.5 c 128,-1,8
 344 1076 344 1076 344 745 c 0,9,10
 344 415 344 415 469 246.5 c 128,-1,11
 594 78 594 78 840 78 c 0,0,1
840 -29 m 0,12,13
 688 -29 688 -29 560.5 21 c 128,-1,14
 433 71 433 71 336 168 c 0,15,16
 224 280 224 280 169.5 422 c 128,-1,17
 115 564 115 564 115 745 c 0,18,19
 115 926 115 926 169.5 1068.5 c 128,-1,20
 224 1211 224 1211 336 1323 c 0,21,22
 434 1421 434 1421 560 1470.5 c 128,-1,23
 686 1520 686 1520 840 1520 c 0,24,25
 1165 1520 1165 1520 1365 1307 c 128,-1,26
 1565 1094 1565 1094 1565 745 c 0,27,28
 1565 566 1565 566 1510 422.5 c 128,-1,29
 1455 279 1455 279 1343 168 c 0,30,31
 1245 70 1245 70 1119 20.5 c 128,-1,32
 993 -29 993 -29 840 -29 c 0,12,13
EndSplineSet
EndChar
StartChar: P
Encoding: 80 80 80
Width: 1378
Flags: W
AnchorPoint: "below" 406 0 basechar 0
AnchorPoint: "above" 743 1465 basechar 0
LayerCount: 2
Fore
SplineSet
506 760 m 1,0,-1
 770 760 l 2,1,2
 919 760 919 760 997 840.5 c 128,-1,3
 1075 921 1075 921 1075 1073 c 0,4,5
 1075 1226 1075 1226 997 1306 c 128,-1,6
 919 1386 919 1386 770 1386 c 2,7,-1
 506 1386 l 1,8,-1
 506 760 l 1,0,-1
113 0 m 1,9,-1
 113 106 l 1,10,-1
 303 106 l 1,11,-1
 303 1386 l 1,12,-1
 113 1386 l 1,13,-1
 113 1493 l 1,14,-1
 819 1493 l 2,15,16
 1043 1493 1043 1493 1174 1379.5 c 128,-1,17
 1305 1266 1305 1266 1305 1073 c 0,18,19
 1305 881 1305 881 1174 767 c 128,-1,20
 1043 653 1043 653 819 653 c 2,21,-1
 506 653 l 1,22,-1
 506 106 l 1,23,-1
 737 106 l 1,24,-1
 737 0 l 1,25,-1
 113 0 l 1,9,-1
EndSplineSet
EndChar
StartChar: Q
Encoding: 81 81 81
Width: 1679
Flags: W
AnchorPoint: "above" 840 1465 basechar 0
AnchorPoint: "below" 840 -330 basechar 0
LayerCount: 2
Fore
SplineSet
864 -29 m 1,0,1
 521 -29 521 -29 318 181.5 c 128,-1,2
 115 392 115 392 115 745 c 0,3,4
 115 926 115 926 169.5 1068.5 c 128,-1,5
 224 1211 224 1211 336 1323 c 0,6,7
 434 1421 434 1421 560 1470.5 c 128,-1,8
 686 1520 686 1520 840 1520 c 0,9,10
 1165 1520 1165 1520 1365 1307 c 128,-1,11
 1565 1094 1565 1094 1565 745 c 0,12,13
 1565 449 1565 449 1415 247.5 c 128,-1,14
 1265 46 1265 46 1001 -12 c 1,15,16
 1055 -79 1055 -79 1132.5 -111 c 128,-1,17
 1210 -143 1210 -143 1319 -143 c 2,18,-1
 1350 -143 l 1,19,-1
 1350 -328 l 1,20,21
 1181 -320 1181 -320 1060.5 -245.5 c 128,-1,22
 940 -171 940 -171 864 -29 c 1,0,1
840 78 m 0,23,24
 1085 78 1085 78 1210 246.5 c 128,-1,25
 1335 415 1335 415 1335 745 c 0,26,27
 1335 1076 1335 1076 1210 1244.5 c 128,-1,28
 1085 1413 1085 1413 840 1413 c 0,29,30
 594 1413 594 1413 469 1244.5 c 128,-1,31
 344 1076 344 1076 344 745 c 0,32,33
 344 415 344 415 469 246.5 c 128,-1,34
 594 78 594 78 840 78 c 0,23,24
EndSplineSet
EndChar
StartChar: R
Encoding: 82 82 82
Width: 1542
Flags: W
AnchorPoint: "below" 731 0 basechar 0
AnchorPoint: "above" 731 1465 basechar 0
LayerCount: 2
Fore
SplineSet
981 741 m 1,0,1
 1051 722 1051 722 1101.5 676.5 c 128,-1,2
 1152 631 1152 631 1192 549 c 2,3,-1
 1409 106 l 1,4,-1
 1591 106 l 1,5,-1
 1591 0 l 1,6,-1
 1239 0 l 1,7,-1
 1006 475 l 1,8,9
 939 613 939 613 883 653.5 c 128,-1,10
 827 694 827 694 729 694 c 2,11,-1
 506 694 l 1,12,-1
 506 106 l 1,13,-1
 717 106 l 1,14,-1
 717 0 l 1,15,-1
 113 0 l 1,16,-1
 113 106 l 1,17,-1
 303 106 l 1,18,-1
 303 1386 l 1,19,-1
 113 1386 l 1,20,-1
 113 1493 l 1,21,-1
 870 1493 l 2,22,23
 1088 1493 1088 1493 1206.5 1389 c 128,-1,24
 1325 1285 1325 1285 1325 1094 c 0,25,26
 1325 940 1325 940 1238.5 851.5 c 128,-1,27
 1152 763 1152 763 981 741 c 1,0,1
506 801 m 1,28,-1
 801 801 l 2,29,30
 952 801 952 801 1024 872.5 c 128,-1,31
 1096 944 1096 944 1096 1094 c 0,32,33
 1096 1244 1096 1244 1024 1315 c 128,-1,34
 952 1386 952 1386 801 1386 c 2,35,-1
 506 1386 l 1,36,-1
 506 801 l 1,28,-1
EndSplineSet
EndChar
StartChar: S
Encoding: 83 83 83
Width: 1403
Flags: W
AnchorPoint: "below" 702 0 basechar 0
AnchorPoint: "above" 702 1465 basechar 0
LayerCount: 2
Fore
SplineSet
190 72 m 1,0,-1
 190 412 l 1,1,-1
 305 411 l 1,2,3
 310 241 310 241 403.5 159.5 c 128,-1,4
 497 78 497 78 688 78 c 0,5,6
 866 78 866 78 959.5 148.5 c 128,-1,7
 1053 219 1053 219 1053 354 c 0,8,9
 1053 462 1053 462 996.5 520 c 128,-1,10
 940 578 940 578 758 633 c 2,11,-1
 561 692 l 2,12,13
 347 757 347 757 259.5 854 c 128,-1,14
 172 951 172 951 172 1120 c 0,15,16
 172 1310 172 1310 307 1415 c 128,-1,17
 442 1520 442 1520 686 1520 c 0,18,19
 790 1520 790 1520 914 1497.5 c 128,-1,20
 1038 1475 1038 1475 1178 1432 c 1,21,-1
 1178 1114 l 1,22,-1
 1065 1114 l 1,23,24
 1048 1272 1048 1272 959.5 1342.5 c 128,-1,25
 871 1413 871 1413 690 1413 c 0,26,27
 532 1413 532 1413 449.5 1348.5 c 128,-1,28
 367 1284 367 1284 367 1161 c 0,29,30
 367 1054 367 1054 429 993 c 128,-1,31
 491 932 491 932 692 872 c 2,32,-1
 877 817 l 2,33,34
 1080 756 1080 756 1166.5 661.5 c 128,-1,35
 1253 567 1253 567 1253 408 c 0,36,37
 1253 191 1253 191 1114 81 c 128,-1,38
 975 -29 975 -29 700 -29 c 0,39,40
 577 -29 577 -29 449.5 -4 c 128,-1,41
 322 21 322 21 190 72 c 1,0,-1
EndSplineSet
EndChar
StartChar: T
Encoding: 84 84 84
Width: 1366
Flags: W
AnchorPoint: "below" 677 0 basechar 0
AnchorPoint: "above" 677 1465 basechar 0
LayerCount: 2
Fore
SplineSet
391 0 m 1,0,-1
 391 106 l 1,1,-1
 582 106 l 1,2,-1
 582 1374 l 1,3,-1
 143 1374 l 1,4,-1
 143 1141 l 1,5,-1
 20 1141 l 1,6,-1
 20 1493 l 1,7,-1
 1346 1493 l 1,8,-1
 1346 1141 l 1,9,-1
 1223 1141 l 1,10,-1
 1223 1374 l 1,11,-1
 784 1374 l 1,12,-1
 784 106 l 1,13,-1
 975 106 l 1,14,-1
 975 0 l 1,15,-1
 391 0 l 1,0,-1
EndSplineSet
EndChar
StartChar: U
Encoding: 85 85 85
Width: 1726
Flags: W
AnchorPoint: "below" 903 0 basechar 0
AnchorPoint: "above" 903 1465 basechar 0
LayerCount: 2
Fore
SplineSet
287 1386 m 1,0,-1
 96 1386 l 1,1,-1
 96 1493 l 1,2,-1
 680 1493 l 1,3,-1
 680 1386 l 1,4,-1
 489 1386 l 1,5,-1
 489 614 l 2,6,7
 489 328 489 328 582.5 215 c 128,-1,8
 676 102 676 102 905 102 c 0,9,10
 1134 102 1134 102 1227.5 215 c 128,-1,11
 1321 328 1321 328 1321 614 c 2,12,-1
 1321 1386 l 1,13,-1
 1130 1386 l 1,14,-1
 1130 1493 l 1,15,-1
 1634 1493 l 1,16,-1
 1634 1386 l 1,17,-1
 1444 1386 l 1,18,-1
 1444 594 l 2,19,20
 1444 253 1444 253 1313 112 c 128,-1,21
 1182 -29 1182 -29 868 -29 c 0,22,23
 554 -29 554 -29 420.5 113 c 128,-1,24
 287 255 287 255 287 594 c 2,25,-1
 287 1386 l 1,0,-1
EndSplineSet
EndChar
StartChar: V
Encoding: 86 86 86
Width: 1479
Flags: W
AnchorPoint: "above" 739 1465 basechar 0
AnchorPoint: "below" 739 0 basechar 0
LayerCount: 2
Fore
SplineSet
358 1386 m 1,0,-1
 799 240 l 1,1,-1
 1239 1386 l 1,2,-1
 1071 1386 l 1,3,-1
 1071 1493 l 1,4,-1
 1509 1493 l 1,5,-1
 1509 1386 l 1,6,-1
 1364 1386 l 1,7,-1
 831 0 l 1,8,-1
 659 0 l 1,9,-1
 129 1386 l 1,10,-1
 -20 1386 l 1,11,-1
 -20 1493 l 1,12,-1
 524 1493 l 1,13,-1
 524 1386 l 1,14,-1
 358 1386 l 1,0,-1
EndSplineSet
EndChar
StartChar: W
Encoding: 87 87 87
Width: 2105
Flags: W
AnchorPoint: "below" 1054 0 basechar 0
AnchorPoint: "above" 1054 1465 basechar 0
LayerCount: 2
Fore
SplineSet
1561 0 m 1,0,-1
 1397 0 l 1,1,-1
 1055 1214 l 1,2,-1
 713 0 l 1,3,-1
 549 0 l 1,4,-1
 158 1386 l 1,5,-1
 10 1386 l 1,6,-1
 10 1493 l 1,7,-1
 555 1493 l 1,8,-1
 555 1386 l 1,9,-1
 369 1386 l 1,10,-1
 680 283 l 1,11,-1
 1020 1493 l 1,12,-1
 1182 1493 l 1,13,-1
 1528 270 l 1,14,-1
 1841 1386 l 1,15,-1
 1669 1386 l 1,16,-1
 1669 1493 l 1,17,-1
 2099 1493 l 1,18,-1
 2099 1386 l 1,19,-1
 1952 1386 l 1,20,-1
 1561 0 l 1,0,-1
EndSplineSet
EndChar
StartChar: X
Encoding: 88 88 88
Width: 1458
Flags: W
AnchorPoint: "above" 729 1465 basechar 0
AnchorPoint: "below" 729 0 basechar 0
LayerCount: 2
Fore
SplineSet
678 639 m 1,0,-1
 313 106 l 1,1,-1
 506 106 l 1,2,-1
 506 0 l 1,3,-1
 12 0 l 1,4,-1
 12 106 l 1,5,-1
 184 106 l 1,6,-1
 614 733 l 1,7,-1
 178 1386 l 1,8,-1
 18 1386 l 1,9,-1
 18 1493 l 1,10,-1
 610 1493 l 1,11,-1
 610 1386 l 1,12,-1
 434 1386 l 1,13,-1
 754 905 l 1,14,-1
 1083 1386 l 1,15,-1
 891 1386 l 1,16,-1
 891 1493 l 1,17,-1
 1380 1493 l 1,18,-1
 1380 1386 l 1,19,-1
 1212 1386 l 1,20,-1
 817 811 l 1,21,-1
 1288 106 l 1,22,-1
 1448 106 l 1,23,-1
 1448 0 l 1,24,-1
 856 0 l 1,25,-1
 856 106 l 1,26,-1
 1034 106 l 1,27,-1
 678 639 l 1,0,-1
EndSplineSet
EndChar
StartChar: Y
Encoding: 89 89 89
Width: 1352
Flags: W
AnchorPoint: "below" 673 0 basechar 0
AnchorPoint: "above" 673 1465 basechar 0
LayerCount: 2
Fore
SplineSet
387 0 m 1,0,-1
 387 106 l 1,1,-1
 578 106 l 1,2,-1
 578 643 l 1,3,-1
 117 1386 l 1,4,-1
 -23 1386 l 1,5,-1
 -23 1493 l 1,6,-1
 532 1493 l 1,7,-1
 532 1386 l 1,8,-1
 358 1386 l 1,9,-1
 731 782 l 1,10,-1
 1104 1386 l 1,11,-1
 936 1386 l 1,12,-1
 936 1493 l 1,13,-1
 1370 1493 l 1,14,-1
 1370 1386 l 1,15,-1
 1229 1386 l 1,16,-1
 780 662 l 1,17,-1
 780 106 l 1,18,-1
 971 106 l 1,19,-1
 971 0 l 1,20,-1
 387 0 l 1,0,-1
EndSplineSet
EndChar
StartChar: Z
Encoding: 90 90 90
Width: 1423
Flags: W
AnchorPoint: "below" 713 0 basechar 0
AnchorPoint: "above" 713 1465 basechar 0
LayerCount: 2
Fore
SplineSet
92 0 m 1,0,-1
 92 72 l 1,1,-1
 1022 1370 l 1,2,-1
 250 1370 l 1,3,-1
 250 1147 l 1,4,-1
 127 1147 l 1,5,-1
 127 1493 l 1,6,-1
 1307 1493 l 1,7,-1
 1307 1421 l 1,8,-1
 377 123 l 1,9,-1
 1221 123 l 1,10,-1
 1221 332 l 1,11,-1
 1343 332 l 1,12,-1
 1343 0 l 1,13,-1
 92 0 l 1,0,-1
EndSplineSet
EndChar
StartChar: bracketleft
Encoding: 91 91 91
Width: 799
Flags: W
LayerCount: 2
Fore
SplineSet
176 1556 m 1,0,-1
 641 1556 l 1,1,-1
 641 1450 l 1,2,-1
 367 1450 l 1,3,-1
 367 -164 l 1,4,-1
 641 -164 l 1,5,-1
 641 -270 l 1,6,-1
 176 -270 l 1,7,-1
 176 1556 l 1,0,-1
EndSplineSet
EndChar
StartChar: backslash
Encoding: 92 92 92
Width: 690
Flags: W
LayerCount: 2
Fore
SplineSet
160 1493 m 1,0,-1
 690 -190 l 1,1,-1
 530 -190 l 1,2,-1
 0 1493 l 1,3,-1
 160 1493 l 1,0,-1
EndSplineSet
EndChar
StartChar: bracketright
Encoding: 93 93 93
Width: 799
Flags: W
LayerCount: 2
Fore
SplineSet
623 1556 m 1,0,-1
 623 -270 l 1,1,-1
 158 -270 l 1,2,-1
 158 -164 l 1,3,-1
 432 -164 l 1,4,-1
 432 1450 l 1,5,-1
 158 1450 l 1,6,-1
 158 1556 l 1,7,-1
 623 1556 l 1,0,-1
EndSplineSet
EndChar
StartChar: asciicircum
Encoding: 94 94 94
Width: 1716
Flags: W
LayerCount: 2
Fore
SplineSet
956 1493 m 1,0,-1
 1499 936 l 1,1,-1
 1346 936 l 1,2,-1
 858 1317 l 1,3,-1
 371 936 l 1,4,-1
 217 936 l 1,5,-1
 760 1493 l 1,6,-1
 956 1493 l 1,0,-1
EndSplineSet
EndChar
StartChar: underscore
Encoding: 95 95 95
Width: 1024
Flags: W
LayerCount: 2
Fore
SplineSet
1024 -403 m 1,0,-1
 1024 -483 l 1,1,-1
 0 -483 l 1,2,-1
 0 -403 l 1,3,-1
 1024 -403 l 1,0,-1
EndSplineSet
EndChar
StartChar: grave
Encoding: 96 96 96
Width: 1024
Flags: W
LayerCount: 2
Fore
SplineSet
367 1636 m 1,0,-1
 627 1260 l 1,1,-1
 510 1260 l 1,2,-1
 170 1636 l 1,3,-1
 367 1636 l 1,0,-1
EndSplineSet
EndChar
StartChar: a
Encoding: 97 97 97
Width: 1221
Flags: W
AnchorPoint: "below" 569 0 basechar 0
AnchorPoint: "above" 569 1092 basechar 0
LayerCount: 2
Fore
SplineSet
815 334 m 2,0,-1
 815 559 l 1,1,-1
 578 559 l 2,2,3
 441 559 441 559 374 500 c 128,-1,4
 307 441 307 441 307 319 c 0,5,6
 307 208 307 208 375 143 c 128,-1,7
 443 78 443 78 559 78 c 0,8,9
 674 78 674 78 744.5 149 c 128,-1,10
 815 220 815 220 815 334 c 2,0,-1
999 664 m 2,11,-1
 999 106 l 1,12,-1
 1163 106 l 1,13,-1
 1163 0 l 1,14,-1
 815 0 l 1,15,-1
 815 115 l 1,16,17
 754 41 754 41 674 6 c 128,-1,18
 594 -29 594 -29 487 -29 c 0,19,20
 310 -29 310 -29 206 65 c 128,-1,21
 102 159 102 159 102 319 c 0,22,23
 102 484 102 484 221 575 c 128,-1,24
 340 666 340 666 557 666 c 2,25,-1
 815 666 l 1,26,-1
 815 739 l 2,27,28
 815 860 815 860 741.5 926.5 c 128,-1,29
 668 993 668 993 535 993 c 0,30,31
 425 993 425 993 360 943 c 128,-1,32
 295 893 295 893 279 795 c 1,33,-1
 184 795 l 1,34,-1
 184 1010 l 1,35,36
 280 1051 280 1051 370.5 1071.5 c 128,-1,37
 461 1092 461 1092 547 1092 c 0,38,39
 768 1092 768 1092 883.5 982.5 c 128,-1,40
 999 873 999 873 999 664 c 2,11,-1
EndSplineSet
EndChar
StartChar: b
Encoding: 98 98 98
Width: 1311
Flags: W
AnchorPoint: "above" 328 1536 basechar 0
AnchorPoint: "below" 729 0 basechar 0
LayerCount: 2
Fore
SplineSet
236 106 m 1,0,-1
 236 1450 l 1,1,-1
 59 1450 l 1,2,-1
 59 1556 l 1,3,-1
 420 1556 l 1,4,-1
 420 897 l 1,5,6
 474 997 474 997 557.5 1044.5 c 128,-1,7
 641 1092 641 1092 764 1092 c 0,8,9
 960 1092 960 1092 1084 937 c 128,-1,10
 1208 782 1208 782 1208 532 c 0,11,12
 1208 282 1208 282 1084 126.5 c 128,-1,13
 960 -29 960 -29 764 -29 c 0,14,15
 641 -29 641 -29 557.5 18.5 c 128,-1,16
 474 66 474 66 420 166 c 1,17,-1
 420 0 l 1,18,-1
 59 0 l 1,19,-1
 59 106 l 1,20,-1
 236 106 l 1,0,-1
420 479 m 2,21,22
 420 287 420 287 493.5 186.5 c 128,-1,23
 567 86 567 86 707 86 c 0,24,25
 848 86 848 86 920.5 199 c 128,-1,26
 993 312 993 312 993 532 c 0,27,28
 993 753 993 753 920.5 865 c 128,-1,29
 848 977 848 977 707 977 c 0,30,31
 567 977 567 977 493.5 876 c 128,-1,32
 420 775 420 775 420 584 c 2,33,-1
 420 479 l 2,21,22
EndSplineSet
EndChar
StartChar: c
Encoding: 99 99 99
Width: 1147
Flags: W
AnchorPoint: "below" 616 10 basechar 0
AnchorPoint: "above" 616 1092 basechar 0
LayerCount: 2
Fore
SplineSet
1053 319 m 1,0,1
 1014 149 1014 149 903 60 c 128,-1,2
 792 -29 792 -29 616 -29 c 0,3,4
 384 -29 384 -29 243 124.5 c 128,-1,5
 102 278 102 278 102 532 c 0,6,7
 102 787 102 787 243 939.5 c 128,-1,8
 384 1092 384 1092 616 1092 c 0,9,10
 717 1092 717 1092 817 1068.5 c 128,-1,11
 917 1045 917 1045 1018 997 c 1,12,-1
 1018 725 l 1,13,-1
 911 725 l 1,14,15
 890 865 890 865 819.5 929 c 128,-1,16
 749 993 749 993 618 993 c 0,17,18
 469 993 469 993 393 877.5 c 128,-1,19
 317 762 317 762 317 532 c 0,20,21
 317 302 317 302 392.5 186 c 128,-1,22
 468 70 468 70 618 70 c 0,23,24
 737 70 737 70 808 132 c 128,-1,25
 879 194 879 194 905 319 c 1,26,-1
 1053 319 l 1,0,1
EndSplineSet
EndChar
StartChar: d
Encoding: 100 100 100
Width: 1311
Flags: W
AnchorPoint: "above" 983 1536 basechar 0
AnchorPoint: "below" 569 0 basechar 0
LayerCount: 2
Fore
SplineSet
1075 106 m 1,0,-1
 1251 106 l 1,1,-1
 1251 0 l 1,2,-1
 891 0 l 1,3,-1
 891 166 l 1,4,5
 837 66 837 66 753.5 18.5 c 128,-1,6
 670 -29 670 -29 547 -29 c 0,7,8
 351 -29 351 -29 226.5 126.5 c 128,-1,9
 102 282 102 282 102 532 c 0,10,11
 102 782 102 782 226 937 c 128,-1,12
 350 1092 350 1092 547 1092 c 0,13,14
 670 1092 670 1092 753.5 1044.5 c 128,-1,15
 837 997 837 997 891 897 c 1,16,-1
 891 1450 l 1,17,-1
 717 1450 l 1,18,-1
 717 1556 l 1,19,-1
 1075 1556 l 1,20,-1
 1075 106 l 1,0,-1
891 479 m 2,21,-1
 891 584 l 2,22,23
 891 775 891 775 817.5 876 c 128,-1,24
 744 977 744 977 604 977 c 0,25,26
 462 977 462 977 389.5 865 c 128,-1,27
 317 753 317 753 317 532 c 0,28,29
 317 312 317 312 389.5 199 c 128,-1,30
 462 86 462 86 604 86 c 0,31,32
 744 86 744 86 817.5 186.5 c 128,-1,33
 891 287 891 287 891 479 c 2,21,-1
EndSplineSet
EndChar
StartChar: e
Encoding: 101 101 101
Width: 1212
Flags: W
AnchorPoint: "below" 606 0 basechar 0
AnchorPoint: "above" 606 1092 basechar 0
LayerCount: 2
Fore
SplineSet
1110 512 m 1,0,-1
 317 512 l 1,1,-1
 317 504 l 2,2,3
 317 289 317 289 398 179.5 c 128,-1,4
 479 70 479 70 637 70 c 0,5,6
 758 70 758 70 835.5 133.5 c 128,-1,7
 913 197 913 197 944 322 c 1,8,-1
 1092 322 l 1,9,10
 1048 147 1048 147 929.5 59 c 128,-1,11
 811 -29 811 -29 618 -29 c 0,12,13
 385 -29 385 -29 243.5 124.5 c 128,-1,14
 102 278 102 278 102 532 c 0,15,16
 102 784 102 784 241 938 c 128,-1,17
 380 1092 380 1092 606 1092 c 0,18,19
 847 1092 847 1092 976 943.5 c 128,-1,20
 1105 795 1105 795 1110 512 c 1,0,-1
893 618 m 1,21,22
 887 804 887 804 814.5 898.5 c 128,-1,23
 742 993 742 993 606 993 c 0,24,25
 479 993 479 993 406 898 c 128,-1,26
 333 803 333 803 317 618 c 1,27,-1
 893 618 l 1,21,22
EndSplineSet
EndChar
StartChar: f
Encoding: 102 102 102
Width: 758
Flags: W
AnchorPoint: "below" 342 0 basechar 0
AnchorPoint: "above" 565 1536 basechar 0
LayerCount: 2
Fore
SplineSet
881 1305 m 1,0,-1
 784 1305 l 1,1,2
 783 1380 783 1380 741.5 1419 c 128,-1,3
 700 1458 700 1458 621 1458 c 0,4,5
 518 1458 518 1458 476 1401.5 c 128,-1,6
 434 1345 434 1345 434 1200 c 2,7,-1
 434 1063 l 1,8,-1
 731 1063 l 1,9,-1
 731 956 l 1,10,-1
 434 956 l 1,11,-1
 434 106 l 1,12,-1
 670 106 l 1,13,-1
 670 0 l 1,14,-1
 74 0 l 1,15,-1
 74 106 l 1,16,-1
 250 106 l 1,17,-1
 250 956 l 1,18,-1
 74 956 l 1,19,-1
 74 1063 l 1,20,-1
 250 1063 l 1,21,-1
 250 1196 l 2,22,23
 250 1374 250 1374 342.5 1465 c 128,-1,24
 435 1556 435 1556 614 1556 c 0,25,26
 681 1556 681 1556 748 1544 c 128,-1,27
 815 1532 815 1532 881 1507 c 1,28,-1
 881 1305 l 1,0,-1
EndSplineSet
EndChar
StartChar: g
Encoding: 103 103 103
Width: 1311
Flags: W
AnchorPoint: "below" 604 -430 basechar 0
AnchorPoint: "above" 604 1092 basechar 0
LayerCount: 2
Fore
SplineSet
1075 956 m 1,0,-1
 1075 23 l 2,1,2
 1075 -206 1075 -206 949 -330.5 c 128,-1,3
 823 -455 823 -455 590 -455 c 0,4,5
 485 -455 485 -455 389 -436 c 128,-1,6
 293 -417 293 -417 205 -379 c 1,7,-1
 205 -156 l 1,8,-1
 301 -156 l 1,9,10
 319 -260 319 -260 386 -308 c 128,-1,11
 453 -356 453 -356 578 -356 c 0,12,13
 740 -356 740 -356 815.5 -264.5 c 128,-1,14
 891 -173 891 -173 891 23 c 2,15,-1
 891 166 l 1,16,17
 837 66 837 66 753.5 18.5 c 128,-1,18
 670 -29 670 -29 547 -29 c 0,19,20
 351 -29 351 -29 226.5 126.5 c 128,-1,21
 102 282 102 282 102 532 c 0,22,23
 102 782 102 782 226 937 c 128,-1,24
 350 1092 350 1092 547 1092 c 0,25,26
 670 1092 670 1092 753.5 1044.5 c 128,-1,27
 837 997 837 997 891 897 c 1,28,-1
 891 1063 l 1,29,-1
 1251 1063 l 1,30,-1
 1251 956 l 1,31,-1
 1075 956 l 1,0,-1
891 584 m 2,32,33
 891 775 891 775 817.5 876 c 128,-1,34
 744 977 744 977 604 977 c 0,35,36
 462 977 462 977 389.5 865 c 128,-1,37
 317 753 317 753 317 532 c 0,38,39
 317 312 317 312 389.5 199 c 128,-1,40
 462 86 462 86 604 86 c 0,41,42
 744 86 744 86 817.5 186.5 c 128,-1,43
 891 287 891 287 891 479 c 2,44,-1
 891 584 l 2,32,33
EndSplineSet
AlternateSubs2: "'aalt' Access All Alternates" g.alt
AlternateSubs2: "'salt' Stylistic Alternatives" g.alt
EndChar
StartChar: h
Encoding: 104 104 104
Width: 1319
Flags: W
AnchorPoint: "below" 673 0 basechar 0
AnchorPoint: "above" 328 1537 basechar 0
LayerCount: 2
Fore
SplineSet
84 0 m 1,0,-1
 84 106 l 1,1,-1
 250 106 l 1,2,-1
 250 1450 l 1,3,-1
 74 1450 l 1,4,-1
 74 1556 l 1,5,-1
 434 1556 l 1,6,-1
 434 874 l 1,7,8
 485 982 485 982 566.5 1037 c 128,-1,9
 648 1092 648 1092 756 1092 c 0,10,11
 932 1092 932 1092 1015 991 c 128,-1,12
 1098 890 1098 890 1098 676 c 2,13,-1
 1098 106 l 1,14,-1
 1262 106 l 1,15,-1
 1262 0 l 1,16,-1
 754 0 l 1,17,-1
 754 106 l 1,18,-1
 913 106 l 1,19,-1
 913 618 l 2,20,21
 913 813 913 813 865.5 884.5 c 128,-1,22
 818 956 818 956 696 956 c 0,23,24
 568 956 568 956 501 863 c 128,-1,25
 434 770 434 770 434 592 c 2,26,-1
 434 106 l 1,27,-1
 594 106 l 1,28,-1
 594 0 l 1,29,-1
 84 0 l 1,0,-1
EndSplineSet
EndChar
StartChar: i
Encoding: 105 105 105
Width: 655
Flags: W
AnchorPoint: "below" 328 0 basechar 0
AnchorPoint: "above" 328 1536 basechar 0
LayerCount: 2
Fore
SplineSet
199 1393 m 0,0,1
 199 1439 199 1439 232.5 1473 c 128,-1,2
 266 1507 266 1507 313 1507 c 0,3,4
 359 1507 359 1507 392.5 1473 c 128,-1,5
 426 1439 426 1439 426 1393 c 0,6,7
 426 1346 426 1346 393 1313 c 128,-1,8
 360 1280 360 1280 313 1280 c 0,9,10
 266 1280 266 1280 232.5 1313 c 128,-1,11
 199 1346 199 1346 199 1393 c 0,0,1
434 106 m 1,12,-1
 608 106 l 1,13,-1
 608 0 l 1,14,-1
 74 0 l 1,15,-1
 74 106 l 1,16,-1
 250 106 l 1,17,-1
 250 956 l 1,18,-1
 74 956 l 1,19,-1
 74 1063 l 1,20,-1
 434 1063 l 1,21,-1
 434 106 l 1,12,-1
EndSplineSet
Substitution2: "Single Substitution - Dotless Form" dotlessi
EndChar
StartChar: j
Encoding: 106 106 106
Width: 635
Flags: W
AnchorPoint: "below" 118 -430 basechar 0
AnchorPoint: "above" 328 1536 basechar 0
LayerCount: 2
Fore
SplineSet
205 1393 m 0,0,1
 205 1439 205 1439 238.5 1473 c 128,-1,2
 272 1507 272 1507 319 1507 c 0,3,4
 365 1507 365 1507 398.5 1473 c 128,-1,5
 432 1439 432 1439 432 1393 c 0,6,7
 432 1346 432 1346 399.5 1313 c 128,-1,8
 367 1280 367 1280 319 1280 c 0,9,10
 272 1280 272 1280 238.5 1313 c 128,-1,11
 205 1346 205 1346 205 1393 c 0,0,1
250 956 m 1,12,-1
 76 956 l 1,13,-1
 76 1063 l 1,14,-1
 434 1063 l 1,15,-1
 434 -104 l 2,16,17
 434 -268 434 -268 336.5 -361.5 c 128,-1,18
 239 -455 239 -455 68 -455 c 0,19,20
 -4 -455 -4 -455 -69.5 -438.5 c 128,-1,21
 -135 -422 -135 -422 -197 -389 c 1,22,-1
 -197 -170 l 1,23,-1
 -102 -170 l 1,24,25
 -95 -266 -95 -266 -52.5 -311 c 128,-1,26
 -10 -356 -10 -356 72 -356 c 0,27,28
 163 -356 163 -356 206.5 -294.5 c 128,-1,29
 250 -233 250 -233 250 -104 c 2,30,-1
 250 956 l 1,12,-1
EndSplineSet
Substitution2: "Single Substitution - Dotless Form" dotlessj
EndChar
StartChar: k
Encoding: 107 107 107
Width: 1241
Flags: W
AnchorPoint: "below" 658 0 basechar 0
AnchorPoint: "above" 328 1536 basechar 0
LayerCount: 2
Fore
SplineSet
586 0 m 1,0,-1
 70 0 l 1,1,-1
 70 106 l 1,2,-1
 236 106 l 1,3,-1
 236 1450 l 1,4,-1
 59 1450 l 1,5,-1
 59 1556 l 1,6,-1
 420 1556 l 1,7,-1
 420 543 l 1,8,-1
 868 956 l 1,9,-1
 715 956 l 1,10,-1
 715 1063 l 1,11,-1
 1196 1063 l 1,12,-1
 1196 956 l 1,13,-1
 1014 956 l 1,14,-1
 698 664 l 1,15,-1
 1102 106 l 1,16,-1
 1255 106 l 1,17,-1
 1255 0 l 1,18,-1
 731 0 l 1,19,-1
 731 106 l 1,20,-1
 883 106 l 1,21,-1
 565 543 l 1,22,-1
 420 408 l 1,23,-1
 420 106 l 1,24,-1
 586 106 l 1,25,-1
 586 0 l 1,0,-1
EndSplineSet
EndChar
StartChar: l
Encoding: 108 108 108
Width: 655
Flags: W
AnchorPoint: "below" 328 0 basechar 0
AnchorPoint: "above" 328 1536 basechar 0
LayerCount: 2
Fore
SplineSet
420 106 m 1,0,-1
 594 106 l 1,1,-1
 594 0 l 1,2,-1
 59 0 l 1,3,-1
 59 106 l 1,4,-1
 236 106 l 1,5,-1
 236 1450 l 1,6,-1
 59 1450 l 1,7,-1
 59 1556 l 1,8,-1
 420 1556 l 1,9,-1
 420 106 l 1,0,-1
EndSplineSet
EndChar
StartChar: m
Encoding: 109 109 109
Width: 1942
Flags: W
AnchorPoint: "above" 985 1092 basechar 0
AnchorPoint: "below" 985 0 basechar 0
LayerCount: 2
Fore
SplineSet
1061 856 m 1,0,1
 1114 973 1114 973 1196.5 1032.5 c 128,-1,2
 1279 1092 1279 1092 1389 1092 c 0,3,4
 1556 1092 1556 1092 1638 988.5 c 128,-1,5
 1720 885 1720 885 1720 676 c 2,6,-1
 1720 106 l 1,7,-1
 1886 106 l 1,8,-1
 1886 0 l 1,9,-1
 1376 0 l 1,10,-1
 1376 106 l 1,11,-1
 1536 106 l 1,12,-1
 1536 655 l 2,13,14
 1536 818 1536 818 1488 887 c 128,-1,15
 1440 956 1440 956 1329 956 c 0,16,17
 1206 956 1206 956 1141.5 863 c 128,-1,18
 1077 770 1077 770 1077 592 c 2,19,-1
 1077 106 l 1,20,-1
 1237 106 l 1,21,-1
 1237 0 l 1,22,-1
 733 0 l 1,23,-1
 733 106 l 1,24,-1
 893 106 l 1,25,-1
 893 662 l 2,26,27
 893 821 893 821 845 888.5 c 128,-1,28
 797 956 797 956 686 956 c 0,29,30
 563 956 563 956 498.5 863 c 128,-1,31
 434 770 434 770 434 592 c 2,32,-1
 434 106 l 1,33,-1
 594 106 l 1,34,-1
 594 0 l 1,35,-1
 84 0 l 1,36,-1
 84 106 l 1,37,-1
 250 106 l 1,38,-1
 250 958 l 1,39,-1
 74 958 l 1,40,-1
 74 1063 l 1,41,-1
 434 1063 l 1,42,-1
 434 874 l 1,43,44
 485 980 485 980 564 1036 c 128,-1,45
 643 1092 643 1092 743 1092 c 0,46,47
 867 1092 867 1092 950 1030.5 c 128,-1,48
 1033 969 1033 969 1061 856 c 1,0,1
EndSplineSet
EndChar
StartChar: n
Encoding: 110 110 110
Width: 1319
Flags: W
AnchorPoint: "below" 673 0 basechar 0
AnchorPoint: "above" 594 1092 basechar 0
LayerCount: 2
Fore
SplineSet
84 0 m 1,0,-1
 84 106 l 1,1,-1
 250 106 l 1,2,-1
 250 956 l 1,3,-1
 74 956 l 1,4,-1
 74 1063 l 1,5,-1
 434 1063 l 1,6,-1
 434 874 l 1,7,8
 485 982 485 982 566.5 1037 c 128,-1,9
 648 1092 648 1092 756 1092 c 0,10,11
 932 1092 932 1092 1015 991 c 128,-1,12
 1098 890 1098 890 1098 676 c 2,13,-1
 1098 106 l 1,14,-1
 1262 106 l 1,15,-1
 1262 0 l 1,16,-1
 754 0 l 1,17,-1
 754 106 l 1,18,-1
 913 106 l 1,19,-1
 913 618 l 2,20,21
 913 813 913 813 865 885.5 c 128,-1,22
 817 958 817 958 696 958 c 0,23,24
 568 958 568 958 501 864.5 c 128,-1,25
 434 771 434 771 434 592 c 2,26,-1
 434 106 l 1,27,-1
 594 106 l 1,28,-1
 594 0 l 1,29,-1
 84 0 l 1,0,-1
EndSplineSet
EndChar
StartChar: o
Encoding: 111 111 111
Width: 1233
Flags: W
AnchorPoint: "below" 616 0 basechar 0
AnchorPoint: "above" 616 1092 basechar 0
LayerCount: 2
Fore
SplineSet
616 70 m 0,0,1
 764 70 764 70 839.5 187 c 128,-1,2
 915 304 915 304 915 532 c 0,3,4
 915 760 915 760 839.5 876.5 c 128,-1,5
 764 993 764 993 616 993 c 0,6,7
 468 993 468 993 392.5 876.5 c 128,-1,8
 317 760 317 760 317 532 c 0,9,10
 317 304 317 304 393 187 c 128,-1,11
 469 70 469 70 616 70 c 0,0,1
616 -29 m 0,12,13
 384 -29 384 -29 243 124.5 c 128,-1,14
 102 278 102 278 102 532 c 0,15,16
 102 786 102 786 242.5 939 c 128,-1,17
 383 1092 383 1092 616 1092 c 0,18,19
 849 1092 849 1092 989.5 939 c 128,-1,20
 1130 786 1130 786 1130 532 c 0,21,22
 1130 278 1130 278 989.5 124.5 c 128,-1,23
 849 -29 849 -29 616 -29 c 0,12,13
EndSplineSet
EndChar
StartChar: p
Encoding: 112 112 112
Width: 1311
Flags: W
AnchorPoint: "below" 328 -430 basechar 0
AnchorPoint: "above" 709 1092 basechar 0
LayerCount: 2
Fore
SplineSet
420 584 m 2,0,-1
 420 479 l 2,1,2
 420 287 420 287 493.5 186.5 c 128,-1,3
 567 86 567 86 707 86 c 0,4,5
 848 86 848 86 920.5 199 c 128,-1,6
 993 312 993 312 993 532 c 0,7,8
 993 753 993 753 920.5 865 c 128,-1,9
 848 977 848 977 707 977 c 0,10,11
 567 977 567 977 493.5 876 c 128,-1,12
 420 775 420 775 420 584 c 2,0,-1
236 956 m 1,13,-1
 59 956 l 1,14,-1
 59 1063 l 1,15,-1
 420 1063 l 1,16,-1
 420 897 l 1,17,18
 474 997 474 997 557.5 1044.5 c 128,-1,19
 641 1092 641 1092 764 1092 c 0,20,21
 960 1092 960 1092 1084 937 c 128,-1,22
 1208 782 1208 782 1208 532 c 0,23,24
 1208 282 1208 282 1084 126.5 c 128,-1,25
 960 -29 960 -29 764 -29 c 0,26,27
 641 -29 641 -29 557.5 18.5 c 128,-1,28
 474 66 474 66 420 166 c 1,29,-1
 420 -319 l 1,30,-1
 594 -319 l 1,31,-1
 594 -426 l 1,32,-1
 59 -426 l 1,33,-1
 59 -319 l 1,34,-1
 236 -319 l 1,35,-1
 236 956 l 1,13,-1
EndSplineSet
EndChar
StartChar: q
Encoding: 113 113 113
Width: 1311
Flags: W
AnchorPoint: "above" 569 1092 basechar 0
AnchorPoint: "below" 983 -430 basechar 0
LayerCount: 2
Fore
SplineSet
1075 956 m 1,0,-1
 1075 -319 l 1,1,-1
 1251 -319 l 1,2,-1
 1251 -426 l 1,3,-1
 717 -426 l 1,4,-1
 717 -319 l 1,5,-1
 891 -319 l 1,6,-1
 891 166 l 1,7,8
 837 66 837 66 753.5 18.5 c 128,-1,9
 670 -29 670 -29 547 -29 c 0,10,11
 351 -29 351 -29 226.5 126.5 c 128,-1,12
 102 282 102 282 102 532 c 0,13,14
 102 782 102 782 226 937 c 128,-1,15
 350 1092 350 1092 547 1092 c 0,16,17
 670 1092 670 1092 753.5 1044.5 c 128,-1,18
 837 997 837 997 891 897 c 1,19,-1
 891 1063 l 1,20,-1
 1251 1063 l 1,21,-1
 1251 956 l 1,22,-1
 1075 956 l 1,0,-1
891 584 m 2,23,24
 891 775 891 775 817.5 876 c 128,-1,25
 744 977 744 977 604 977 c 0,26,27
 462 977 462 977 389.5 865 c 128,-1,28
 317 753 317 753 317 532 c 0,29,30
 317 312 317 312 389.5 199 c 128,-1,31
 462 86 462 86 604 86 c 0,32,33
 744 86 744 86 817.5 186.5 c 128,-1,34
 891 287 891 287 891 479 c 2,35,-1
 891 584 l 2,23,24
EndSplineSet
EndChar
StartChar: r
Encoding: 114 114 114
Width: 979
Flags: W
AnchorPoint: "below" 328 0 basechar 0
AnchorPoint: "above" 552 1092 basechar 0
LayerCount: 2
Fore
SplineSet
979 1065 m 1,0,-1
 979 799 l 1,1,-1
 873 799 l 1,2,3
 868 878 868 878 829 917 c 128,-1,4
 790 956 790 956 715 956 c 0,5,6
 579 956 579 956 506.5 862 c 128,-1,7
 434 768 434 768 434 592 c 2,8,-1
 434 106 l 1,9,-1
 647 106 l 1,10,-1
 647 0 l 1,11,-1
 84 0 l 1,12,-1
 84 106 l 1,13,-1
 250 106 l 1,14,-1
 250 958 l 1,15,-1
 74 958 l 1,16,-1
 74 1063 l 1,17,-1
 434 1063 l 1,18,-1
 434 874 l 1,19,20
 488 985 488 985 573 1038.5 c 128,-1,21
 658 1092 658 1092 780 1092 c 0,22,23
 825 1092 825 1092 874.5 1085 c 128,-1,24
 924 1078 924 1078 979 1065 c 1,0,-1
EndSplineSet
EndChar
StartChar: s
Encoding: 115 115 115
Width: 1051
Flags: W
AnchorPoint: "below" 526 0 basechar 0
AnchorPoint: "above" 526 1092 basechar 0
LayerCount: 2
Fore
SplineSet
115 59 m 1,0,-1
 115 307 l 1,1,-1
 221 307 l 1,2,3
 225 188 225 188 295.5 129 c 128,-1,4
 366 70 366 70 504 70 c 0,5,6
 628 70 628 70 693 116.5 c 128,-1,7
 758 163 758 163 758 252 c 0,8,9
 758 322 758 322 710.5 365 c 128,-1,10
 663 408 663 408 510 457 c 1,11,-1
 377 502 l 1,12,13
 240 546 240 546 178.5 612 c 128,-1,14
 117 678 117 678 117 780 c 0,15,16
 117 926 117 926 224 1009 c 128,-1,17
 331 1092 331 1092 520 1092 c 0,18,19
 604 1092 604 1092 697 1070 c 128,-1,20
 790 1048 790 1048 889 1006 c 1,21,-1
 889 774 l 1,22,-1
 783 774 l 1,23,24
 779 877 779 877 711 935 c 128,-1,25
 643 993 643 993 526 993 c 0,26,27
 410 993 410 993 350.5 952 c 128,-1,28
 291 911 291 911 291 829 c 0,29,30
 291 762 291 762 336 721.5 c 128,-1,31
 381 681 381 681 516 639 c 2,32,-1
 662 594 l 2,33,34
 813 547 813 547 879.5 476.5 c 128,-1,35
 946 406 946 406 946 295 c 0,36,37
 946 144 946 144 830.5 57.5 c 128,-1,38
 715 -29 715 -29 512 -29 c 0,39,40
 409 -29 409 -29 311 -7 c 128,-1,41
 213 15 213 15 115 59 c 1,0,-1
EndSplineSet
EndChar
StartChar: t
Encoding: 116 116 116
Width: 823
Flags: W
AnchorPoint: "above" 313 1536 basechar 0
AnchorPoint: "below" 514 0 basechar 0
LayerCount: 2
Fore
SplineSet
221 956 m 1,0,-1
 59 956 l 1,1,-1
 59 1063 l 1,2,-1
 221 1063 l 1,3,-1
 221 1393 l 1,4,-1
 406 1393 l 1,5,-1
 406 1063 l 1,6,-1
 752 1063 l 1,7,-1
 752 956 l 1,8,-1
 406 956 l 1,9,-1
 406 281 l 2,10,11
 406 146 406 146 432 108 c 128,-1,12
 458 70 458 70 528 70 c 0,13,14
 600 70 600 70 633 112.5 c 128,-1,15
 666 155 666 155 668 250 c 1,16,-1
 807 250 l 1,17,18
 799 105 799 105 728 38 c 128,-1,19
 657 -29 657 -29 512 -29 c 0,20,21
 353 -29 353 -29 287 41.5 c 128,-1,22
 221 112 221 112 221 281 c 2,23,-1
 221 956 l 1,0,-1
EndSplineSet
EndChar
StartChar: u
Encoding: 117 117 117
Width: 1319
Flags: W
AnchorPoint: "below" 594 0 basechar 0
AnchorPoint: "above" 584 1092 basechar 0
LayerCount: 2
Fore
SplineSet
725 1063 m 1,0,-1
 1069 1063 l 1,1,-1
 1069 106 l 1,2,-1
 1243 106 l 1,3,-1
 1243 0 l 1,4,-1
 885 0 l 1,5,-1
 885 188 l 1,6,7
 834 82 834 82 753 26.5 c 128,-1,8
 672 -29 672 -29 565 -29 c 0,9,10
 388 -29 388 -29 304.5 71.5 c 128,-1,11
 221 172 221 172 221 387 c 2,12,-1
 221 956 l 1,13,-1
 55 956 l 1,14,-1
 55 1063 l 1,15,-1
 406 1063 l 1,16,-1
 406 444 l 2,17,18
 406 250 406 250 453.5 178 c 128,-1,19
 501 106 501 106 623 106 c 0,20,21
 751 106 751 106 818 200 c 128,-1,22
 885 294 885 294 885 473 c 2,23,-1
 885 956 l 1,24,-1
 725 956 l 1,25,-1
 725 1063 l 1,0,-1
EndSplineSet
EndChar
StartChar: v
Encoding: 118 118 118
Width: 1157
Flags: W
AnchorPoint: "above" 578 1092 basechar 0
AnchorPoint: "below" 578 0 basechar 0
LayerCount: 2
Fore
SplineSet
506 0 m 1,0,-1
 115 956 l 1,1,-1
 -6 956 l 1,2,-1
 -6 1063 l 1,3,-1
 483 1063 l 1,4,-1
 483 956 l 1,5,-1
 313 956 l 1,6,-1
 612 225 l 1,7,-1
 911 956 l 1,8,-1
 752 956 l 1,9,-1
 752 1063 l 1,10,-1
 1151 1063 l 1,11,-1
 1151 956 l 1,12,-1
 1032 956 l 1,13,-1
 641 0 l 1,14,-1
 506 0 l 1,0,-1
EndSplineSet
EndChar
StartChar: w
Encoding: 119 119 119
Width: 1753
Flags: W
AnchorPoint: "below" 879 0 basechar 0
AnchorPoint: "above" 879 1092 basechar 0
LayerCount: 2
Fore
SplineSet
983 1063 m 1,0,-1
 1255 233 l 1,1,-1
 1495 956 l 1,2,-1
 1341 956 l 1,3,-1
 1341 1063 l 1,4,-1
 1726 1063 l 1,5,-1
 1726 956 l 1,6,-1
 1608 956 l 1,7,-1
 1292 0 l 1,8,-1
 1139 0 l 1,9,-1
 877 795 l 1,10,-1
 614 0 l 1,11,-1
 467 0 l 1,12,-1
 152 956 l 1,13,-1
 33 956 l 1,14,-1
 33 1063 l 1,15,-1
 514 1063 l 1,16,-1
 514 956 l 1,17,-1
 342 956 l 1,18,-1
 580 233 l 1,19,-1
 854 1063 l 1,20,-1
 983 1063 l 1,0,-1
EndSplineSet
EndChar
StartChar: x
Encoding: 120 120 120
Width: 1155
Flags: W
AnchorPoint: "below" 578 0 basechar 0
AnchorPoint: "above" 578 1092 basechar 0
LayerCount: 2
Fore
SplineSet
596 649 m 1,0,-1
 819 956 l 1,1,-1
 676 956 l 1,2,-1
 676 1063 l 1,3,-1
 1085 1063 l 1,4,-1
 1085 956 l 1,5,-1
 944 956 l 1,6,-1
 659 563 l 1,7,-1
 991 106 l 1,8,-1
 1130 106 l 1,9,-1
 1130 0 l 1,10,-1
 639 0 l 1,11,-1
 639 106 l 1,12,-1
 774 106 l 1,13,-1
 543 424 l 1,14,-1
 311 106 l 1,15,-1
 449 106 l 1,16,-1
 449 0 l 1,17,-1
 45 0 l 1,18,-1
 45 106 l 1,19,-1
 186 106 l 1,20,-1
 479 510 l 1,21,-1
 156 956 l 1,22,-1
 25 956 l 1,23,-1
 25 1063 l 1,24,-1
 500 1063 l 1,25,-1
 500 956 l 1,26,-1
 373 956 l 1,27,-1
 596 649 l 1,0,-1
EndSplineSet
EndChar
StartChar: y
Encoding: 121 121 121
Width: 1157
Flags: W
AnchorPoint: "below" 572 -430 basechar 0
AnchorPoint: "above" 572 1092 basechar 0
LayerCount: 2
Fore
SplineSet
442 -195 m 1,0,-1
 512 -18 l 1,1,-1
 115 956 l 1,2,-1
 -6 956 l 1,3,-1
 -6 1063 l 1,4,-1
 483 1063 l 1,5,-1
 483 956 l 1,6,-1
 313 956 l 1,7,-1
 612 225 l 1,8,-1
 911 956 l 1,9,-1
 752 956 l 1,10,-1
 752 1063 l 1,11,-1
 1151 1063 l 1,12,-1
 1151 956 l 1,13,-1
 1032 956 l 1,14,-1
 545 -240 l 1,15,16
 495 -364 495 -364 434 -409.5 c 128,-1,17
 373 -455 373 -455 262 -455 c 0,18,19
 215 -455 215 -455 165.5 -447 c 128,-1,20
 116 -439 116 -439 66 -424 c 1,21,-1
 66 -221 l 1,22,-1
 160 -221 l 1,23,24
 166 -289 166 -289 194.5 -318.5 c 128,-1,25
 223 -348 223 -348 283 -348 c 0,26,27
 338 -348 338 -348 371.5 -317.5 c 128,-1,28
 405 -287 405 -287 442 -195 c 1,0,-1
EndSplineSet
EndChar
StartChar: z
Encoding: 122 122 122
Width: 1079
Flags: W
AnchorPoint: "below" 529 0 basechar 0
AnchorPoint: "above" 529 1092 basechar 0
LayerCount: 2
Fore
SplineSet
82 0 m 1,0,-1
 82 86 l 1,1,-1
 748 956 l 1,2,-1
 221 956 l 1,3,-1
 221 772 l 1,4,-1
 115 772 l 1,5,-1
 115 1063 l 1,6,-1
 985 1063 l 1,7,-1
 985 977 l 1,8,-1
 319 106 l 1,9,-1
 897 106 l 1,10,-1
 897 299 l 1,11,-1
 1004 299 l 1,12,-1
 1004 0 l 1,13,-1
 82 0 l 1,0,-1
EndSplineSet
EndChar
StartChar: braceleft
Encoding: 123 123 123
Width: 1303
Flags: W
LayerCount: 2
Fore
SplineSet
1047 -229 m 1,0,-1
 1047 -334 l 1,1,-1
 985 -334 l 2,2,3
 736 -334 736 -334 651.5 -260 c 128,-1,4
 567 -186 567 -186 567 35 c 2,5,-1
 567 293 l 2,6,7
 567 443 567 443 513 501 c 128,-1,8
 459 559 459 559 317 559 c 2,9,-1
 256 559 l 1,10,-1
 256 664 l 1,11,-1
 317 664 l 2,12,13
 459 664 459 664 513 722 c 128,-1,14
 567 780 567 780 567 930 c 2,15,-1
 567 1188 l 2,16,17
 567 1409 567 1409 651.5 1482.5 c 128,-1,18
 736 1556 736 1556 985 1556 c 2,19,-1
 1047 1556 l 1,20,-1
 1047 1452 l 1,21,-1
 979 1452 l 2,22,23
 838 1452 838 1452 795 1408 c 128,-1,24
 752 1364 752 1364 752 1223 c 2,25,-1
 752 936 l 2,26,27
 752 778 752 778 702 710 c 128,-1,28
 652 642 652 642 522 612 c 1,29,30
 654 578 654 578 703 511 c 128,-1,31
 752 444 752 444 752 287 c 2,32,-1
 752 0 l 2,33,34
 752 -141 752 -141 795 -185 c 128,-1,35
 838 -229 838 -229 979 -229 c 2,36,-1
 1047 -229 l 1,0,-1
EndSplineSet
EndChar
StartChar: bar
Encoding: 124 124 124
Width: 690
Flags: W
LayerCount: 2
Fore
SplineSet
426 1565 m 1,0,-1
 426 -483 l 1,1,-1
 264 -483 l 1,2,-1
 264 1565 l 1,3,-1
 426 1565 l 1,0,-1
EndSplineSet
EndChar
StartChar: braceright
Encoding: 125 125 125
Width: 1303
Flags: W
LayerCount: 2
Fore
SplineSet
256 -229 m 1,0,-1
 326 -229 l 2,1,2
 466 -229 466 -229 508.5 -185.5 c 128,-1,3
 551 -142 551 -142 551 0 c 2,4,-1
 551 287 l 2,5,6
 551 444 551 444 600 511 c 128,-1,7
 649 578 649 578 780 612 c 1,8,9
 650 642 650 642 600.5 710 c 128,-1,10
 551 778 551 778 551 936 c 2,11,-1
 551 1223 l 2,12,13
 551 1365 551 1365 508.5 1408.5 c 128,-1,14
 466 1452 466 1452 326 1452 c 2,15,-1
 256 1452 l 1,16,-1
 256 1556 l 1,17,-1
 319 1556 l 2,18,19
 568 1556 568 1556 651.5 1482.5 c 128,-1,20
 735 1409 735 1409 735 1188 c 2,21,-1
 735 930 l 2,22,23
 735 780 735 780 789 722 c 128,-1,24
 843 664 843 664 985 664 c 2,25,-1
 1047 664 l 1,26,-1
 1047 559 l 1,27,-1
 985 559 l 2,28,29
 843 559 843 559 789 501 c 128,-1,30
 735 443 735 443 735 293 c 2,31,-1
 735 35 l 2,32,33
 735 -186 735 -186 651.5 -260 c 128,-1,34
 568 -334 568 -334 319 -334 c 2,35,-1
 256 -334 l 1,36,-1
 256 -229 l 1,0,-1
EndSplineSet
EndChar
StartChar: asciitilde
Encoding: 126 126 126
Width: 1716
Flags: W
LayerCount: 2
Fore
SplineSet
1499 807 m 1,0,-1
 1499 659 l 1,1,2
 1399 571 1399 571 1309 529 c 128,-1,3
 1219 487 1219 487 1126 487 c 0,4,5
 1030 487 1030 487 856 553 c 2,6,-1
 846 557 l 2,7,8
 835 561 835 561 813 570 c 0,9,10
 666 627 666 627 571 627 c 0,11,12
 479 627 479 627 392.5 590.5 c 128,-1,13
 306 554 306 554 217 477 c 1,14,-1
 217 629 l 1,15,16
 317 716 317 716 406.5 756.5 c 128,-1,17
 496 797 496 797 590 797 c 0,18,19
 686 797 686 797 860 731 c 2,20,-1
 870 727 l 2,21,22
 881 723 881 723 901 715 c 0,23,24
 1046 657 1046 657 1143 657 c 0,25,26
 1235 657 1235 657 1323 694 c 128,-1,27
 1411 731 1411 731 1499 807 c 1,0,-1
EndSplineSet
EndChar
StartChar: exclamdown
Encoding: 161 161 161
Width: 823
Flags: W
LayerCount: 2
Fore
SplineSet
279 1389 m 0,0,1
 279 1445 279 1445 317 1483.5 c 128,-1,2
 355 1522 355 1522 412 1522 c 0,3,4
 467 1522 467 1522 506 1483 c 128,-1,5
 545 1444 545 1444 545 1389 c 0,6,7
 545 1333 545 1333 506 1294 c 128,-1,8
 467 1255 467 1255 412 1255 c 0,9,10
 355 1255 355 1255 317 1294 c 128,-1,11
 279 1333 279 1333 279 1389 c 0,0,1
283 0 m 1,12,-1
 350 821 l 1,13,-1
 350 1073 l 1,14,-1
 473 1073 l 1,15,-1
 473 821 l 1,16,-1
 541 0 l 1,17,-1
 283 0 l 1,12,-1
EndSplineSet
EndChar
StartChar: cent
Encoding: 162 162 162
Width: 1303
Flags: W
LayerCount: 2
Fore
SplineSet
629 991 m 1,0,1
 500 976 500 976 435.5 861 c 128,-1,2
 371 746 371 746 371 532 c 0,3,4
 371 317 371 317 435.5 202 c 128,-1,5
 500 87 500 87 629 72 c 1,6,-1
 629 991 l 1,0,1
1104 319 m 1,7,8
 1069 165 1069 165 975 78.5 c 128,-1,9
 881 -8 881 -8 729 -27 c 1,10,-1
 729 -297 l 1,11,-1
 629 -297 l 1,12,-1
 629 -27 l 1,13,14
 409 -8 409 -8 281.5 142 c 128,-1,15
 154 292 154 292 154 532 c 0,16,17
 154 774 154 774 281.5 923.5 c 128,-1,18
 409 1073 409 1073 629 1090 c 1,19,-1
 629 1356 l 1,20,-1
 729 1356 l 1,21,-1
 729 1090 l 1,22,23
 821 1082 821 1082 905 1059 c 128,-1,24
 989 1036 989 1036 1069 997 c 1,25,-1
 1069 725 l 1,26,-1
 963 725 l 1,27,28
 944 848 944 848 886.5 913.5 c 128,-1,29
 829 979 829 979 729 991 c 1,30,-1
 729 72 l 1,31,32
 819 84 819 84 877 147.5 c 128,-1,33
 935 211 935 211 956 319 c 1,34,-1
 1104 319 l 1,7,8
EndSplineSet
EndChar
StartChar: sterling
Encoding: 163 163 163
Width: 1303
Flags: W
LayerCount: 2
Fore
SplineSet
1102 1225 m 1,0,-1
 997 1225 l 1,1,2
 987 1320 987 1320 930.5 1370.5 c 128,-1,3
 874 1421 874 1421 778 1421 c 0,4,5
 651 1421 651 1421 590.5 1343.5 c 128,-1,6
 530 1266 530 1266 530 1102 c 2,7,-1
 530 807 l 1,8,-1
 942 807 l 1,9,-1
 942 700 l 1,10,-1
 530 700 l 1,11,-1
 530 121 l 1,12,-1
 1008 121 l 1,13,-1
 1008 348 l 1,14,-1
 1124 348 l 1,15,-1
 1124 0 l 1,16,-1
 137 0 l 1,17,-1
 137 106 l 1,18,-1
 330 106 l 1,19,-1
 330 700 l 1,20,-1
 137 700 l 1,21,-1
 137 807 l 1,22,-1
 330 807 l 1,23,-1
 330 1102 l 2,24,25
 330 1307 330 1307 444.5 1413.5 c 128,-1,26
 559 1520 559 1520 780 1520 c 0,27,28
 865 1520 865 1520 946 1507.5 c 128,-1,29
 1027 1495 1027 1495 1102 1470 c 1,30,-1
 1102 1225 l 1,0,-1
EndSplineSet
EndChar
StartChar: currency
Encoding: 164 164 164
Width: 1303
Flags: W
LayerCount: 2
Fore
SplineSet
901 985 m 1,0,-1
 1110 1192 l 1,1,-1
 1204 1098 l 1,2,-1
 995 889 l 1,3,4
 1038 829 1038 829 1058.5 768 c 128,-1,5
 1079 707 1079 707 1079 641 c 0,6,7
 1079 572 1079 572 1058.5 513 c 128,-1,8
 1038 454 1038 454 993 397 c 1,9,-1
 1200 190 l 1,10,-1
 1104 96 l 1,11,-1
 897 301 l 1,12,13
 841 257 841 257 781.5 236 c 128,-1,14
 722 215 722 215 653 215 c 0,15,16
 589 215 589 215 526.5 235.5 c 128,-1,17
 464 256 464 256 403 297 c 1,18,-1
 199 92 l 1,19,-1
 104 186 l 1,20,-1
 309 393 l 1,21,22
 268 455 268 455 247.5 516 c 128,-1,23
 227 577 227 577 227 641 c 0,24,25
 227 711 227 711 248 770.5 c 128,-1,26
 269 830 269 830 313 887 c 1,27,-1
 106 1094 l 1,28,-1
 201 1188 l 1,29,-1
 408 981 l 1,30,31
 464 1025 464 1025 524 1046 c 128,-1,32
 584 1067 584 1067 653 1067 c 0,33,34
 719 1067 719 1067 780 1047 c 128,-1,35
 841 1027 841 1027 901 985 c 1,0,-1
922 643 m 0,36,37
 922 755 922 755 844.5 832 c 128,-1,38
 767 909 767 909 653 909 c 0,39,40
 541 909 541 909 463 832 c 128,-1,41
 385 755 385 755 385 643 c 0,42,43
 385 529 385 529 462.5 451 c 128,-1,44
 540 373 540 373 653 373 c 0,45,46
 766 373 766 373 844 451.5 c 128,-1,47
 922 530 922 530 922 643 c 0,36,37
EndSplineSet
EndChar
StartChar: yen
Encoding: 165 165 165
Width: 1303
Flags: W
LayerCount: 2
Fore
SplineSet
360 0 m 1,0,-1
 360 106 l 1,1,-1
 551 106 l 1,2,-1
 551 473 l 1,3,-1
 147 473 l 1,4,-1
 147 578 l 1,5,-1
 551 578 l 1,6,-1
 551 643 l 1,7,-1
 469 784 l 1,8,-1
 147 784 l 1,9,-1
 147 889 l 1,10,-1
 410 889 l 1,11,-1
 123 1386 l 1,12,-1
 -16 1386 l 1,13,-1
 -16 1493 l 1,14,-1
 537 1493 l 1,15,-1
 537 1386 l 1,16,-1
 362 1386 l 1,17,-1
 705 782 l 1,18,-1
 1044 1386 l 1,19,-1
 877 1386 l 1,20,-1
 877 1493 l 1,21,-1
 1309 1493 l 1,22,-1
 1309 1386 l 1,23,-1
 1167 1386 l 1,24,-1
 883 889 l 1,25,-1
 1155 889 l 1,26,-1
 1155 784 l 1,27,-1
 823 784 l 1,28,-1
 752 662 l 1,29,-1
 752 578 l 1,30,-1
 1155 578 l 1,31,-1
 1155 473 l 1,32,-1
 752 473 l 1,33,-1
 752 106 l 1,34,-1
 942 106 l 1,35,-1
 942 0 l 1,36,-1
 360 0 l 1,0,-1
EndSplineSet
EndChar
StartChar: brokenbar
Encoding: 166 166 166
Width: 690
Flags: W
LayerCount: 2
Fore
SplineSet
426 408 m 1,0,-1
 426 -350 l 1,1,-1
 264 -350 l 1,2,-1
 264 408 l 1,3,-1
 426 408 l 1,0,-1
426 1432 m 1,4,-1
 426 674 l 1,5,-1
 264 674 l 1,6,-1
 264 1432 l 1,7,-1
 426 1432 l 1,4,-1
EndSplineSet
EndChar
StartChar: section
Encoding: 167 167 167
Width: 1024
Flags: W
LayerCount: 2
Fore
SplineSet
379 936 m 1,0,1
 311 890 311 890 283.5 848.5 c 128,-1,2
 256 807 256 807 256 754 c 0,3,4
 256 622 256 622 619 419 c 2,5,-1
 651 401 l 1,6,7
 709 439 709 439 738.5 487 c 128,-1,8
 768 535 768 535 768 592 c 0,9,10
 768 667 768 667 698.5 734 c 128,-1,11
 629 801 629 801 379 936 c 1,0,1
829 1464 m 1,12,-1
 829 1262 l 1,13,-1
 737 1262 l 1,14,15
 735 1334 735 1334 683 1375.5 c 128,-1,16
 631 1417 631 1417 543 1417 c 0,17,18
 443 1417 443 1417 385.5 1368.5 c 128,-1,19
 328 1320 328 1320 328 1237 c 0,20,21
 328 1140 328 1140 574 1003 c 0,22,23
 600 988 600 988 612 981 c 0,24,25
 807 872 807 872 869.5 797 c 128,-1,26
 932 722 932 722 932 623 c 0,27,28
 932 528 932 528 879.5 465 c 128,-1,29
 827 402 827 402 713 358 c 1,30,31
 791 311 791 311 827.5 248 c 128,-1,32
 864 185 864 185 864 94 c 0,33,34
 864 -37 864 -37 762 -116 c 128,-1,35
 660 -195 660 -195 487 -195 c 0,36,37
 397 -195 397 -195 317 -181.5 c 128,-1,38
 237 -168 237 -168 160 -139 c 1,39,-1
 160 70 l 1,40,-1
 252 69 l 1,41,42
 254 -11 254 -11 308 -51.5 c 128,-1,43
 362 -92 362 -92 469 -92 c 0,44,45
 573 -92 573 -92 633.5 -43 c 128,-1,46
 694 6 694 6 694 90 c 0,47,48
 694 203 694 203 466 330 c 0,49,50
 445 342 445 342 434 348 c 0,51,52
 218 470 218 470 155 545 c 128,-1,53
 92 620 92 620 92 719 c 0,54,55
 92 813 92 813 151 879.5 c 128,-1,56
 210 946 210 946 319 977 c 1,57,58
 237 1026 237 1026 197.5 1089 c 128,-1,59
 158 1152 158 1152 158 1231 c 0,60,61
 158 1361 158 1361 258 1440.5 c 128,-1,62
 358 1520 358 1520 524 1520 c 0,63,64
 602 1520 602 1520 678 1506 c 128,-1,65
 754 1492 754 1492 829 1464 c 1,12,-1
EndSplineSet
EndChar
StartChar: dieresis
Encoding: 168 168 168
Width: 1024
Flags: W
LayerCount: 2
Fore
SplineSet
317 1569 m 0,0,1
 365 1569 365 1569 399.5 1534.5 c 128,-1,2
 434 1500 434 1500 434 1452 c 0,3,4
 434 1401 434 1401 401 1368 c 128,-1,5
 368 1335 368 1335 317 1335 c 0,6,7
 267 1335 267 1335 234 1368 c 128,-1,8
 201 1401 201 1401 201 1452 c 0,9,10
 201 1500 201 1500 235.5 1534.5 c 128,-1,11
 270 1569 270 1569 317 1569 c 0,0,1
707 1569 m 0,12,13
 754 1569 754 1569 788.5 1534.5 c 128,-1,14
 823 1500 823 1500 823 1452 c 0,15,16
 823 1401 823 1401 790 1368 c 128,-1,17
 757 1335 757 1335 707 1335 c 0,18,19
 656 1335 656 1335 623 1368 c 128,-1,20
 590 1401 590 1401 590 1452 c 0,21,22
 590 1500 590 1500 624.5 1534.5 c 128,-1,23
 659 1569 659 1569 707 1569 c 0,12,13
EndSplineSet
EndChar
StartChar: copyright
Encoding: 169 169 169
Width: 2048
Flags: W
LayerCount: 2
Fore
SplineSet
1376 573 m 1,0,1
 1349 442 1349 442 1258.5 371.5 c 128,-1,2
 1168 301 1168 301 1026 301 c 0,3,4
 839 301 839 301 727.5 421 c 128,-1,5
 616 541 616 541 616 741 c 0,6,7
 616 942 616 942 728.5 1063 c 128,-1,8
 841 1184 841 1184 1026 1184 c 0,9,10
 1106 1184 1106 1184 1183.5 1165.5 c 128,-1,11
 1261 1147 1261 1147 1348 1108 c 1,12,-1
 1348 895 l 1,13,-1
 1264 895 l 1,14,15
 1247 1004 1247 1004 1190 1055 c 128,-1,16
 1133 1106 1133 1106 1028 1106 c 0,17,18
 909 1106 909 1106 848.5 1014.5 c 128,-1,19
 788 923 788 923 788 741 c 0,20,21
 788 560 788 560 848 469.5 c 128,-1,22
 908 379 908 379 1026 379 c 0,23,24
 1123 379 1123 379 1179.5 426.5 c 128,-1,25
 1236 474 1236 474 1257 573 c 1,26,-1
 1376 573 l 1,0,1
1024 1485 m 0,27,28
 1176 1485 1176 1485 1307.5 1430 c 128,-1,29
 1439 1375 1439 1375 1548 1266 c 0,30,31
 1657 1157 1657 1157 1711 1026 c 128,-1,32
 1765 895 1765 895 1765 741 c 0,33,34
 1765 589 1765 589 1711 458.5 c 128,-1,35
 1657 328 1657 328 1548 219 c 0,36,37
 1439 110 1439 110 1307.5 55 c 128,-1,38
 1176 0 1176 0 1024 0 c 0,39,40
 872 0 872 0 740.5 55 c 128,-1,41
 609 110 609 110 500 219 c 0,42,43
 391 328 391 328 337 458.5 c 128,-1,44
 283 589 283 589 283 741 c 0,45,46
 283 895 283 895 337 1026 c 128,-1,47
 391 1157 391 1157 500 1266 c 0,48,49
 609 1375 609 1375 740.5 1430 c 128,-1,50
 872 1485 872 1485 1024 1485 c 0,27,28
1024 1382 m 0,51,52
 893 1382 893 1382 780 1335 c 128,-1,53
 667 1288 667 1288 573 1194 c 0,54,55
 480 1101 480 1101 432.5 986.5 c 128,-1,56
 385 872 385 872 385 741 c 0,57,58
 385 611 385 611 432.5 498 c 128,-1,59
 480 385 480 385 573 291 c 0,60,61
 667 197 667 197 780 149.5 c 128,-1,62
 893 102 893 102 1024 102 c 0,63,64
 1156 102 1156 102 1269.5 149.5 c 128,-1,65
 1383 197 1383 197 1477 291 c 0,66,67
 1570 384 1570 384 1616.5 497 c 128,-1,68
 1663 610 1663 610 1663 741 c 0,69,70
 1663 874 1663 874 1616 987.5 c 128,-1,71
 1569 1101 1569 1101 1477 1194 c 0,72,73
 1383 1288 1383 1288 1269.5 1335 c 128,-1,74
 1156 1382 1156 1382 1024 1382 c 0,51,52
EndSplineSet
EndChar
StartChar: ordfeminine
Encoding: 170 170 170
Width: 973
Flags: W
LayerCount: 2
Fore
SplineSet
838 1219 m 2,0,-1
 838 840 l 1,1,-1
 918 840 l 1,2,-1
 918 756 l 1,3,-1
 690 756 l 1,4,-1
 690 836 l 1,5,6
 642 785 642 785 579.5 761 c 128,-1,7
 517 737 517 737 430 737 c 0,8,9
 289 737 289 737 207 802 c 128,-1,10
 125 867 125 867 125 979 c 0,11,12
 125 1093 125 1093 220 1157 c 128,-1,13
 315 1221 315 1221 485 1221 c 2,14,-1
 690 1221 l 1,15,-1
 690 1266 l 2,16,17
 690 1350 690 1350 632 1397 c 128,-1,18
 574 1444 574 1444 469 1444 c 0,19,20
 382 1444 382 1444 331 1409 c 128,-1,21
 280 1374 280 1374 266 1305 c 1,22,-1
 190 1305 l 1,23,-1
 190 1462 l 1,24,25
 267 1491 267 1491 339 1505.5 c 128,-1,26
 411 1520 411 1520 477 1520 c 0,27,28
 654 1520 654 1520 746 1443 c 128,-1,29
 838 1366 838 1366 838 1219 c 2,0,-1
690 997 m 2,30,-1
 690 1145 l 1,31,-1
 502 1145 l 2,32,33
 397 1145 397 1145 343 1105 c 128,-1,34
 289 1065 289 1065 289 987 c 0,35,36
 289 906 289 906 339.5 863.5 c 128,-1,37
 390 821 390 821 487 821 c 0,38,39
 579 821 579 821 634.5 869.5 c 128,-1,40
 690 918 690 918 690 997 c 2,30,-1
166 639 m 1,41,-1
 864 639 l 1,42,-1
 864 535 l 1,43,-1
 166 535 l 1,44,-1
 166 639 l 1,41,-1
EndSplineSet
EndChar
StartChar: guillemotleft
Encoding: 171 171 171
Width: 1253
Flags: W
LayerCount: 2
Fore
SplineSet
1061 1059 m 1,0,-1
 1061 944 l 1,1,-1
 764 600 l 1,2,-1
 1061 256 l 1,3,-1
 1061 141 l 1,4,-1
 592 559 l 1,5,-1
 592 641 l 1,6,-1
 1061 1059 l 1,0,-1
627 1059 m 1,7,-1
 627 944 l 1,8,-1
 330 600 l 1,9,-1
 627 256 l 1,10,-1
 627 141 l 1,11,-1
 158 559 l 1,12,-1
 158 641 l 1,13,-1
 627 1059 l 1,7,-1
EndSplineSet
EndChar
StartChar: logicalnot
Encoding: 172 172 172
Width: 1716
Flags: W
LayerCount: 2
Fore
SplineSet
217 862 m 1,0,-1
 1499 862 l 1,1,-1
 1499 287 l 1,2,-1
 1339 287 l 1,3,-1
 1339 700 l 1,4,-1
 217 700 l 1,5,-1
 217 862 l 1,0,-1
EndSplineSet
EndChar
StartChar: sfthyphen
Encoding: 173 173 173
Width: 692
Flags: W
LayerCount: 2
Fore
SplineSet
90 627 m 1,0,-1
 602 627 l 1,1,-1
 602 471 l 1,2,-1
 90 471 l 1,3,-1
 90 627 l 1,0,-1
EndSplineSet
EndChar
StartChar: registered
Encoding: 174 174 174
Width: 2048
Flags: W
LayerCount: 2
Fore
SplineSet
895 791 m 1,0,-1
 1020 791 l 2,1,2
 1103 791 1103 791 1144.5 829 c 128,-1,3
 1186 867 1186 867 1186 942 c 0,4,5
 1186 1016 1186 1016 1144 1054 c 128,-1,6
 1102 1092 1102 1092 1020 1092 c 2,7,-1
 895 1092 l 1,8,-1
 895 791 l 1,0,-1
1141 754 m 1,9,10
 1183 740 1183 740 1212.5 714.5 c 128,-1,11
 1242 689 1242 689 1262 649 c 2,12,-1
 1378 420 l 1,13,-1
 1454 420 l 1,14,-1
 1454 352 l 1,15,-1
 1264 352 l 1,16,-1
 1133 606 l 1,17,18
 1098 676 1098 676 1067 699.5 c 128,-1,19
 1036 723 1036 723 987 723 c 2,20,-1
 895 723 l 1,21,-1
 895 420 l 1,22,-1
 979 420 l 1,23,-1
 979 352 l 1,24,-1
 662 352 l 1,25,-1
 662 420 l 1,26,-1
 745 420 l 1,27,-1
 745 1092 l 1,28,-1
 662 1092 l 1,29,-1
 662 1159 l 1,30,-1
 1077 1159 l 2,31,32
 1205 1159 1205 1159 1270 1103 c 128,-1,33
 1335 1047 1335 1047 1335 938 c 0,34,35
 1335 855 1335 855 1287 809.5 c 128,-1,36
 1239 764 1239 764 1141 754 c 1,9,10
1024 1382 m 0,37,38
 893 1382 893 1382 780 1335 c 128,-1,39
 667 1288 667 1288 573 1194 c 0,40,41
 480 1101 480 1101 432.5 986.5 c 128,-1,42
 385 872 385 872 385 741 c 0,43,44
 385 611 385 611 432.5 498 c 128,-1,45
 480 385 480 385 573 291 c 0,46,47
 667 197 667 197 780 149.5 c 128,-1,48
 893 102 893 102 1024 102 c 0,49,50
 1156 102 1156 102 1269.5 149.5 c 128,-1,51
 1383 197 1383 197 1477 291 c 0,52,53
 1570 384 1570 384 1616.5 497 c 128,-1,54
 1663 610 1663 610 1663 741 c 0,55,56
 1663 874 1663 874 1616 987.5 c 128,-1,57
 1569 1101 1569 1101 1477 1194 c 0,58,59
 1383 1288 1383 1288 1269.5 1335 c 128,-1,60
 1156 1382 1156 1382 1024 1382 c 0,37,38
1024 1485 m 0,61,62
 1176 1485 1176 1485 1307.5 1430 c 128,-1,63
 1439 1375 1439 1375 1548 1266 c 0,64,65
 1657 1157 1657 1157 1711 1026 c 128,-1,66
 1765 895 1765 895 1765 741 c 0,67,68
 1765 589 1765 589 1711 458.5 c 128,-1,69
 1657 328 1657 328 1548 219 c 0,70,71
 1439 110 1439 110 1307.5 55 c 128,-1,72
 1176 0 1176 0 1024 0 c 0,73,74
 872 0 872 0 740.5 55 c 128,-1,75
 609 110 609 110 500 219 c 0,76,77
 391 328 391 328 337 458.5 c 128,-1,78
 283 589 283 589 283 741 c 0,79,80
 283 895 283 895 337 1026 c 128,-1,81
 391 1157 391 1157 500 1266 c 0,82,83
 609 1375 609 1375 740.5 1430 c 128,-1,84
 872 1485 872 1485 1024 1485 c 0,61,62
EndSplineSet
EndChar
StartChar: macron
Encoding: 175 175 175
Width: 1024
Flags: W
LayerCount: 2
Fore
SplineSet
213 1526 m 1,0,-1
 811 1526 l 1,1,-1
 811 1378 l 1,2,-1
 213 1378 l 1,3,-1
 213 1526 l 1,0,-1
EndSplineSet
LCarets2: 1 0 
EndChar
StartChar: degree
Encoding: 176 176 176
Width: 1024
Flags: W
LayerCount: 2
Fore
SplineSet
512 1382 m 0,0,1
 436 1382 436 1382 384 1329.5 c 128,-1,2
 332 1277 332 1277 332 1200 c 0,3,4
 332 1124 332 1124 383.5 1073 c 128,-1,5
 435 1022 435 1022 512 1022 c 0,6,7
 588 1022 588 1022 640 1073.5 c 128,-1,8
 692 1125 692 1125 692 1200 c 0,9,10
 692 1275 692 1275 639 1328.5 c 128,-1,11
 586 1382 586 1382 512 1382 c 0,0,1
512 1520 m 0,12,13
 576 1520 576 1520 635 1495.5 c 128,-1,14
 694 1471 694 1471 737 1425 c 1,15,16
 783 1380 783 1380 806 1323 c 128,-1,17
 829 1266 829 1266 829 1200 c 0,18,19
 829 1068 829 1068 736.5 976.5 c 128,-1,20
 644 885 644 885 510 885 c 0,21,22
 375 885 375 885 285 975 c 128,-1,23
 195 1065 195 1065 195 1200 c 0,24,25
 195 1334 195 1334 287 1427 c 128,-1,26
 379 1520 379 1520 512 1520 c 0,12,13
EndSplineSet
EndChar
StartChar: plusminus
Encoding: 177 177 177
Width: 1716
Flags: W
LayerCount: 2
Fore
SplineSet
938 1284 m 1,0,-1
 938 893 l 1,1,-1
 1499 893 l 1,2,-1
 1499 731 l 1,3,-1
 938 731 l 1,4,-1
 938 340 l 1,5,-1
 778 340 l 1,6,-1
 778 731 l 1,7,-1
 217 731 l 1,8,-1
 217 893 l 1,9,-1
 778 893 l 1,10,-1
 778 1284 l 1,11,-1
 938 1284 l 1,0,-1
217 160 m 1,12,-1
 1499 160 l 1,13,-1
 1499 0 l 1,14,-1
 217 0 l 1,15,-1
 217 160 l 1,12,-1
EndSplineSet
EndChar
StartChar: twosuperior
Encoding: 178 178 178
Width: 821
Flags: W
LayerCount: 2
Fore
SplineSet
170 1296 m 1,0,-1
 100 1296 l 1,1,-1
 100 1454 l 1,2,3
 166 1486 166 1486 236 1503 c 128,-1,4
 306 1520 306 1520 375 1520 c 0,5,6
 513 1520 513 1520 598.5 1454 c 128,-1,7
 684 1388 684 1388 684 1284 c 0,8,9
 684 1162 684 1162 490 988 c 2,10,-1
 471 971 l 1,11,-1
 233 756 l 1,12,-1
 618 756 l 1,13,-1
 618 864 l 1,14,-1
 692 864 l 1,15,-1
 692 668 l 1,16,-1
 90 668 l 1,17,-1
 90 743 l 1,18,-1
 375 997 l 2,19,20
 461 1074 461 1074 498 1135 c 128,-1,21
 535 1196 535 1196 535 1262 c 0,22,23
 535 1347 535 1347 486.5 1396.5 c 128,-1,24
 438 1446 438 1446 354 1446 c 0,25,26
 276 1446 276 1446 229 1408 c 128,-1,27
 182 1370 182 1370 170 1296 c 1,0,-1
EndSplineSet
EndChar
StartChar: threesuperior
Encoding: 179 179 179
Width: 821
Flags: W
LayerCount: 2
Fore
SplineSet
125 1468 m 1,0,1
 198 1494 198 1494 265 1507 c 128,-1,2
 332 1520 332 1520 391 1520 c 0,3,4
 529 1520 529 1520 603.5 1466 c 128,-1,5
 678 1412 678 1412 678 1313 c 0,6,7
 678 1241 678 1241 625 1191 c 128,-1,8
 572 1141 572 1141 477 1124 c 1,9,10
 596 1108 596 1108 656.5 1048.5 c 128,-1,11
 717 989 717 989 717 889 c 0,12,13
 717 775 717 775 629.5 714 c 128,-1,14
 542 653 542 653 379 653 c 0,15,16
 307 653 307 653 237.5 667 c 128,-1,17
 168 681 168 681 100 709 c 1,18,-1
 100 879 l 1,19,-1
 170 878 l 1,20,21
 175 804 175 804 224 765.5 c 128,-1,22
 273 727 273 727 365 727 c 0,23,24
 459 727 459 727 510 771 c 128,-1,25
 561 815 561 815 561 897 c 0,26,27
 561 990 561 990 510 1037.5 c 128,-1,28
 459 1085 459 1085 358 1085 c 2,29,-1
 305 1085 l 1,30,-1
 305 1159 l 1,31,-1
 332 1159 l 2,32,33
 429 1159 429 1159 478.5 1196 c 128,-1,34
 528 1233 528 1233 528 1307 c 0,35,36
 528 1374 528 1374 487.5 1410 c 128,-1,37
 447 1446 447 1446 371 1446 c 0,38,39
 289 1446 289 1446 245.5 1414 c 128,-1,40
 202 1382 202 1382 195 1317 c 1,41,-1
 125 1317 l 1,42,-1
 125 1468 l 1,0,1
EndSplineSet
EndChar
StartChar: acute
Encoding: 180 180 180
Width: 1024
Flags: W
LayerCount: 2
Fore
SplineSet
651 1638 m 1,0,-1
 850 1638 l 1,1,-1
 510 1262 l 1,2,-1
 393 1262 l 1,3,-1
 651 1638 l 1,0,-1
EndSplineSet
LCarets2: 1 0 
EndChar
StartChar: mu
Encoding: 181 181 181
Width: 1331
Flags: W
LayerCount: 2
Fore
SplineSet
739 1063 m 1,0,-1
 1083 1063 l 1,1,-1
 1083 104 l 1,2,-1
 1257 104 l 1,3,-1
 1257 0 l 1,4,-1
 899 0 l 1,5,-1
 899 188 l 1,6,7
 847 82 847 82 773.5 26.5 c 128,-1,8
 700 -29 700 -29 610 -29 c 0,9,10
 553 -29 553 -29 506 -11 c 128,-1,11
 459 7 459 7 420 43 c 1,12,-1
 420 -319 l 1,13,-1
 594 -319 l 1,14,-1
 594 -426 l 1,15,-1
 59 -426 l 1,16,-1
 59 -319 l 1,17,-1
 236 -319 l 1,18,-1
 236 956 l 1,19,-1
 70 956 l 1,20,-1
 70 1063 l 1,21,-1
 420 1063 l 1,22,-1
 420 444 l 2,23,24
 420 250 420 250 468 178 c 128,-1,25
 516 106 516 106 637 106 c 0,26,27
 765 106 765 106 832 200 c 128,-1,28
 899 294 899 294 899 473 c 2,29,-1
 899 956 l 1,30,-1
 739 956 l 1,31,-1
 739 1063 l 1,0,-1
EndSplineSet
EndChar
StartChar: paragraph
Encoding: 182 182 182
Width: 1303
Flags: W
LayerCount: 2
Fore
SplineSet
633 1493 m 2,0,-1
 1171 1493 l 1,1,-1
 1171 1386 l 1,2,-1
 1053 1386 l 1,3,-1
 1053 -197 l 1,4,-1
 946 -197 l 1,5,-1
 946 1386 l 1,6,-1
 715 1386 l 1,7,-1
 715 -197 l 1,8,-1
 608 -197 l 1,9,-1
 608 649 l 1,10,11
 393 666 393 666 275.5 776.5 c 128,-1,12
 158 887 158 887 158 1071 c 0,13,14
 158 1261 158 1261 288 1377 c 128,-1,15
 418 1493 418 1493 633 1493 c 2,0,-1
EndSplineSet
EndChar
StartChar: periodcentered
Encoding: 183 183 183
Width: 651
Flags: W
LayerCount: 2
Fore
SplineSet
190 711 m 0,0,1
 190 767 190 767 228.5 805.5 c 128,-1,2
 267 844 267 844 324 844 c 0,3,4
 379 844 379 844 418 805 c 128,-1,5
 457 766 457 766 457 711 c 0,6,7
 457 655 457 655 418 616.5 c 128,-1,8
 379 578 379 578 324 578 c 0,9,10
 267 578 267 578 228.5 616 c 128,-1,11
 190 654 190 654 190 711 c 0,0,1
EndSplineSet
EndChar
StartChar: cedilla
Encoding: 184 184 184
Width: 1024
Flags: W
LayerCount: 2
Fore
SplineSet
578 0 m 1,0,1
 642 -64 642 -64 673.5 -120 c 128,-1,2
 705 -176 705 -176 705 -225 c 0,3,4
 705 -306 705 -306 642 -350.5 c 128,-1,5
 579 -395 579 -395 467 -395 c 0,6,7
 425 -395 425 -395 381 -389 c 128,-1,8
 337 -383 337 -383 291 -371 c 1,9,-1
 291 -240 l 1,10,11
 332 -257 332 -257 371.5 -265.5 c 128,-1,12
 411 -274 411 -274 446 -274 c 0,13,14
 503 -274 503 -274 536 -247.5 c 128,-1,15
 569 -221 569 -221 569 -176 c 0,16,17
 569 -148 569 -148 547 -104 c 128,-1,18
 525 -60 525 -60 481 0 c 1,19,-1
 578 0 l 1,0,1
EndSplineSet
LCarets2: 1 0 
EndChar
StartChar: onesuperior
Encoding: 185 185 185
Width: 821
Flags: W
LayerCount: 2
Fore
SplineSet
176 668 m 1,0,-1
 176 752 l 1,1,-1
 348 752 l 1,2,-1
 348 1386 l 1,3,-1
 147 1280 l 1,4,-1
 147 1374 l 1,5,-1
 387 1503 l 1,6,-1
 489 1503 l 1,7,-1
 489 752 l 1,8,-1
 662 752 l 1,9,-1
 662 668 l 1,10,-1
 176 668 l 1,0,-1
EndSplineSet
EndChar
StartChar: ordmasculine
Encoding: 186 186 186
Width: 963
Flags: W
LayerCount: 2
Fore
SplineSet
481 813 m 0,0,1
 587 813 587 813 640.5 892.5 c 128,-1,2
 694 972 694 972 694 1128 c 0,3,4
 694 1284 694 1284 640 1364 c 128,-1,5
 586 1444 586 1444 481 1444 c 0,6,7
 377 1444 377 1444 322.5 1363 c 128,-1,8
 268 1282 268 1282 268 1128 c 0,9,10
 268 973 268 973 322 893 c 128,-1,11
 376 813 376 813 481 813 c 0,0,1
481 737 m 0,12,13
 306 737 306 737 200 844.5 c 128,-1,14
 94 952 94 952 94 1128 c 0,15,16
 94 1305 94 1305 200 1412.5 c 128,-1,17
 306 1520 306 1520 481 1520 c 0,18,19
 656 1520 656 1520 762 1412.5 c 128,-1,20
 868 1305 868 1305 868 1128 c 0,21,22
 868 951 868 951 762.5 844 c 128,-1,23
 657 737 657 737 481 737 c 0,12,13
137 639 m 1,24,-1
 825 639 l 1,25,-1
 825 535 l 1,26,-1
 137 535 l 1,27,-1
 137 639 l 1,24,-1
EndSplineSet
EndChar
StartChar: guillemotright
Encoding: 187 187 187
Width: 1253
Flags: W
LayerCount: 2
Fore
SplineSet
627 1059 m 1,0,-1
 1096 641 l 1,1,-1
 1096 559 l 1,2,-1
 627 141 l 1,3,-1
 627 256 l 1,4,-1
 924 600 l 1,5,-1
 627 944 l 1,6,-1
 627 1059 l 1,0,-1
193 1059 m 1,7,-1
 662 641 l 1,8,-1
 662 559 l 1,9,-1
 193 141 l 1,10,-1
 193 256 l 1,11,-1
 489 600 l 1,12,-1
 193 944 l 1,13,-1
 193 1059 l 1,7,-1
EndSplineSet
EndChar
StartChar: questiondown
Encoding: 191 191 191
Width: 1098
Flags: W
LayerCount: 2
Fore
SplineSet
778 1389 m 0,0,1
 778 1333 778 1333 739.5 1294 c 128,-1,2
 701 1255 701 1255 645 1255 c 0,3,4
 590 1255 590 1255 551 1294 c 128,-1,5
 512 1333 512 1333 512 1389 c 0,6,7
 512 1444 512 1444 551 1483 c 128,-1,8
 590 1522 590 1522 645 1522 c 0,9,10
 702 1522 702 1522 740 1483.5 c 128,-1,11
 778 1445 778 1445 778 1389 c 0,0,1
999 66 m 1,12,13
 893 19 893 19 798 -4 c 128,-1,14
 703 -27 703 -27 618 -27 c 0,15,16
 397 -27 397 -27 268 80 c 128,-1,17
 139 187 139 187 139 369 c 0,18,19
 139 555 139 555 250 673 c 128,-1,20
 361 791 361 791 584 842 c 1,21,-1
 584 1096 l 1,22,-1
 707 1096 l 1,23,-1
 707 768 l 1,24,25
 530 725 530 725 440 624 c 128,-1,26
 350 523 350 523 350 367 c 0,27,28
 350 230 350 230 423.5 151 c 128,-1,29
 497 72 497 72 623 72 c 0,30,31
 736 72 736 72 809 137.5 c 128,-1,32
 882 203 882 203 903 326 c 1,33,-1
 999 326 l 1,34,-1
 999 66 l 1,12,13
EndSplineSet
EndChar
StartChar: Aring
Encoding: 197 197 197
Width: 1479
Flags: W
AnchorPoint: "above" 731 1907 basechar 0
LayerCount: 2
Fore
SplineSet
887 1626 m 0,0,1
 887 1689 887 1689 842.5 1733.5 c 128,-1,2
 798 1778 798 1778 735 1778 c 0,3,4
 671 1778 671 1778 627.5 1734.5 c 128,-1,5
 584 1691 584 1691 584 1626 c 0,6,7
 584 1563 584 1563 627.5 1519 c 128,-1,8
 671 1475 671 1475 735 1475 c 0,9,10
 798 1475 798 1475 842.5 1519 c 128,-1,11
 887 1563 887 1563 887 1626 c 0,0,1
410 541 m 1,12,-1
 956 541 l 1,13,-1
 684 1251 l 1,14,-1
 410 541 l 1,12,-1
-12 0 m 1,15,-1
 -12 106 l 1,16,-1
 119 106 l 1,17,-1
 608 1384 l 1,18,19
 536 1421 536 1421 498.5 1482 c 128,-1,20
 461 1543 461 1543 461 1626 c 0,21,22
 461 1740 461 1740 541 1820.5 c 128,-1,23
 621 1901 621 1901 735 1901 c 0,24,25
 849 1901 849 1901 929.5 1820.5 c 128,-1,26
 1010 1740 1010 1740 1010 1626 c 0,27,28
 1010 1546 1010 1546 971 1482.5 c 128,-1,29
 932 1419 932 1419 860 1384 c 1,30,-1
 1352 106 l 1,31,-1
 1499 106 l 1,32,-1
 1499 0 l 1,33,-1
 956 0 l 1,34,-1
 956 106 l 1,35,-1
 1122 106 l 1,36,-1
 997 434 l 1,37,-1
 369 434 l 1,38,-1
 244 106 l 1,39,-1
 408 106 l 1,40,-1
 408 0 l 1,41,-1
 -12 0 l 1,15,-1
EndSplineSet
EndChar
StartChar: AE
Encoding: 198 198 198
Width: 2050
Flags: W
AnchorPoint: "above" 1201 1465 basechar 0
AnchorPoint: "below" 1201 0 basechar 0
LayerCount: 2
Fore
SplineSet
426 541 m 1,0,-1
 915 541 l 1,1,-1
 915 1386 l 1,2,-1
 815 1386 l 1,3,-1
 426 541 l 1,0,-1
725 0 m 1,4,-1
 725 106 l 1,5,-1
 915 106 l 1,6,-1
 915 434 l 1,7,-1
 377 434 l 1,8,-1
 225 106 l 1,9,-1
 389 106 l 1,10,-1
 389 0 l 1,11,-1
 -35 0 l 1,12,-1
 -35 106 l 1,13,-1
 96 106 l 1,14,-1
 686 1386 l 1,15,-1
 471 1386 l 1,16,-1
 471 1493 l 1,17,-1
 1927 1493 l 1,18,-1
 1927 1161 l 1,19,-1
 1804 1161 l 1,20,-1
 1804 1370 l 1,21,-1
 1116 1370 l 1,22,-1
 1116 870 l 1,23,-1
 1608 870 l 1,24,-1
 1608 1057 l 1,25,-1
 1731 1057 l 1,26,-1
 1731 561 l 1,27,-1
 1608 561 l 1,28,-1
 1608 748 l 1,29,-1
 1116 748 l 1,30,-1
 1116 123 l 1,31,-1
 1821 123 l 1,32,-1
 1821 332 l 1,33,-1
 1944 332 l 1,34,-1
 1944 0 l 1,35,-1
 725 0 l 1,4,-1
EndSplineSet
EndChar
StartChar: Eth
Encoding: 208 208 208
Width: 1653
Flags: W
LayerCount: 2
Fore
SplineSet
514 106 m 1,0,-1
 702 106 l 2,1,2
 993 106 993 106 1149 272 c 128,-1,3
 1305 438 1305 438 1305 748 c 0,4,5
 1305 1058 1305 1058 1149.5 1222 c 128,-1,6
 994 1386 994 1386 702 1386 c 2,7,-1
 514 1386 l 1,8,-1
 514 844 l 1,9,-1
 850 844 l 1,10,-1
 850 719 l 1,11,-1
 514 719 l 1,12,-1
 514 106 l 1,0,-1
123 0 m 1,13,-1
 123 106 l 1,14,-1
 313 106 l 1,15,-1
 313 719 l 1,16,-1
 113 719 l 1,17,-1
 113 844 l 1,18,-1
 313 844 l 1,19,-1
 313 1386 l 1,20,-1
 123 1386 l 1,21,-1
 123 1493 l 1,22,-1
 717 1493 l 2,23,24
 1103 1493 1103 1493 1318.5 1296 c 128,-1,25
 1534 1099 1534 1099 1534 748 c 0,26,27
 1534 396 1534 396 1318 198 c 128,-1,28
 1102 0 1102 0 717 0 c 2,29,-1
 123 0 l 1,13,-1
EndSplineSet
EndChar
StartChar: multiply
Encoding: 215 215 215
Width: 1716
Flags: W
LayerCount: 2
Fore
SplineSet
1434 1104 m 1,0,-1
 971 641 l 1,1,-1
 1434 180 l 1,2,-1
 1319 68 l 1,3,-1
 858 528 l 1,4,-1
 397 68 l 1,5,-1
 283 180 l 1,6,-1
 743 641 l 1,7,-1
 283 1104 l 1,8,-1
 397 1217 l 1,9,-1
 858 756 l 1,10,-1
 1319 1217 l 1,11,-1
 1434 1104 l 1,0,-1
EndSplineSet
EndChar
StartChar: Oslash
Encoding: 216 216 216
Width: 1679
Flags: W
AnchorPoint: "above" 840 1465 basechar 0
AnchorPoint: "below" 840 0 basechar 0
LayerCount: 2
Fore
SplineSet
1214 1239 m 1,0,1
 1149 1327 1149 1327 1056.5 1370 c 128,-1,2
 964 1413 964 1413 840 1413 c 0,3,4
 594 1413 594 1413 469 1244.5 c 128,-1,5
 344 1076 344 1076 344 745 c 0,6,7
 344 626 344 626 360 529.5 c 128,-1,8
 376 433 376 433 410 352 c 1,9,-1
 1214 1239 l 1,0,1
463 256 m 1,10,11
 527 167 527 167 621 122.5 c 128,-1,12
 715 78 715 78 840 78 c 0,13,14
 1085 78 1085 78 1210 246.5 c 128,-1,15
 1335 415 1335 415 1335 745 c 0,16,17
 1335 862 1335 862 1318.5 960.5 c 128,-1,18
 1302 1059 1302 1059 1268 1141 c 1,19,-1
 463 256 l 1,10,11
1391 1276 m 1,20,21
 1478 1168 1478 1168 1521.5 1036.5 c 128,-1,22
 1565 905 1565 905 1565 745 c 0,23,24
 1565 400 1565 400 1364.5 185.5 c 128,-1,25
 1164 -29 1164 -29 840 -29 c 0,26,27
 699 -29 699 -29 580 14 c 128,-1,28
 461 57 461 57 360 143 c 1,29,-1
 178 -57 l 1,30,-1
 100 12 l 1,31,-1
 287 219 l 1,32,33
 200 324 200 324 157.5 454.5 c 128,-1,34
 115 585 115 585 115 745 c 0,35,36
 115 1091 115 1091 316 1305.5 c 128,-1,37
 517 1520 517 1520 840 1520 c 0,38,39
 981 1520 981 1520 1101 1477.5 c 128,-1,40
 1221 1435 1221 1435 1317 1352 c 1,41,-1
 1495 1550 l 1,42,-1
 1575 1479 l 1,43,-1
 1391 1276 l 1,20,21
EndSplineSet
EndChar
StartChar: Thorn
Encoding: 222 222 222
Width: 1384
Flags: W
LayerCount: 2
Fore
SplineSet
506 434 m 1,0,-1
 770 434 l 2,1,2
 919 434 919 434 997 514.5 c 128,-1,3
 1075 595 1075 595 1075 748 c 0,4,5
 1075 900 1075 900 997 980.5 c 128,-1,6
 919 1061 919 1061 770 1061 c 2,7,-1
 506 1061 l 1,8,-1
 506 434 l 1,0,-1
113 0 m 1,9,-1
 113 106 l 1,10,-1
 303 106 l 1,11,-1
 303 1386 l 1,12,-1
 113 1386 l 1,13,-1
 113 1493 l 1,14,-1
 737 1493 l 1,15,-1
 737 1386 l 1,16,-1
 506 1386 l 1,17,-1
 506 1167 l 1,18,-1
 819 1167 l 2,19,20
 1043 1167 1043 1167 1174 1053.5 c 128,-1,21
 1305 940 1305 940 1305 748 c 0,22,23
 1305 554 1305 554 1173.5 440 c 128,-1,24
 1042 326 1042 326 819 326 c 2,25,-1
 506 326 l 1,26,-1
 506 106 l 1,27,-1
 737 106 l 1,28,-1
 737 0 l 1,29,-1
 113 0 l 1,9,-1
EndSplineSet
EndChar
StartChar: germandbls
Encoding: 223 223 223
Width: 1368
Flags: W
LayerCount: 2
Fore
SplineSet
940 1210 m 1,0,1
 932 1329 932 1329 862.5 1393.5 c 128,-1,2
 793 1458 793 1458 674 1458 c 0,3,4
 542 1458 542 1458 481 1393.5 c 128,-1,5
 420 1329 420 1329 420 1190 c 2,6,-1
 420 0 l 1,7,-1
 59 0 l 1,8,-1
 59 106 l 1,9,-1
 236 106 l 1,10,-1
 236 1186 l 2,11,12
 236 1362 236 1362 350.5 1459 c 128,-1,13
 465 1556 465 1556 674 1556 c 0,14,15
 887 1556 887 1556 998.5 1452 c 128,-1,16
 1110 1348 1110 1348 1122 1137 c 1,17,-1
 1100 1137 l 2,18,19
 955 1137 955 1137 871.5 1083 c 128,-1,20
 788 1029 788 1029 788 936 c 0,21,22
 788 884 788 884 815 845.5 c 128,-1,23
 842 807 842 807 915 760 c 1,24,-1
 1004 705 l 1,25,26
 1159 606 1159 606 1218.5 521 c 128,-1,27
 1278 436 1278 436 1278 322 c 0,28,29
 1278 167 1278 167 1162.5 69 c 128,-1,30
 1047 -29 1047 -29 862 -29 c 0,31,32
 777 -29 777 -29 693 -10.5 c 128,-1,33
 609 8 609 8 530 43 c 1,34,-1
 530 276 l 1,35,-1
 639 276 l 1,36,37
 643 175 643 175 698.5 122.5 c 128,-1,38
 754 70 754 70 856 70 c 0,39,40
 967 70 967 70 1030.5 130.5 c 128,-1,41
 1094 191 1094 191 1094 295 c 0,42,43
 1094 379 1094 379 1054 437.5 c 128,-1,44
 1014 496 1014 496 897 569 c 2,45,-1
 811 623 l 2,46,47
 707 688 707 688 662.5 752.5 c 128,-1,48
 618 817 618 817 618 899 c 0,49,50
 618 1021 618 1021 702.5 1103 c 128,-1,51
 787 1185 787 1185 940 1210 c 1,0,1
EndSplineSet
EndChar
StartChar: ae
Encoding: 230 230 230
Width: 1925
Flags: W
AnchorPoint: "above" 926 1097 basechar 0
AnchorPoint: "below" 926 5 basechar 0
LayerCount: 2
Fore
SplineSet
815 334 m 2,0,-1
 815 559 l 1,1,-1
 578 559 l 2,2,3
 441 559 441 559 374 500 c 128,-1,4
 307 441 307 441 307 319 c 0,5,6
 307 208 307 208 375 143 c 128,-1,7
 443 78 443 78 559 78 c 0,8,9
 674 78 674 78 744.5 149 c 128,-1,10
 815 220 815 220 815 334 c 2,0,-1
924 150 m 1,11,12
 841 59 841 59 740 15 c 128,-1,13
 639 -29 639 -29 514 -29 c 0,14,15
 317 -29 317 -29 209.5 62 c 128,-1,16
 102 153 102 153 102 319 c 0,17,18
 102 484 102 484 221.5 575 c 128,-1,19
 341 666 341 666 557 666 c 2,20,-1
 815 666 l 1,21,-1
 815 739 l 2,22,23
 815 859 815 859 743 926 c 128,-1,24
 671 993 671 993 543 993 c 0,25,26
 427 993 427 993 361 943.5 c 128,-1,27
 295 894 295 894 279 795 c 1,28,-1
 184 795 l 1,29,-1
 184 1010 l 1,30,31
 280 1051 280 1051 370.5 1071.5 c 128,-1,32
 461 1092 461 1092 547 1092 c 0,33,34
 688 1092 688 1092 784.5 1048.5 c 128,-1,35
 881 1005 881 1005 936 915 c 1,36,37
 1010 1003 1010 1003 1106 1047.5 c 128,-1,38
 1202 1092 1202 1092 1319 1092 c 0,39,40
 1560 1092 1560 1092 1689 943 c 128,-1,41
 1818 794 1818 794 1822 512 c 1,42,-1
 1030 512 l 1,43,-1
 1030 504 l 2,44,45
 1030 289 1030 289 1110.5 179.5 c 128,-1,46
 1191 70 1191 70 1350 70 c 0,47,48
 1471 70 1471 70 1548.5 133.5 c 128,-1,49
 1626 197 1626 197 1657 322 c 1,50,-1
 1804 322 l 1,51,52
 1761 147 1761 147 1642 59 c 128,-1,53
 1523 -29 1523 -29 1331 -29 c 0,54,55
 1209 -29 1209 -29 1105.5 16.5 c 128,-1,56
 1002 62 1002 62 924 150 c 1,11,12
1606 618 m 1,57,58
 1600 804 1600 804 1527.5 898.5 c 128,-1,59
 1455 993 1455 993 1319 993 c 0,60,61
 1192 993 1192 993 1118.5 898 c 128,-1,62
 1045 803 1045 803 1030 618 c 1,63,-1
 1606 618 l 1,57,58
EndSplineSet
EndChar
StartChar: eth
Encoding: 240 240 240
Width: 1233
Flags: W
LayerCount: 2
Fore
SplineSet
821 928 m 1,0,1
 776 937 776 937 735.5 941.5 c 128,-1,2
 695 946 695 946 655 946 c 0,3,4
 482 946 482 946 399.5 839 c 128,-1,5
 317 732 317 732 317 508 c 0,6,7
 317 298 317 298 395.5 184 c 128,-1,8
 474 70 474 70 616 70 c 0,9,10
 760 70 760 70 837.5 184.5 c 128,-1,11
 915 299 915 299 915 512 c 0,12,13
 915 624 915 624 891.5 729.5 c 128,-1,14
 868 835 868 835 821 928 c 1,0,1
760 1307 m 1,15,16
 943 1140 943 1140 1036.5 944.5 c 128,-1,17
 1130 749 1130 749 1130 532 c 0,18,19
 1130 278 1130 278 989.5 124.5 c 128,-1,20
 849 -29 849 -29 616 -29 c 0,21,22
 387 -29 387 -29 244.5 122.5 c 128,-1,23
 102 274 102 274 102 518 c 0,24,25
 102 754 102 754 243 899 c 128,-1,26
 384 1044 384 1044 612 1044 c 0,27,28
 647 1044 647 1044 684.5 1041 c 128,-1,29
 722 1038 722 1038 774 1030 c 1,30,31
 752 1083 752 1083 715.5 1136.5 c 128,-1,32
 679 1190 679 1190 629 1245 c 1,33,-1
 307 1096 l 1,34,-1
 270 1174 l 1,35,-1
 563 1309 l 1,36,37
 502 1367 502 1367 423.5 1407.5 c 128,-1,38
 345 1448 345 1448 250 1470 c 1,39,-1
 268 1556 l 1,40,41
 387 1530 387 1530 491.5 1483 c 128,-1,42
 596 1436 596 1436 688 1368 c 1,43,-1
 1010 1518 l 1,44,-1
 1047 1440 l 1,45,-1
 760 1307 l 1,15,16
EndSplineSet
EndChar
StartChar: divide
Encoding: 247 247 247
Width: 1716
Flags: W
LayerCount: 2
Fore
SplineSet
725 1012 m 0,0,1
 725 1068 725 1068 763.5 1106.5 c 128,-1,2
 802 1145 802 1145 858 1145 c 0,3,4
 913 1145 913 1145 952 1106 c 128,-1,5
 991 1067 991 1067 991 1012 c 0,6,7
 991 956 991 956 952 917.5 c 128,-1,8
 913 879 913 879 858 879 c 0,9,10
 801 879 801 879 763 917 c 128,-1,11
 725 955 725 955 725 1012 c 0,0,1
725 272 m 0,12,13
 725 328 725 328 763.5 367 c 128,-1,14
 802 406 802 406 858 406 c 0,15,16
 913 406 913 406 952 367 c 128,-1,17
 991 328 991 328 991 272 c 0,18,19
 991 217 991 217 952 178 c 128,-1,20
 913 139 913 139 858 139 c 0,21,22
 801 139 801 139 763 177.5 c 128,-1,23
 725 216 725 216 725 272 c 0,12,13
217 723 m 1,24,-1
 1499 723 l 1,25,-1
 1499 561 l 1,26,-1
 217 561 l 1,27,-1
 217 723 l 1,24,-1
EndSplineSet
EndChar
StartChar: oslash
Encoding: 248 248 248
Width: 1233
Flags: W
LayerCount: 2
Fore
SplineSet
840 879 m 1,0,1
 802 936 802 936 746 964.5 c 128,-1,2
 690 993 690 993 616 993 c 0,3,4
 469 993 469 993 393 876 c 128,-1,5
 317 759 317 759 317 532 c 0,6,7
 317 460 317 460 324.5 401 c 128,-1,8
 332 342 332 342 346 293 c 1,9,-1
 840 879 l 1,0,1
391 190 m 1,10,11
 431 129 431 129 486.5 99.5 c 128,-1,12
 542 70 542 70 616 70 c 0,13,14
 763 70 763 70 839 187.5 c 128,-1,15
 915 305 915 305 915 532 c 0,16,17
 915 608 915 608 907.5 668.5 c 128,-1,18
 900 729 900 729 885 780 c 1,19,-1
 391 190 l 1,10,11
1004 922 m 1,20,21
 1066 848 1066 848 1098 749 c 128,-1,22
 1130 650 1130 650 1130 532 c 0,23,24
 1130 278 1130 278 989.5 124.5 c 128,-1,25
 849 -29 849 -29 616 -29 c 0,26,27
 522 -29 522 -29 442 -2.5 c 128,-1,28
 362 24 362 24 295 78 c 1,29,-1
 152 -94 l 1,30,-1
 76 -31 l 1,31,-1
 225 147 l 1,32,33
 164 224 164 224 133 320.5 c 128,-1,34
 102 417 102 417 102 532 c 0,35,36
 102 786 102 786 242.5 939 c 128,-1,37
 383 1092 383 1092 616 1092 c 0,38,39
 710 1092 710 1092 790 1066.5 c 128,-1,40
 870 1041 870 1041 934 991 c 1,41,-1
 1073 1157 l 1,42,-1
 1149 1094 l 1,43,-1
 1004 922 l 1,20,21
EndSplineSet
EndChar
StartChar: thorn
Encoding: 254 254 254
Width: 1311
Flags: W
LayerCount: 2
Fore
SplineSet
420 584 m 2,0,-1
 420 479 l 2,1,2
 420 287 420 287 493.5 186.5 c 128,-1,3
 567 86 567 86 707 86 c 0,4,5
 848 86 848 86 920.5 199 c 128,-1,6
 993 312 993 312 993 532 c 0,7,8
 993 753 993 753 920.5 865 c 128,-1,9
 848 977 848 977 707 977 c 0,10,11
 567 977 567 977 493.5 876 c 128,-1,12
 420 775 420 775 420 584 c 2,0,-1
236 1450 m 1,13,-1
 59 1450 l 1,14,-1
 59 1556 l 1,15,-1
 420 1556 l 1,16,-1
 420 897 l 1,17,18
 474 997 474 997 557.5 1044.5 c 128,-1,19
 641 1092 641 1092 764 1092 c 0,20,21
 960 1092 960 1092 1084 937 c 128,-1,22
 1208 782 1208 782 1208 532 c 0,23,24
 1208 282 1208 282 1084 126.5 c 128,-1,25
 960 -29 960 -29 764 -29 c 0,26,27
 641 -29 641 -29 557.5 18.5 c 128,-1,28
 474 66 474 66 420 166 c 1,29,-1
 420 -319 l 1,30,-1
 594 -319 l 1,31,-1
 594 -426 l 1,32,-1
 59 -426 l 1,33,-1
 59 -319 l 1,34,-1
 236 -319 l 1,35,-1
 236 1450 l 1,13,-1
EndSplineSet
EndChar
StartChar: dcroat
Encoding: 273 273 273
Width: 1311
Flags: W
LayerCount: 2
Fore
SplineSet
1075 106 m 1,0,-1
 1251 106 l 1,1,-1
 1251 0 l 1,2,-1
 891 0 l 1,3,-1
 891 166 l 1,4,5
 837 66 837 66 753.5 18.5 c 128,-1,6
 670 -29 670 -29 547 -29 c 0,7,8
 351 -29 351 -29 226.5 126.5 c 128,-1,9
 102 282 102 282 102 532 c 0,10,11
 102 782 102 782 226 937 c 128,-1,12
 350 1092 350 1092 547 1092 c 0,13,14
 670 1092 670 1092 753.5 1044.5 c 128,-1,15
 837 997 837 997 891 897 c 1,16,-1
 891 1227 l 1,17,-1
 565 1227 l 1,18,-1
 565 1333 l 1,19,-1
 891 1333 l 1,20,-1
 891 1450 l 1,21,-1
 717 1450 l 1,22,-1
 717 1556 l 1,23,-1
 1075 1556 l 1,24,-1
 1075 1333 l 1,25,-1
 1251 1333 l 1,26,-1
 1251 1227 l 1,27,-1
 1075 1227 l 1,28,-1
 1075 106 l 1,0,-1
891 479 m 2,29,-1
 891 584 l 2,30,31
 891 775 891 775 817.5 876 c 128,-1,32
 744 977 744 977 604 977 c 0,33,34
 462 977 462 977 389.5 865 c 128,-1,35
 317 753 317 753 317 532 c 0,36,37
 317 312 317 312 389.5 199 c 128,-1,38
 462 86 462 86 604 86 c 0,39,40
 744 86 744 86 817.5 186.5 c 128,-1,41
 891 287 891 287 891 479 c 2,29,-1
EndSplineSet
EndChar
StartChar: Hbar
Encoding: 294 294 294
Width: 1786
Flags: W
LayerCount: 2
Fore
SplineSet
506 870 m 1,0,-1
 1280 870 l 1,1,-1
 1280 1067 l 1,2,-1
 506 1067 l 1,3,-1
 506 870 l 1,0,-1
113 0 m 1,4,-1
 113 106 l 1,5,-1
 303 106 l 1,6,-1
 303 1067 l 1,7,-1
 113 1067 l 1,8,-1
 113 1189 l 1,9,-1
 303 1189 l 1,10,-1
 303 1386 l 1,11,-1
 113 1386 l 1,12,-1
 113 1493 l 1,13,-1
 696 1493 l 1,14,-1
 696 1386 l 1,15,-1
 506 1386 l 1,16,-1
 506 1189 l 1,17,-1
 1280 1189 l 1,18,-1
 1280 1386 l 1,19,-1
 1090 1386 l 1,20,-1
 1090 1493 l 1,21,-1
 1673 1493 l 1,22,-1
 1673 1386 l 1,23,-1
 1483 1386 l 1,24,-1
 1483 1189 l 1,25,-1
 1673 1189 l 1,26,-1
 1673 1067 l 1,27,-1
 1483 1067 l 1,28,-1
 1483 106 l 1,29,-1
 1673 106 l 1,30,-1
 1673 0 l 1,31,-1
 1090 0 l 1,32,-1
 1090 106 l 1,33,-1
 1280 106 l 1,34,-1
 1280 748 l 1,35,-1
 506 748 l 1,36,-1
 506 106 l 1,37,-1
 696 106 l 1,38,-1
 696 0 l 1,39,-1
 113 0 l 1,4,-1
EndSplineSet
EndChar
StartChar: hbar
Encoding: 295 295 295
Width: 1319
Flags: W
LayerCount: 2
Fore
SplineSet
84 0 m 1,0,-1
 84 106 l 1,1,-1
 250 106 l 1,2,-1
 250 1210 l 1,3,-1
 74 1210 l 1,4,-1
 74 1332 l 1,5,-1
 250 1332 l 1,6,-1
 250 1450 l 1,7,-1
 74 1450 l 1,8,-1
 74 1556 l 1,9,-1
 434 1556 l 1,10,-1
 434 1332 l 1,11,-1
 750 1332 l 1,12,-1
 750 1210 l 1,13,-1
 434 1210 l 1,14,-1
 434 874 l 1,15,16
 485 982 485 982 566.5 1037 c 128,-1,17
 648 1092 648 1092 756 1092 c 0,18,19
 932 1092 932 1092 1015 991 c 128,-1,20
 1098 890 1098 890 1098 676 c 2,21,-1
 1098 106 l 1,22,-1
 1262 106 l 1,23,-1
 1262 0 l 1,24,-1
 754 0 l 1,25,-1
 754 106 l 1,26,-1
 913 106 l 1,27,-1
 913 618 l 2,28,29
 913 813 913 813 865.5 884.5 c 128,-1,30
 818 956 818 956 696 956 c 0,31,32
 568 956 568 956 501 863 c 128,-1,33
 434 770 434 770 434 592 c 2,34,-1
 434 106 l 1,35,-1
 594 106 l 1,36,-1
 594 0 l 1,37,-1
 84 0 l 1,0,-1
EndSplineSet
EndChar
StartChar: dotlessi
Encoding: 305 305 305
Width: 655
Flags: W
AnchorPoint: "below" 328 0 basechar 0
AnchorPoint: "above" 328 1092 basechar 0
LayerCount: 2
Fore
SplineSet
434 106 m 1,0,-1
 608 106 l 1,1,-1
 608 0 l 1,2,-1
 74 0 l 1,3,-1
 74 106 l 1,4,-1
 250 106 l 1,5,-1
 250 956 l 1,6,-1
 74 956 l 1,7,-1
 74 1063 l 1,8,-1
 434 1063 l 1,9,-1
 434 106 l 1,0,-1
EndSplineSet
EndChar
StartChar: kgreenlandic
Encoding: 312 312 312
Width: 1241
Flags: W
LayerCount: 2
Fore
SplineSet
586 0 m 1,0,-1
 70 0 l 1,1,-1
 70 106 l 1,2,-1
 236 106 l 1,3,-1
 236 953 l 1,4,-1
 59 953 l 1,5,-1
 59 1060 l 1,6,-1
 420 1060 l 1,7,-1
 420 541 l 1,8,-1
 868 953 l 1,9,-1
 715 953 l 1,10,-1
 715 1060 l 1,11,-1
 1196 1060 l 1,12,-1
 1196 953 l 1,13,-1
 1014 953 l 1,14,-1
 698 662 l 1,15,-1
 1102 106 l 1,16,-1
 1255 106 l 1,17,-1
 1255 0 l 1,18,-1
 731 0 l 1,19,-1
 731 106 l 1,20,-1
 883 106 l 1,21,-1
 565 541 l 1,22,-1
 420 406 l 1,23,-1
 420 106 l 1,24,-1
 586 106 l 1,25,-1
 586 0 l 1,0,-1
EndSplineSet
EndChar
StartChar: Lslash
Encoding: 321 321 321
Width: 1370
Flags: W
LayerCount: 2
Fore
SplineSet
123 0 m 1,0,-1
 123 106 l 1,1,-1
 313 106 l 1,2,-1
 313 586 l 1,3,-1
 156 473 l 1,4,-1
 86 565 l 1,5,-1
 313 727 l 1,6,-1
 313 1386 l 1,7,-1
 123 1386 l 1,8,-1
 123 1493 l 1,9,-1
 705 1493 l 1,10,-1
 705 1386 l 1,11,-1
 514 1386 l 1,12,-1
 514 870 l 1,13,-1
 821 1096 l 1,14,-1
 891 1004 l 1,15,-1
 514 729 l 1,16,-1
 514 123 l 1,17,-1
 1198 123 l 1,18,-1
 1198 373 l 1,19,-1
 1321 373 l 1,20,-1
 1321 0 l 1,21,-1
 123 0 l 1,0,-1
EndSplineSet
EndChar
StartChar: lslash
Encoding: 322 322 322
Width: 664
Flags: W
LayerCount: 2
Fore
SplineSet
428 106 m 1,0,-1
 604 106 l 1,1,-1
 604 0 l 1,2,-1
 70 0 l 1,3,-1
 70 106 l 1,4,-1
 244 106 l 1,5,-1
 244 680 l 1,6,-1
 106 584 l 1,7,-1
 45 670 l 1,8,-1
 244 811 l 1,9,-1
 244 1450 l 1,10,-1
 70 1450 l 1,11,-1
 70 1556 l 1,12,-1
 428 1556 l 1,13,-1
 428 940 l 1,14,-1
 575 1038 l 1,15,-1
 635 952 l 1,16,-1
 428 811 l 1,17,-1
 428 106 l 1,0,-1
EndSplineSet
EndChar
StartChar: Eng
Encoding: 330 330 330
Width: 1726
Flags: W
LayerCount: 2
Fore
SplineSet
96 0 m 1,0,-1
 96 107 l 1,1,-1
 287 107 l 1,2,-1
 287 1386 l 1,3,-1
 111 1386 l 1,4,-1
 111 1493 l 1,5,-1
 490 1493 l 1,6,-1
 490 1292 l 1,7,8
 564 1406 564 1406 681 1464 c 128,-1,9
 798 1522 798 1522 953 1522 c 0,10,11
 1206 1522 1206 1522 1325 1376.5 c 128,-1,12
 1444 1231 1444 1231 1444 922 c 2,13,-1
 1444 41 l 2,14,15
 1444 -206 1444 -206 1345 -316 c 128,-1,16
 1246 -426 1246 -426 1026 -426 c 0,17,18
 955 -426 955 -426 881.5 -409 c 128,-1,19
 808 -392 808 -392 735 -358 c 1,20,-1
 735 -123 l 1,21,-1
 847 -123 l 1,22,23
 847 -222 847 -222 892.5 -270.5 c 128,-1,24
 938 -319 938 -319 1026 -319 c 0,25,26
 1143 -319 1143 -319 1192 -244 c 0,27,28
 1239 -171 1239 -171 1239 49 c 2,29,-1
 1239 881 l 2,30,31
 1239 1173 1239 1173 1164 1282 c 128,-1,32
 1089 1391 1089 1391 899 1391 c 0,33,34
 699 1391 699 1391 594.5 1262.5 c 128,-1,35
 490 1134 490 1134 490 887 c 2,36,-1
 490 107 l 1,37,-1
 680 107 l 1,38,-1
 680 0 l 1,39,-1
 96 0 l 1,0,-1
EndSplineSet
AlternateSubs2: "'aalt' Access All Alternates" Eng.alt Eng.alt2
Substitution2: "'locl' Localized Forms in Latin - Sami" Eng.alt
EndChar
StartChar: eng
Encoding: 331 331 331
Width: 1319
Flags: W
AnchorPoint: "above" 594 1092 basechar 0
LayerCount: 2
Fore
SplineSet
84 0 m 1,0,-1
 84 106 l 1,1,-1
 250 106 l 1,2,-1
 250 956 l 1,3,-1
 74 956 l 1,4,-1
 74 1063 l 1,5,-1
 434 1063 l 1,6,-1
 434 874 l 1,7,8
 485 982 485 982 566.5 1037 c 128,-1,9
 648 1092 648 1092 756 1092 c 0,10,11
 930 1092 930 1092 1015 991 c 0,12,13
 1098 892.5 1098 892.5 1098 676 c 2,14,-1
 1098 -104 l 2,15,16
 1098 -268 1098 -268 1000.5 -361.5 c 128,-1,17
 903 -455 903 -455 732 -455 c 0,18,19
 660 -455 660 -455 594.5 -438.5 c 128,-1,20
 529 -422 529 -422 467 -389 c 1,21,-1
 467 -170 l 1,22,-1
 562 -170 l 1,23,24
 569 -266 569 -266 611.5 -311 c 128,-1,25
 654 -356 654 -356 736 -356 c 0,26,27
 827 -356 827 -356 870.5 -294.5 c 0,28,29
 913 -234.5 913 -234.5 913 -104 c 2,30,-1
 913 618 l 2,31,32
 913 813 913 813 865 885.5 c 128,-1,33
 817 958 817 958 696 958 c 0,34,35
 568 958 568 958 501 864.5 c 128,-1,36
 434 771 434 771 434 592 c 2,37,-1
 434 106 l 1,38,-1
 594 106 l 1,39,-1
 594 0 l 1,40,-1
 84 0 l 1,0,-1
EndSplineSet
EndChar
StartChar: OE
Encoding: 338 338 338
Width: 2329
Flags: W
AnchorPoint: "above" 1243 1459 basechar 0
AnchorPoint: "below" 1243 -6 basechar 0
LayerCount: 2
Fore
SplineSet
1137 106 m 1,0,-1
 1137 1386 l 1,1,-1
 950 1386 l 2,2,3
 658 1386 658 1386 503 1222 c 128,-1,4
 348 1058 348 1058 348 750 c 0,5,6
 348 439 348 439 503.5 272.5 c 128,-1,7
 659 106 659 106 950 106 c 2,8,-1
 1137 106 l 1,0,-1
2165 0 m 1,9,-1
 936 0 l 2,10,11
 551 0 551 0 335 198 c 128,-1,12
 119 396 119 396 119 750 c 0,13,14
 119 1101 119 1101 334.5 1297 c 128,-1,15
 550 1493 550 1493 936 1493 c 2,16,-1
 2148 1493 l 1,17,-1
 2148 1161 l 1,18,-1
 2025 1161 l 1,19,-1
 2025 1370 l 1,20,-1
 1339 1370 l 1,21,-1
 1339 870 l 1,22,-1
 1831 870 l 1,23,-1
 1831 1057 l 1,24,-1
 1952 1057 l 1,25,-1
 1952 561 l 1,26,-1
 1831 561 l 1,27,-1
 1831 748 l 1,28,-1
 1339 748 l 1,29,-1
 1339 123 l 1,30,-1
 2042 123 l 1,31,-1
 2042 332 l 1,32,-1
 2165 332 l 1,33,-1
 2165 0 l 1,9,-1
EndSplineSet
EndChar
StartChar: oe
Encoding: 339 339 339
Width: 2025
Flags: W
AnchorPoint: "above" 1026 1092 basechar 0
AnchorPoint: "below" 1026 0 basechar 0
LayerCount: 2
Fore
SplineSet
616 70 m 0,0,1
 764 70 764 70 839.5 187 c 128,-1,2
 915 304 915 304 915 532 c 0,3,4
 915 760 915 760 839.5 876.5 c 128,-1,5
 764 993 764 993 616 993 c 0,6,7
 468 993 468 993 392.5 876.5 c 128,-1,8
 317 760 317 760 317 532 c 0,9,10
 317 304 317 304 393 187 c 128,-1,11
 469 70 469 70 616 70 c 0,0,1
1923 512 m 1,12,-1
 1130 512 l 1,13,-1
 1130 504 l 2,14,15
 1130 289 1130 289 1211 179.5 c 128,-1,16
 1292 70 1292 70 1450 70 c 0,17,18
 1571 70 1571 70 1648.5 133.5 c 128,-1,19
 1726 197 1726 197 1757 322 c 1,20,-1
 1905 322 l 1,21,22
 1861 147 1861 147 1742.5 59 c 128,-1,23
 1624 -29 1624 -29 1432 -29 c 0,24,25
 1302 -29 1302 -29 1198.5 20 c 128,-1,26
 1095 69 1095 69 1022 166 c 1,27,28
 953 70 953 70 849.5 20.5 c 128,-1,29
 746 -29 746 -29 616 -29 c 0,30,31
 384 -29 384 -29 243 124.5 c 128,-1,32
 102 278 102 278 102 532 c 0,33,34
 102 786 102 786 242.5 939 c 128,-1,35
 383 1092 383 1092 616 1092 c 0,36,37
 748 1092 748 1092 851 1042.5 c 128,-1,38
 954 993 954 993 1024 897 c 1,39,40
 1097 993 1097 993 1197 1042.5 c 128,-1,41
 1297 1092 1297 1092 1419 1092 c 0,42,43
 1661 1092 1661 1092 1789.5 943.5 c 128,-1,44
 1918 795 1918 795 1923 512 c 1,12,-1
1706 618 m 1,45,46
 1700 804 1700 804 1627.5 898.5 c 128,-1,47
 1555 993 1555 993 1419 993 c 0,48,49
 1292 993 1292 993 1219 898 c 128,-1,50
 1146 803 1146 803 1130 618 c 1,51,-1
 1706 618 l 1,45,46
EndSplineSet
EndChar
StartChar: Tbar
Encoding: 358 358 358
Width: 1366
Flags: W
AnchorPoint: "above" 677 1465 basechar 0
AnchorPoint: "below" 677 0 basechar 0
LayerCount: 2
Fore
SplineSet
391 0 m 1,0,-1
 391 106 l 1,1,-1
 582 106 l 1,2,-1
 582 719 l 1,3,-1
 246 719 l 1,4,-1
 246 844 l 1,5,-1
 582 844 l 1,6,-1
 582 1374 l 1,7,-1
 143 1374 l 1,8,-1
 143 1141 l 1,9,-1
 20 1141 l 1,10,-1
 20 1493 l 1,11,-1
 1346 1493 l 1,12,-1
 1346 1141 l 1,13,-1
 1223 1141 l 1,14,-1
 1223 1374 l 1,15,-1
 784 1374 l 1,16,-1
 784 844 l 1,17,-1
 1120 844 l 1,18,-1
 1120 719 l 1,19,-1
 784 719 l 1,20,-1
 784 106 l 1,21,-1
 975 106 l 1,22,-1
 975 0 l 1,23,-1
 391 0 l 1,0,-1
EndSplineSet
EndChar
StartChar: tbar
Encoding: 359 359 359
Width: 823
Flags: W
AnchorPoint: "above" 313 1536 basechar 0
AnchorPoint: "below" 514 0 basechar 0
LayerCount: 2
Fore
SplineSet
221 281 m 2,0,-1
 221 616 l 1,1,-1
 59 616 l 1,2,-1
 59 723 l 1,3,-1
 221 723 l 1,4,-1
 221 956 l 1,5,-1
 59 956 l 1,6,-1
 59 1063 l 1,7,-1
 221 1063 l 1,8,-1
 221 1393 l 1,9,-1
 406 1393 l 1,10,-1
 406 1063 l 1,11,-1
 752 1063 l 1,12,-1
 752 956 l 1,13,-1
 406 956 l 1,14,-1
 406 723 l 1,15,-1
 752 723 l 1,16,-1
 752 616 l 1,17,-1
 406 616 l 1,18,-1
 406 281 l 2,19,20
 406 146 406 146 432 108 c 128,-1,21
 458 70 458 70 528 70 c 0,22,23
 600 70 600 70 633 112.5 c 128,-1,24
 666 155 666 155 668 250 c 1,25,-1
 807 250 l 1,26,27
 799 105 799 105 728 38 c 128,-1,28
 657 -29 657 -29 512 -29 c 0,29,30
 353 -29 353 -29 287 41.5 c 128,-1,31
 221 112 221 112 221 281 c 2,0,-1
EndSplineSet
EndChar
StartChar: longs
Encoding: 383 383 383
Width: 758
Flags: W
AnchorPoint: "above" 565 1536 basechar 0
AnchorPoint: "below" 342 0 basechar 0
LayerCount: 2
Fore
SplineSet
434 106 m 1,0,-1
 670 106 l 1,1,-1
 670 0 l 1,2,-1
 74 0 l 1,3,-1
 74 106 l 1,4,-1
 250 106 l 1,5,-1
 250 956 l 1,6,-1
 74 956 l 1,7,-1
 74 1063 l 1,8,-1
 250 1063 l 1,9,-1
 250 1196 l 2,10,11
 250 1374 250 1374 342.5 1465 c 128,-1,12
 435 1556 435 1556 614 1556 c 0,13,14
 681 1556 681 1556 748 1544 c 128,-1,15
 815 1532 815 1532 881 1507 c 1,16,-1
 881 1305 l 1,17,-1
 784 1305 l 1,18,19
 783 1380 783 1380 741.5 1419 c 128,-1,20
 700 1458 700 1458 621 1458 c 0,21,22
 518 1458 518 1458 476 1401.5 c 0,23,24
 434 1343.2 434 1343.2 434 1200 c 2,25,-1
 434 106 l 1,0,-1
EndSplineSet
EndChar
StartChar: uni0180
Encoding: 384 384 384
Width: 1311
Flags: W
AnchorPoint: "below" 729 10 basechar 0
AnchorPoint: "above" 328 1536 basechar 0
LayerCount: 2
Fore
SplineSet
236 106 m 1,0,-1
 236 1210 l 1,1,-1
 60 1210 l 1,2,-1
 60 1332 l 1,3,-1
 236 1332 l 1,4,-1
 236 1450 l 1,5,-1
 60 1450 l 1,6,-1
 60 1556 l 1,7,-1
 420 1556 l 1,8,-1
 420 1332 l 1,9,-1
 736 1332 l 1,10,-1
 736 1210 l 1,11,-1
 420 1210 l 1,12,-1
 420 897 l 1,13,14
 474 997 474 997 557.5 1044.5 c 128,-1,15
 641 1092 641 1092 764 1092 c 0,16,17
 960 1092 960 1092 1084 937 c 128,-1,18
 1208 782 1208 782 1208 532 c 0,19,20
 1208 282 1208 282 1084 126.5 c 128,-1,21
 960 -29 960 -29 764 -29 c 0,22,23
 641 -29 641 -29 557.5 18.5 c 128,-1,24
 474 66 474 66 420 166 c 1,25,-1
 420 0 l 1,26,-1
 59 0 l 1,27,-1
 59 106 l 1,28,-1
 236 106 l 1,0,-1
420 479 m 2,29,30
 420 287 420 287 493.5 186.5 c 128,-1,31
 567 86 567 86 707 86 c 0,32,33
 848 86 848 86 920.5 199 c 128,-1,34
 993 312 993 312 993 532 c 0,35,36
 993 753 993 753 920.5 865 c 128,-1,37
 848 977 848 977 707 977 c 0,38,39
 567 977 567 977 493.5 876 c 128,-1,40
 420 775 420 775 420 584 c 2,41,-1
 420 479 l 2,29,30
EndSplineSet
EndChar
StartChar: uni0181
Encoding: 385 385 385
Width: 1505
Flags: W
LayerCount: 2
Fore
SplineSet
303 1386 m 0,0,1
 76 1386 76 1386 8 1297 c 0,2,3
 -63 1206 -63 1206 -63 1020 c 1,4,-1
 -192 1020 l 1,5,-1
 -192 1364 l 1,6,7
 -90 1440 -90 1440 90 1476 c 0,8,9
 205 1493 205 1493 303 1493 c 2,10,-1
 850 1493 l 0,11,12
 1074 1493 1074 1493 1190 1400 c 0,13,14
 1305 1308 1305 1308 1305 1124 c 0,15,16
 1305 991 1305 991 1226 912 c 0,17,18
 1146 833 1146 833 993 815 c 1,19,20
 1185 791 1185 791 1282 694 c 0,21,22
 1380 596 1380 596 1380 432 c 0,23,24
 1380 210 1380 210 1240 105 c 128,-1,25
 1100 0 1100 0 803 0 c 2,26,-1
 113 0 l 1,27,-1
 113 106 l 1,28,-1
 303 106 l 1,29,-1
 303 1386 l 0,0,1
506 862 m 1,30,-1
 760 862 l 2,31,32
 924 862 924 862 1000 925 c 0,33,34
 1075 988 1075 988 1075 1124 c 0,35,36
 1075 1281 1075 1281 1000 1324 c 0,37,38
 893 1386 893 1386 760 1386 c 2,39,-1
 506 1386 l 1,40,-1
 506 862 l 1,30,-1
506 106 m 1,41,-1
 805 106 l 2,42,43
 985 106 985 106 1068 184 c 128,-1,44
 1151 262 1151 262 1151 432 c 0,45,46
 1151 599 1151 599 1068 678 c 0,47,48
 986 756 986 756 805 756 c 2,49,-1
 506 756 l 1,50,-1
 506 106 l 1,41,-1
EndSplineSet
EndChar
StartChar: uni0183
Encoding: 387 387 387
Width: 1311
Flags: W
LayerCount: 2
Fore
SplineSet
420 479 m 2,0,1
 420 287 420 287 494 186 c 0,2,3
 567 86 567 86 707 86 c 0,4,5
 848 86 848 86 920 199 c 0,6,7
 993 312 993 312 993 532 c 0,8,9
 993 753 993 753 920 865 c 0,10,11
 848 977 848 977 707 977 c 0,12,13
 567 977 567 977 494 876 c 0,14,15
 420 775 420 775 420 584 c 2,16,-1
 420 479 l 2,0,1
1012 1556 m 1,17,-1
 1012 1289 l 1,18,-1
 907 1289 l 1,19,-1
 907 1433 l 1,20,-1
 420 1433 l 1,21,-1
 420 897 l 1,22,23
 474 997 474 997 558 1044 c 0,24,25
 641 1092 641 1092 764 1092 c 0,26,27
 960 1092 960 1092 1084 937 c 0,28,29
 1208 782 1208 782 1208 532 c 0,30,31
 1208 282 1208 282 1084 126 c 0,32,33
 960 -29 960 -29 764 -29 c 0,34,35
 641 -29 641 -29 558 18 c 0,36,37
 474 66 474 66 420 166 c 1,38,-1
 420 0 l 1,39,-1
 59 0 l 1,40,-1
 59 106 l 1,41,-1
 236 106 l 1,42,-1
 236 1450 l 1,43,-1
 59 1450 l 1,44,-1
 59 1556 l 1,45,-1
 1012 1556 l 1,17,-1
EndSplineSet
EndChar
StartChar: uni0184
Encoding: 388 388 388
Width: 1505
Flags: W
LayerCount: 2
Fore
SplineSet
506 106 m 1,0,-1
 805 106 l 2,1,2
 985 106 985 106 1068 184 c 128,-1,3
 1151 262 1151 262 1151 432 c 0,4,5
 1151 601 1151 601 1068.5 678.5 c 128,-1,6
 986 756 986 756 805 756 c 2,7,-1
 506 756 l 1,8,-1
 506 106 l 1,0,-1
113 1098 m 1,9,-1
 506 1493 l 1,10,-1
 506 862 l 1,11,-1
 760 862 l 2,12,13
 1140 862 1140 862 1282 694 c 1,14,15
 1380 576 1380 576 1380 432 c 0,16,17
 1380 210 1380 210 1240 105 c 128,-1,18
 1100 0 1100 0 803 0 c 2,19,-1
 113 0 l 1,20,-1
 113 106 l 1,21,-1
 303 106 l 1,22,-1
 303 992 l 1,23,-1
 113 992 l 1,24,-1
 113 1098 l 1,9,-1
EndSplineSet
EndChar
StartChar: uni0185
Encoding: 389 389 389
Width: 1311
Flags: W
LayerCount: 2
Fore
SplineSet
420 479 m 2,0,1
 420 287 420 287 493.5 186.5 c 128,-1,2
 567 86 567 86 707 86 c 0,3,4
 848 86 848 86 920.5 199 c 128,-1,5
 993 312 993 312 993 532 c 0,6,7
 993 753 993 753 920.5 865 c 128,-1,8
 848 977 848 977 707 977 c 0,9,10
 567 977 567 977 493.5 876 c 128,-1,11
 420 775 420 775 420 584 c 2,12,-1
 420 479 l 2,0,1
420 1556 m 1,13,-1
 420 897 l 1,14,15
 474 997 474 997 557.5 1044.5 c 128,-1,16
 641 1092 641 1092 764 1092 c 0,17,18
 960 1092 960 1092 1084 937 c 128,-1,19
 1208 782 1208 782 1208 532 c 128,-1,20
 1208 282 1208 282 1084 126.5 c 128,-1,21
 960 -29 960 -29 764 -29 c 0,22,23
 641 -29 641 -29 557.5 18.5 c 128,-1,24
 474 66 474 66 420 166 c 1,25,-1
 420 0 l 1,26,-1
 59 0 l 1,27,-1
 59 106 l 1,28,-1
 236 106 l 1,29,-1
 236 1125 l 1,30,-1
 59 1125 l 1,31,-1
 59 1251 l 1,32,-1
 420 1556 l 1,13,-1
EndSplineSet
EndChar
StartChar: uni0186
Encoding: 390 390 390
Width: 1567
Flags: W
AnchorPoint: "above" 733 1465 basechar 0
LayerCount: 2
Fore
SplineSet
115 1096 m 1,0,1
 181 1305 181 1305 336.5 1412.5 c 128,-1,2
 492 1520 492 1520 730 1520 c 0,3,4
 876 1520 876 1520 1001 1470 c 128,-1,5
 1126 1420 1126 1420 1223 1323 c 0,6,7
 1335 1211 1335 1211 1389.5 1068.5 c 128,-1,8
 1444 926 1444 926 1444 746 c 0,9,10
 1444 398 1444 398 1243 184.5 c 128,-1,11
 1042 -29 1042 -29 713 -29 c 0,12,13
 591 -29 591 -29 453 3 c 128,-1,14
 315 35 315 35 156 100 c 1,15,-1
 156 444 l 1,16,-1
 269 444 l 1,17,18
 306 256 306 256 417.5 167 c 128,-1,19
 529 78 529 78 730 78 c 0,20,21
 969 78 969 78 1092 247.5 c 128,-1,22
 1215 417 1215 417 1215 746 c 0,23,24
 1215 1074 1215 1074 1092 1243.5 c 128,-1,25
 969 1413 969 1413 730 1413 c 0,26,27
 563 1413 563 1413 455 1333.5 c 128,-1,28
 347 1254 347 1254 299 1096 c 1,29,-1
 115 1096 l 1,0,1
EndSplineSet
EndChar
StartChar: uni0187
Encoding: 391 391 391
Width: 1567
Flags: W
AnchorPoint: "above" 829 1465 basechar 0
LayerCount: 2
Fore
SplineSet
1444 395 m 1,0,1
 1378 186 1378 186 1222 78 c 0,2,3
 1067 -29 1067 -29 829 -29 c 0,4,5
 683 -29 683 -29 558 21 c 0,6,7
 433 71 433 71 336 168 c 0,8,9
 224 280 224 280 170 422 c 0,10,11
 115 565 115 565 115 745 c 0,12,13
 115 1093 115 1093 316 1306 c 0,14,15
 517 1520 517 1520 846 1520 c 0,16,17
 968 1520 968 1520 1106 1488 c 0,18,19
 1205 1465 1205 1465 1314 1425 c 1,20,21
 1314 1512 1314 1512 1395 1570 c 0,22,23
 1470 1630 1470 1630 1584 1630 c 0,24,25
 1656 1630 1656 1630 1722 1614 c 0,26,27
 1787 1597 1787 1597 1849 1564 c 1,28,-1
 1849 1345 l 1,29,-1
 1754 1345 l 1,30,31
 1754 1441 1754 1441 1704 1486 c 0,32,33
 1662 1531 1662 1531 1580 1531 c 0,34,35
 1489 1531 1489 1531 1446 1470 c 0,36,37
 1403 1409 1403 1409 1403 1279 c 2,38,-1
 1403 1047 l 1,39,-1
 1290 1047 l 1,40,41
 1253 1235 1253 1235 1142 1324 c 0,42,43
 1030 1413 1030 1413 829 1413 c 0,44,45
 590 1413 590 1413 467 1244 c 0,46,47
 344 1074 344 1074 344 745 c 0,48,49
 344 417 344 417 467 248 c 0,50,51
 590 78 590 78 829 78 c 0,52,53
 996 78 996 78 1104 158 c 0,54,55
 1212 237 1212 237 1260 395 c 1,56,-1
 1444 395 l 1,0,1
EndSplineSet
EndChar
StartChar: uni0188
Encoding: 392 392 392
Width: 1147
Flags: W
AnchorPoint: "above" 616 1092 basechar 0
LayerCount: 2
Fore
SplineSet
1053 319 m 1,0,1
 1014 149 1014 149 903 60 c 0,2,3
 792 -29 792 -29 616 -29 c 0,4,5
 384 -29 384 -29 243 124 c 0,6,7
 102 278 102 278 102 532 c 0,8,9
 102 787 102 787 243 940 c 0,10,11
 384 1092 384 1092 616 1092 c 0,12,13
 717 1092 717 1092 817 1068 c 0,14,15
 866 1057 866 1057 916 1039 c 1,16,17
 933 1183 933 1183 1015 1255 c 0,18,19
 1075 1308 1075 1308 1199 1308 c 0,20,21
 1271 1308 1271 1308 1336 1292 c 0,22,23
 1402 1275 1402 1275 1464 1242 c 1,24,-1
 1464 1023 l 1,25,-1
 1369 1023 l 1,26,27
 1369 1119 1369 1119 1320 1164 c 0,28,29
 1277 1209 1277 1209 1195 1209 c 0,30,31
 1104 1209 1104 1209 1060 1148 c 0,32,33
 1018 1087 1018 1087 1018 957 c 2,34,-1
 1018 725 l 1,35,-1
 911 725 l 1,36,37
 890 865 890 865 820 929 c 0,38,39
 749 993 749 993 618 993 c 0,40,41
 469 993 469 993 393 878 c 0,42,43
 317 762 317 762 317 532 c 0,44,45
 317 302 317 302 392 186 c 0,46,47
 468 70 468 70 618 70 c 0,48,49
 737 70 737 70 808 132 c 0,50,51
 879 194 879 194 905 319 c 1,52,-1
 1053 319 l 1,0,1
EndSplineSet
EndChar
StartChar: uni018A
Encoding: 394 394 394
Width: 1642
Flags: W
AnchorPoint: "above" 743 1465 basechar 0
LayerCount: 2
Fore
SplineSet
303 1386 m 0,0,1
 76 1386 76 1386 8 1297 c 0,2,3
 -63 1206 -63 1206 -63 1020 c 1,4,-1
 -192 1020 l 1,5,-1
 -192 1364 l 1,6,7
 -54 1467 -54 1467 90 1476 c 0,8,9
 184 1493 184 1493 303 1493 c 2,10,-1
 707 1493 l 2,11,12
 1093 1493 1093 1493 1308 1296 c 0,13,14
 1524 1099 1524 1099 1524 748 c 0,15,16
 1524 396 1524 396 1308 198 c 128,-1,17
 1092 0 1092 0 707 0 c 2,18,-1
 113 0 l 1,19,-1
 113 106 l 1,20,-1
 303 106 l 1,21,-1
 303 1386 l 0,0,1
506 106 m 1,22,-1
 692 106 l 2,23,24
 983 106 983 106 1138 272 c 0,25,26
 1294 438 1294 438 1294 748 c 128,-1,27
 1294 1058 1294 1058 1139 1222 c 128,-1,28
 984 1386 984 1386 692 1386 c 2,29,-1
 506 1386 l 1,30,-1
 506 106 l 1,22,-1
EndSplineSet
EndChar
StartChar: uni018B
Encoding: 395 395 395
Width: 1505
Flags: W
LayerCount: 2
Fore
SplineSet
987 106 m 1,0,-1
 987 756 l 1,1,-1
 688 756 l 2,2,3
 507 756 507 756 424 678 c 0,4,5
 342 601 342 601 342 432 c 0,6,7
 342 262 342 262 425 184 c 128,-1,8
 508 106 508 106 688 106 c 2,9,-1
 987 106 l 1,0,-1
1380 1493 m 1,10,-1
 1380 1386 l 1,11,-1
 1190 1386 l 1,12,-1
 1190 106 l 1,13,-1
 1380 106 l 1,14,-1
 1380 0 l 1,15,-1
 690 0 l 2,16,17
 393 0 393 0 253 105 c 128,-1,18
 113 210 113 210 113 432 c 0,19,20
 113 576 113 576 211 694 c 1,21,22
 353 862 353 862 733 862 c 2,23,-1
 987 862 l 1,24,-1
 987 1370 l 1,25,-1
 302 1370 l 1,26,-1
 302 1161 l 1,27,-1
 179 1161 l 1,28,-1
 179 1493 l 1,29,-1
 1380 1493 l 1,10,-1
EndSplineSet
EndChar
StartChar: uni018C
Encoding: 396 396 396
Width: 1311
Flags: W
LayerCount: 2
Fore
SplineSet
847 479 m 2,0,-1
 847 584 l 2,1,2
 847 775 847 775 774 876 c 0,3,4
 700 977 700 977 560 977 c 0,5,6
 419 977 419 977 346 865 c 0,7,8
 274 753 274 753 274 532 c 0,9,10
 274 312 274 312 346 199 c 0,11,12
 419 86 419 86 560 86 c 0,13,14
 700 86 700 86 774 186 c 0,15,16
 847 287 847 287 847 479 c 2,0,-1
255 1556 m 1,17,-1
 1208 1556 l 1,18,-1
 1208 1450 l 1,19,-1
 1031 1450 l 1,20,-1
 1031 106 l 1,21,-1
 1208 106 l 1,22,-1
 1208 0 l 1,23,-1
 847 0 l 1,24,-1
 847 166 l 1,25,26
 793 66 793 66 710 18 c 0,27,28
 626 -29 626 -29 503 -29 c 0,29,30
 307 -29 307 -29 183 126 c 0,31,32
 59 282 59 282 59 532 c 0,33,34
 59 782 59 782 183 937 c 0,35,36
 307 1092 307 1092 503 1092 c 0,37,38
 626 1092 626 1092 710 1044 c 0,39,40
 793 997 793 997 847 897 c 1,41,-1
 847 1433 l 1,42,-1
 360 1433 l 1,43,-1
 360 1289 l 1,44,-1
 255 1289 l 1,45,-1
 255 1556 l 1,17,-1
EndSplineSet
EndChar
StartChar: uni018D
Encoding: 397 397 397
Width: 1233
Flags: W
LayerCount: 2
Fore
SplineSet
866 27 m 1,0,1
 932 2 932 2 965 -47 c 0,2,3
 1003 -103 1003 -103 1003 -240 c 0,4,5
 1003 -369 1003 -369 905 -437 c 0,6,7
 807 -504 807 -504 611 -504 c 0,8,9
 557 -504 557 -504 453 -488 c 0,10,11
 349 -471 349 -471 237 -440 c 1,12,-1
 237 -243 l 1,13,-1
 345 -218 l 1,14,15
 357 -307 357 -307 429 -353 c 0,16,17
 501 -398 501 -398 595 -398 c 128,-1,18
 689 -398 689 -398 758 -349 c 0,19,20
 831 -297 831 -297 828 -231 c 0,21,22
 828 -136 828 -136 791 -104 c 0,23,24
 714 -29 714 -29 616 -29 c 16,25,26
 383 -29 383 -29 242 124 c 0,27,28
 102 277 102 277 102 531 c 128,-1,29
 102 785 102 785 242 938 c 0,30,31
 383 1092 383 1092 616 1092 c 0,32,33
 848 1092 848 1092 989 938 c 0,34,35
 1130 785 1130 785 1130 531 c 128,-1,36
 1130 277 1130 277 990 124 c 0,37,38
 927 57 927 57 866 27 c 1,0,1
616 993 m 0,39,40
 468 993 468 993 392 876 c 0,41,42
 317 759 317 759 317 531 c 128,-1,43
 317 303 317 303 392 186 c 0,44,45
 468 70 468 70 616 70 c 128,-1,46
 764 70 764 70 840 186 c 0,47,48
 915 303 915 303 915 531 c 128,-1,49
 915 759 915 759 839 876 c 128,-1,50
 763 993 763 993 616 993 c 0,39,40
EndSplineSet
EndChar
StartChar: uni018E
Encoding: 398 398 398
Width: 1495
Flags: W
AnchorPoint: "above" 696 1465 basechar 0
LayerCount: 2
Fore
SplineSet
1331 0 m 1,0,-1
 113 0 l 1,1,-1
 113 332 l 1,2,-1
 236 332 l 1,3,-1
 236 123 l 1,4,-1
 938 123 l 1,5,-1
 938 748 l 1,6,-1
 449 748 l 1,7,-1
 449 561 l 1,8,-1
 326 561 l 1,9,-1
 326 1057 l 1,10,-1
 449 1057 l 1,11,-1
 449 870 l 1,12,-1
 938 870 l 1,13,-1
 938 1370 l 1,14,-1
 252 1370 l 1,15,-1
 252 1161 l 1,16,-1
 129 1161 l 1,17,-1
 129 1493 l 1,18,-1
 1331 1493 l 1,19,-1
 1331 1386 l 1,20,-1
 1141 1386 l 1,21,-1
 1141 106 l 1,22,-1
 1331 106 l 1,23,-1
 1331 0 l 1,0,-1
EndSplineSet
EndChar
StartChar: uni018F
Encoding: 399 399 399
Width: 1679
Flags: W
AnchorPoint: "above" 840 1465 basechar 0
AnchorPoint: "below" 840 0 basechar 0
LayerCount: 2
Fore
SplineSet
851 1413 m 24,0,1
 673 1413 673 1413 565 1334 c 0,2,3
 457 1254 457 1254 409 1096 c 1,4,-1
 225 1096 l 1,5,6
 291 1305 291 1305 446 1412 c 0,7,8
 602 1520 602 1520 840 1520 c 24,9,10
 1165 1520 1165 1520 1365 1307 c 128,-1,11
 1565 1094 1565 1094 1565 745 c 0,12,13
 1565 566 1565 566 1510 422 c 0,14,15
 1455 280 1455 280 1343 168 c 0,16,17
 1244 70 1244 70 1119 20 c 0,18,19
 993 -29 993 -29 840 -29 c 0,20,21
 688 -29 688 -29 560 21 c 0,22,23
 433 71 433 71 336 168 c 0,24,25
 224 280 224 280 170 422 c 0,26,27
 115 564 115 564 115 745 c 2,28,-1
 115 816 l 1,29,-1
 1333 816 l 1,30,31
 1333 1095 1333 1095 1210 1244 c 0,32,33
 1085 1413 1085 1413 851 1413 c 24,0,1
1334 694 m 1,34,-1
 345 694 l 1,35,36
 345 402 345 402 469 246 c 0,37,38
 594 78 594 78 840 78 c 0,39,40
 1085 78 1085 78 1210 246 c 0,41,42
 1334 402 1334 402 1334 694 c 1,34,-1
EndSplineSet
EndChar
StartChar: uni0190
Encoding: 400 400 400
Width: 1276
Flags: W
AnchorPoint: "below" 670 0 basechar 0
AnchorPoint: "above" 670 1465 basechar 0
LayerCount: 2
Fore
SplineSet
1147 1430 m 1,0,-1
 1147 1167 l 1,1,-1
 1035 1167 l 1,2,3
 1022 1293 1022 1293 947.5 1357 c 128,-1,4
 873 1421 873 1421 703 1421 c 0,5,6
 533 1421 533 1421 461 1351.5 c 128,-1,7
 389 1282 389 1282 389 1143.5 c 0,8,9
 389 1005 389 1005 475.293 933.5 c 128,-1,10
 561.586 862 561.586 862 780 862 c 2,11,-1
 830 862 l 1,12,-1
 830 756 l 1,13,-1
 735 756 l 2,14,15
 515.989 756 515.989 756 425.994 666.5 c 128,-1,16
 336 577 336 577 336 412 c 0,17,18
 336 247 336 247 424.5 158.5 c 128,-1,19
 513 70 513 70 649.566 70 c 0,20,21
 786.132 70 786.132 70 879.932 139.048 c 128,-1,22
 973.733 208.095 973.733 208.095 981 265 c 1,23,-1
 1165 265 l 1,24,25
 1127.42 160.022 1127.42 160.022 1006.94 65.5107 c 128,-1,26
 886.469 -29 886.469 -29 646.234 -29 c 0,27,28
 406 -29 406 -29 265.5 82.5 c 128,-1,29
 125 194 125 194 125 403 c 0,30,31
 125 574 125 574 226.5 681.5 c 128,-1,32
 328 789 328 789 512 815 c 1,33,34
 356 847 356 847 271 937.5 c 128,-1,35
 186 1028 186 1028 186 1163 c 0,36,37
 186 1331 186 1331 309 1425.5 c 128,-1,38
 432 1520 432 1520 701 1520 c 0,39,40
 907.682 1520 907.682 1520 1147 1430 c 1,0,-1
EndSplineSet
EndChar
StartChar: uni0191
Encoding: 401 401 401
Width: 1421
Flags: W
LayerCount: 2
Fore
SplineSet
88 -426 m 0,0,1
 -57 -426 -57 -426 -203 -358 c 1,2,-1
 -203 -123 l 1,3,-1
 -89 -123 l 1,4,5
 -89 -319 -89 -319 90 -319 c 0,6,7
 209 -319 209 -319 256 -244 c 0,8,9
 304 -167 304 -167 303 49 c 2,10,-1
 303 1386 l 1,11,-1
 113 1386 l 1,12,-1
 113 1493 l 1,13,-1
 1335 1493 l 1,14,-1
 1335 1161 l 1,15,-1
 1212 1161 l 1,16,-1
 1212 1370 l 1,17,-1
 506 1370 l 1,18,-1
 506 870 l 1,19,-1
 1016 870 l 1,20,-1
 1016 1057 l 1,21,-1
 1139 1057 l 1,22,-1
 1139 561 l 1,23,-1
 1016 561 l 1,24,-1
 1016 748 l 1,25,-1
 506 748 l 1,26,-1
 506 41 l 2,27,28
 506 -272 506 -272 340 -371 c 0,29,30
 247 -426 247 -426 88 -426 c 0,0,1
EndSplineSet
EndChar
StartChar: florin
Encoding: 402 402 402
Width: 758
Flags: W
LayerCount: 2
Fore
SplineSet
881 1305 m 1,0,-1
 784 1305 l 1,1,2
 784 1326 784 1326 780 1345 c 0,3,4
 771 1391 771 1391 742 1419 c 0,5,6
 700 1458 700 1458 621 1458 c 0,7,8
 518 1458 518 1458 476 1402 c 0,9,10
 434 1345 434 1345 434 1200 c 2,11,-1
 434 1063 l 1,12,-1
 731 1063 l 1,13,-1
 731 956 l 1,14,-1
 434 956 l 1,15,-1
 434 -19 l 2,16,17
 434 -197 434 -197 342 -288 c 0,18,19
 249 -379 249 -379 70 -379 c 0,20,21
 3 -379 3 -379 -64 -367 c 0,22,23
 -131 -355 -131 -355 -197 -330 c 1,24,-1
 -197 -128 l 1,25,-1
 -100 -128 l 1,26,27
 -100 -149 -100 -149 -96 -168 c 0,28,29
 -87 -214 -87 -214 -58 -242 c 0,30,31
 -16 -281 -16 -281 63 -281 c 0,32,33
 166 -281 166 -281 208 -224 c 0,34,35
 250 -168 250 -168 250 -19 c 2,36,-1
 250 956 l 1,37,-1
 74 956 l 1,38,-1
 74 1063 l 1,39,-1
 250 1063 l 1,40,-1
 250 1196 l 2,41,42
 250 1374 250 1374 342 1465 c 0,43,44
 435 1556 435 1556 614 1556 c 0,45,46
 681 1556 681 1556 748 1544 c 0,47,48
 815 1532 815 1532 881 1507 c 1,49,-1
 881 1305 l 1,0,-1
EndSplineSet
EndChar
StartChar: uni0193
Encoding: 403 403 403
Width: 1636
Flags: W
AnchorPoint: "above" 856 1465 basechar 0
LayerCount: 2
Fore
SplineSet
1600 1531 m 0,0,1
 1475 1531 1475 1531 1439 1413 c 0,2,3
 1423 1359 1423 1359 1423 1279 c 2,4,-1
 1423 1047 l 1,5,-1
 1310 1047 l 1,6,-1
 1310 1052 l 2,7,8
 1258 1319 1258 1319 1043 1387 c 0,9,10
 962 1413 962 1413 856 1413 c 0,11,12
 598 1413 598 1413 471 1247 c 0,13,14
 344 1081 344 1081 344 745 c 0,15,16
 344 215 344 215 676 105 c 0,17,18
 759 78 759 78 860 78 c 0,19,20
 1086 78 1086 78 1272 190 c 1,21,-1
 1272 575 l 1,22,-1
 991 575 l 1,23,-1
 991 682 l 1,24,-1
 1475 682 l 1,25,-1
 1475 125 l 1,26,27
 1209 -29 1209 -29 860 -29 c 0,28,29
 522 -29 522 -29 318 182 c 0,30,31
 115 394 115 394 115 745 c 0,32,33
 115 1099 115 1099 319 1310 c 0,34,35
 523 1520 523 1520 868 1520 c 0,36,37
 1080 1520 1080 1520 1329 1436 c 1,38,39
 1354 1513 1354 1513 1415 1570 c 0,40,41
 1479 1630 1479 1630 1604 1630 c 0,42,43
 1745 1630 1745 1630 1869 1564 c 1,44,-1
 1869 1345 l 1,45,-1
 1774 1345 l 1,46,47
 1774 1492 1774 1492 1664 1522 c 0,48,49
 1636 1531 1636 1531 1600 1531 c 0,0,1
EndSplineSet
EndChar
StartChar: uni0194
Encoding: 404 404 404
Width: 1458
Flags: W
LayerCount: 2
Fore
SplineSet
614 733 m 0,0,-1
 178 1386 l 1,1,-1
 18 1386 l 1,2,-1
 18 1493 l 1,3,-1
 610 1493 l 1,4,-1
 610 1386 l 1,5,-1
 434 1386 l 1,6,-1
 754 905 l 1,7,-1
 1083 1386 l 1,8,-1
 891 1386 l 1,9,-1
 891 1493 l 1,10,-1
 1380 1493 l 1,11,-1
 1380 1386 l 1,12,-1
 1212 1386 l 1,13,-1
 817 811 l 0,14,15
 1372 126 1372 126 1188 -44 c 0,16,17
 1032 -188 1032 -188 680 -188 c 16,18,19
 325 -188 325 -188 264 12 c 0,20,21
 208 193 208 193 614 733 c 0,0,-1
680 636 m 1,22,23
 392 258 392 258 392 56 c 24,24,25
 392 -82 392 -82 680 -82 c 16,26,27
 952 -82 952 -82 952 56 c 16,28,29
 952 268 952 268 680 636 c 1,22,23
EndSplineSet
EndChar
StartChar: uni0195
Encoding: 405 405 405
Width: 1909
Flags: W
LayerCount: 2
Fore
SplineSet
84 0 m 1,0,-1
 84 106 l 1,1,-1
 250 106 l 1,2,-1
 250 1450 l 1,3,-1
 74 1450 l 1,4,-1
 74 1556 l 1,5,-1
 434 1556 l 1,6,-1
 434 874 l 1,7,8
 485 982 485 982 566 1037 c 0,9,10
 648 1092 648 1092 756 1092 c 0,11,12
 934 1092 934 1092 1015 991 c 0,13,14
 1098 888 1098 888 1098 676 c 2,15,-1
 1098 351 l 2,16,17
 1098 220 1098 220 1140 160 c 0,18,19
 1183 100 1183 100 1275 99 c 0,20,21
 1400 99 1400 99 1512 229 c 0,22,23
 1603 336 1603 336 1603 526 c 0,24,25
 1603 680 1603 680 1542 783 c 0,26,27
 1481 885 1481 885 1363 931 c 1,28,-1
 1363 990 l 1,29,-1
 1475 990 l 1,30,31
 1629 926 1629 926 1718 797 c 0,32,33
 1808 667 1808 667 1808 510 c 0,34,35
 1808 399 1808 399 1766 303 c 0,36,37
 1723 205 1723 205 1642 131 c 0,38,39
 1570 64 1570 64 1476 29 c 0,40,41
 1381 -7 1381 -7 1275 -7 c 0,42,43
 1111 -7 1111 -7 1006 94 c 0,44,45
 913 177 913 177 913 351 c 2,46,-1
 913 618 l 2,47,48
 913 813 913 813 866 884 c 0,49,50
 818 956 818 956 696 956 c 0,51,52
 568 956 568 956 501 863 c 0,53,54
 434 770 434 770 434 592 c 2,55,-1
 434 106 l 1,56,-1
 594 106 l 1,57,-1
 594 0 l 1,58,-1
 84 0 l 1,0,-1
EndSplineSet
EndChar
StartChar: uni0196
Encoding: 406 406 406
Width: 809
Flags: W
LayerCount: 2
Fore
SplineSet
506 351 m 2,0,1
 506 220 506 220 548 160 c 0,2,3
 592 99 592 99 683 99 c 2,4,-1
 696 99 l 1,5,-1
 696 0 l 1,6,-1
 683 0 l 1,7,8
 482 0 482 0 420 54 c 0,9,10
 303 155 303 155 303 351 c 2,11,-1
 303 1386 l 1,12,-1
 113 1386 l 1,13,-1
 113 1493 l 1,14,-1
 696 1493 l 1,15,-1
 696 1386 l 1,16,-1
 506 1386 l 1,17,-1
 506 351 l 2,0,1
EndSplineSet
EndChar
StartChar: uni0197
Encoding: 407 407 407
Width: 809
Flags: W
AnchorPoint: "above" 406 1465 basechar 0
AnchorPoint: "below" 406 0 basechar 0
LayerCount: 2
Fore
SplineSet
506 106 m 1,0,-1
 696 106 l 1,1,-1
 696 0 l 1,2,-1
 113 0 l 1,3,-1
 113 106 l 1,4,-1
 303 106 l 1,5,-1
 303 719 l 1,6,-1
 103 719 l 1,7,-1
 103 844 l 1,8,-1
 303 844 l 1,9,-1
 303 1386 l 1,10,-1
 113 1386 l 1,11,-1
 113 1493 l 1,12,-1
 696 1493 l 1,13,-1
 696 1386 l 1,14,-1
 506 1386 l 1,15,-1
 506 844 l 1,16,-1
 704 844 l 1,17,-1
 704 719 l 1,18,-1
 506 719 l 1,19,-1
 506 106 l 1,0,-1
EndSplineSet
EndChar
StartChar: uni0198
Encoding: 408 408 408
Width: 1530
Flags: W
LayerCount: 2
Fore
SplineSet
1149 1386 m 2,0,1
 1298 1517 1298 1517 1422 1517 c 0,2,3
 1489 1517 1489 1517 1554 1500 c 0,4,5
 1625 1482 1625 1482 1682 1451 c 1,6,-1
 1682 1232 l 1,7,-1
 1587 1232 l 1,8,9
 1587 1328 1587 1328 1538 1373 c 0,10,11
 1501 1411 1501 1411 1440 1416 c 0,12,13
 1353 1416 1353 1416 1278 1356 c 2,14,-1
 674 823 l 1,15,-1
 1391 106 l 1,16,-1
 1561 106 l 1,17,-1
 1561 0 l 1,18,-1
 1214 0 l 1,19,-1
 506 709 l 1,20,-1
 506 106 l 1,21,-1
 696 106 l 1,22,-1
 696 0 l 1,23,-1
 113 0 l 1,24,-1
 113 106 l 1,25,-1
 303 106 l 1,26,-1
 303 1386 l 1,27,-1
 113 1386 l 1,28,-1
 113 1493 l 1,29,-1
 696 1493 l 1,30,-1
 696 1386 l 1,31,-1
 506 1386 l 1,32,-1
 506 821 l 1,33,-1
 1149 1386 l 2,0,1
EndSplineSet
EndChar
StartChar: uni0199
Encoding: 409 409 409
Width: 1241
Flags: W
LayerCount: 2
Fore
SplineSet
421 543 m 1,0,-1
 868 956 l 1,1,-1
 715 956 l 1,2,-1
 715 1063 l 1,3,-1
 1196 1063 l 1,4,-1
 1196 956 l 1,5,-1
 1014 956 l 1,6,-1
 698 664 l 1,7,-1
 1102 106 l 1,8,-1
 1255 106 l 1,9,-1
 1255 0 l 1,10,-1
 731 0 l 1,11,-1
 731 106 l 1,12,-1
 883 106 l 1,13,-1
 565 543 l 1,14,-1
 420 408 l 1,15,-1
 420 106 l 1,16,-1
 586 106 l 1,17,-1
 586 0 l 1,18,-1
 70 0 l 1,19,-1
 70 106 l 1,20,-1
 236 106 l 1,21,-1
 236 1205 l 2,22,23
 236 1367 236 1367 334 1462 c 0,24,25
 431 1556 431 1556 602 1556 c 0,26,27
 679 1556 679 1556 740 1540 c 0,28,29
 805 1523 805 1523 867 1490 c 1,30,-1
 867 1271 l 1,31,-1
 772 1271 l 1,32,33
 772 1367 772 1367 722 1412 c 0,34,35
 680 1457 680 1457 598 1457 c 0,36,37
 507 1457 507 1457 464 1396 c 0,38,39
 421 1337 421 1337 421 1205 c 2,40,-1
 421 543 l 1,0,-1
EndSplineSet
EndChar
StartChar: uni019A
Encoding: 410 410 410
Width: 655
Flags: W
LayerCount: 2
Fore
SplineSet
60 464 m 1,0,-1
 60 570 l 1,1,-1
 236 570 l 1,2,-1
 236 1450 l 1,3,-1
 59 1450 l 1,4,-1
 59 1556 l 1,5,-1
 420 1556 l 1,6,-1
 420 570 l 1,7,-1
 594 570 l 1,8,-1
 594 464 l 1,9,-1
 420 464 l 1,10,-1
 420 106 l 1,11,-1
 594 106 l 1,12,-1
 594 0 l 1,13,-1
 59 0 l 1,14,-1
 59 106 l 1,15,-1
 236 106 l 1,16,-1
 236 464 l 1,17,-1
 60 464 l 1,0,-1
EndSplineSet
EndChar
StartChar: uni019B
Encoding: 411 411 411
Width: 1298
Flags: W
LayerCount: 2
Fore
SplineSet
532 1307 m 2,0,1
 495 1399 495 1399 461 1429 c 0,2,3
 426 1460 426 1460 373 1460 c 0,4,5
 313 1460 313 1460 285 1431 c 0,6,7
 256 1401 256 1401 250 1333 c 1,8,-1
 156 1333 l 1,9,-1
 156 1536 l 1,10,11
 206 1551 206 1551 255 1559 c 0,12,13
 305 1567 305 1567 352 1567 c 0,14,15
 463 1567 463 1567 524 1521 c 0,16,17
 585 1476 585 1476 635 1352 c 1,18,-1
 782 1450 l 1,19,-1
 842 1364 l 1,20,-1
 675 1249 l 1,21,-1
 1122 107 l 1,22,-1
 1241 107 l 1,23,-1
 1241 0 l 1,24,-1
 842 0 l 1,25,-1
 842 107 l 1,26,-1
 1001 107 l 1,27,-1
 718 841 l 1,28,-1
 403 107 l 1,29,-1
 573 107 l 1,30,-1
 573 0 l 1,31,-1
 84 0 l 1,32,-1
 84 107 l 1,33,-1
 205 107 l 1,34,-1
 618 1084 l 1,35,-1
 580 1183 l 1,36,-1
 313 996 l 1,37,-1
 252 1082 l 1,38,-1
 540 1285 l 1,39,-1
 532 1307 l 2,0,1
EndSplineSet
EndChar
StartChar: uni019C
Encoding: 412 412 412
Width: 1942
Flags: W
LayerCount: 2
Fore
SplineSet
899 207 m 1,0,1
 846 90 846 90 763.5 30.5 c 128,-1,2
 681 -29 681 -29 571 -29 c 0,3,4
 405.059 -29 405.059 -29 322 74.5 c 0,5,6
 240 176.68 240 176.68 240 387 c 2,7,-1
 240 1389 l 1,8,-1
 74 1389 l 1,9,-1
 74 1495 l 1,10,-1
 584 1495 l 1,11,-1
 584 1389 l 1,12,-1
 424 1389 l 1,13,-1
 424 408 l 2,14,15
 424 245 424 245 472 176 c 128,-1,16
 520 107 520 107 631 107 c 0,17,18
 754.418 107 754.418 107 818.5 200 c 0,19,20
 883 293.607 883 293.607 883 471 c 2,21,-1
 883 1389 l 1,22,-1
 723 1389 l 1,23,-1
 723 1495 l 1,24,-1
 1227 1495 l 1,25,-1
 1227 1389 l 1,26,-1
 1067 1389 l 1,27,-1
 1067 401 l 2,28,29
 1067 242.004 1067 242.004 1115 174.5 c 128,-1,30
 1163 107 1163 107 1274 107 c 0,31,32
 1397.42 107 1397.42 107 1461.5 200 c 0,33,34
 1526 293.609 1526 293.609 1526 471 c 2,35,-1
 1526 1389 l 1,36,-1
 1366 1389 l 1,37,-1
 1366 1495 l 1,38,-1
 1876 1495 l 1,39,-1
 1876 1389 l 1,40,-1
 1710 1389 l 1,41,-1
 1710 105 l 1,42,-1
 1886 105 l 1,43,-1
 1886 0 l 1,44,-1
 1526 0 l 1,45,-1
 1526 189 l 1,46,47
 1475 83 1475 83 1396 27 c 128,-1,48
 1317 -29 1317 -29 1217 -29 c 0,49,50
 1093 -29 1093 -29 1010 32.5 c 128,-1,51
 927 94 927 94 899 207 c 1,0,1
EndSplineSet
EndChar
StartChar: uni019D
Encoding: 413 413 413
Width: 1792
Flags: W
AnchorPoint: "above" 871 1475 basechar 0
LayerCount: 2
Fore
SplineSet
-205 -358 m 1,0,-1
 -205 -123 l 1,1,-1
 -91 -123 l 1,2,3
 -91 -222 -91 -222 -44 -270 c 0,4,5
 0 -319 0 -319 88 -319 c 0,6,7
 207 -319 207 -319 254 -244 c 0,8,9
 301 -169 301 -169 301 49 c 2,10,-1
 301 1386 l 1,11,-1
 100 1386 l 1,12,-1
 100 1493 l 1,13,-1
 483 1493 l 1,14,-1
 1378 315 l 1,15,-1
 1378 1386 l 1,16,-1
 1178 1386 l 1,17,-1
 1178 1493 l 1,18,-1
 1702 1493 l 1,19,-1
 1702 1386 l 1,20,-1
 1501 1386 l 1,21,-1
 1501 -29 l 1,22,-1
 1380 -29 l 1,23,-1
 425 1228 l 1,24,-1
 425 41 l 2,25,26
 425 -206 425 -206 326 -316 c 0,27,28
 227 -426 227 -426 35 -426 c 0,29,30
 15 -426 15 -426 -58 -409 c 0,31,32
 -132 -392 -132 -392 -205 -358 c 1,0,-1
EndSplineSet
EndChar
StartChar: uni019E
Encoding: 414 414 414
Width: 1319
Flags: W
AnchorPoint: "above" 594 1092 basechar 0
LayerCount: 2
Fore
SplineSet
84 0 m 1,0,-1
 84 106 l 1,1,-1
 250 106 l 1,2,-1
 250 956 l 1,3,-1
 74 956 l 1,4,-1
 74 1063 l 1,5,-1
 434 1063 l 1,6,-1
 434 874 l 1,7,8
 485 982 485 982 566.5 1037 c 128,-1,9
 648 1092 648 1092 756 1092 c 0,10,11
 932 1092 932 1092 1015 991 c 128,-1,12
 1098 890 1098 890 1098 676 c 2,13,-1
 1098 -320 l 1,14,-1
 1262 -320 l 1,15,-1
 1262 -426 l 1,16,-1
 754 -426 l 1,17,-1
 754 -320 l 1,18,-1
 913 -320 l 1,19,-1
 913 618 l 2,20,21
 913 813 913 813 865 885.5 c 128,-1,22
 817 958 817 958 696 958 c 0,23,24
 568 958 568 958 501 864.5 c 128,-1,25
 434 771 434 771 434 592 c 2,26,-1
 434 106 l 1,27,-1
 594 106 l 1,28,-1
 594 0 l 1,29,-1
 84 0 l 1,0,-1
EndSplineSet
EndChar
StartChar: uni019F
Encoding: 415 415 415
Width: 1679
Flags: W
AnchorPoint: "above" 840 1465 basechar 0
LayerCount: 2
Fore
SplineSet
840 -29 m 0,0,1
 688 -29 688 -29 560.5 21 c 0,2,3
 433 71 433 71 336 168 c 0,4,5
 224 280 224 280 169.5 422 c 0,6,7
 115 564 115 564 115 745 c 0,8,9
 115 926 115 926 169.5 1068.5 c 0,10,11
 224 1211 224 1211 336 1323 c 0,12,13
 434 1421 434 1421 560 1470.5 c 0,14,15
 686 1520 686 1520 840 1520 c 0,16,17
 1165 1520 1165 1520 1365 1307 c 0,18,19
 1565 1094 1565 1094 1565 745 c 0,20,21
 1565 566 1565 566 1510 422.5 c 0,22,23
 1455.31 279.807 1455.31 279.807 1343 168 c 0,24,25
 1244.27 69.7142 1244.27 69.7142 1119 20.5 c 0,26,27
 993 -29 993 -29 840 -29 c 0,0,1
840 78 m 0,28,29
 1085 78 1085 78 1210 246.5 c 0,30,31
 1325.15 401.724 1325.15 401.724 1334.22 694 c 1,32,-1
 344.776 694 l 1,33,34
 353.849 401.724 353.849 401.724 469 246.5 c 0,35,36
 594 78 594 78 840 78 c 0,28,29
1333.48 816 m 1,37,38
 1321.22 1094.57 1321.22 1094.57 1210 1244.5 c 0,39,40
 1085 1413 1085 1413 840 1413 c 0,41,42
 594 1413 594 1413 469 1244.5 c 0,43,44
 357.779 1094.57 357.779 1094.57 345.519 816 c 1,45,-1
 1333.48 816 l 1,37,38
EndSplineSet
EndChar
StartChar: uni01A2
Encoding: 418 418 418
Width: 2129
Flags: W
LayerCount: 2
Fore
SplineSet
840 -29 m 0,0,1
 688 -29 688 -29 560.5 21 c 0,2,3
 433 71 433 71 336 168 c 0,4,5
 224 280 224 280 169.5 422 c 0,6,7
 115 564 115 564 115 745 c 0,8,9
 115 926 115 926 169.5 1068.5 c 0,10,11
 224 1211 224 1211 336 1323 c 0,12,13
 434 1421 434 1421 560 1470.5 c 0,14,15
 686 1520 686 1520 840 1520 c 0,16,17
 1043.74 1520 1043.74 1520 1198.36 1436.29 c 1,18,19
 1258.76 1461.95 1258.76 1461.95 1319.5 1476 c 0,20,21
 1393 1493 1393 1493 1464 1493 c 0,22,23
 1684 1493 1684 1493 1783 1383 c 0,24,25
 1882 1273 1882 1273 1882 1026 c 2,26,-1
 1882 -214 l 1,27,-1
 2072 -214 l 1,28,-1
 2072 -321 l 1,29,-1
 1447 -321 l 1,30,-1
 1447 -214 l 1,31,-1
 1679 -214 l 1,32,-1
 1679 1018 l 2,33,34
 1679 1236 1679 1236 1632 1311 c 0,35,36
 1585 1386 1585 1386 1466 1386 c 0,37,38
 1378.26 1386 1378.26 1386 1334.26 1337.79 c 1,39,40
 1349.98 1322.99 1349.98 1322.99 1365 1307 c 0,41,42
 1565 1094 1565 1094 1565 745 c 0,43,44
 1565 566 1565 566 1510 422.5 c 0,45,46
 1455.31 279.807 1455.31 279.807 1343 168 c 0,47,48
 1244.27 69.7142 1244.27 69.7142 1119 20.5 c 0,49,50
 993 -29 993 -29 840 -29 c 0,0,1
840 78 m 0,51,52
 1085 78 1085 78 1210 246.5 c 0,53,54
 1335 415 1335 415 1335 745 c 0,55,56
 1335 1076 1335 1076 1210 1244.5 c 0,57,58
 1085 1413 1085 1413 840 1413 c 0,59,60
 594 1413 594 1413 469 1244.5 c 0,61,62
 344 1076 344 1076 344 745 c 0,63,64
 344 415 344 415 469 246.5 c 0,65,66
 594 78 594 78 840 78 c 0,51,52
EndSplineSet
EndChar
StartChar: uni01A3
Encoding: 419 419 419
Width: 1653
Flags: W
LayerCount: 2
Fore
SplineSet
869.153 1033.3 m 1,0,1
 869.244 1035.35 869.244 1035.35 913.5 1046.5 c 0,2,3
 979 1063 979 1063 1051 1063 c 0,4,5
 1222 1063 1222 1063 1319.5 969.5 c 128,-1,6
 1417 875.994 1417 875.994 1417 712 c 2,7,-1
 1417 -319 l 1,8,-1
 1593 -319 l 1,9,-1
 1593 -426 l 1,10,-1
 1059 -426 l 1,11,-1
 1059 -319 l 1,12,-1
 1233 -319 l 1,13,-1
 1233 712 l 2,14,15
 1233 841 1233 841 1189.5 902.5 c 128,-1,16
 1146 964 1146 964 1055 964 c 0,17,18
 990.47 964 990.47 964 978.15 950.956 c 0,19,-1
 989.5 939 l 0,20,21
 1130 786 1130 786 1130 532 c 128,-1,22
 1130 278 1130 278 989.5 124.5 c 128,-1,23
 849 -29 849 -29 616 -29 c 0,24,25
 384 -29 384 -29 243 124.5 c 128,-1,26
 102 278 102 278 102 532 c 128,-1,27
 102 786 102 786 242.5 939 c 128,-1,28
 383 1092 383 1092 616 1092 c 0,29,30
 760.321 1092 760.321 1092 869.153 1033.3 c 1,0,1
616 70 m 0,31,32
 764 70 764 70 839.5 187 c 128,-1,33
 915 304 915 304 915 532 c 128,-1,34
 915 760 915 760 839.5 876.5 c 128,-1,35
 764 993 764 993 616 993 c 128,-1,36
 468 993 468 993 392.5 876.5 c 128,-1,37
 317 760 317 760 317 532 c 128,-1,38
 317 304 317 304 393 187 c 128,-1,39
 469 70 469 70 616 70 c 0,31,32
EndSplineSet
EndChar
StartChar: uni01A4
Encoding: 420 420 420
Width: 1378
Flags: W
LayerCount: 2
Fore
SplineSet
303 1493 m 2,0,-1
 819 1493 l 2,1,2
 1043 1493 1043 1493 1174 1380 c 0,3,4
 1305 1266 1305 1266 1305 1073 c 0,5,6
 1305 881 1305 881 1174 767 c 128,-1,7
 1043 653 1043 653 819 653 c 2,8,-1
 506 653 l 1,9,-1
 506 106 l 1,10,-1
 737 106 l 1,11,-1
 737 0 l 1,12,-1
 113 0 l 1,13,-1
 113 106 l 1,14,-1
 303 106 l 1,15,-1
 303 1386 l 0,16,17
 76 1386 76 1386 8 1297 c 0,18,19
 -63 1206 -63 1206 -63 1020 c 1,20,-1
 -192 1020 l 1,21,-1
 -192 1364 l 1,22,23
 -94 1437 -94 1437 90 1476 c 0,24,25
 205 1493 205 1493 303 1493 c 2,0,-1
506 760 m 1,26,-1
 770 760 l 2,27,28
 919 760 919 760 997 840 c 0,29,30
 1075 921 1075 921 1075 1073 c 0,31,32
 1075 1226 1075 1226 997 1306 c 128,-1,33
 919 1386 919 1386 770 1386 c 2,34,-1
 506 1386 l 1,35,-1
 506 760 l 1,26,-1
EndSplineSet
EndChar
StartChar: uni01A5
Encoding: 421 421 421
Width: 1311
Flags: W
LayerCount: 2
Fore
SplineSet
420 584 m 2,0,-1
 420 479 l 2,1,2
 420 287 420 287 494 186 c 0,3,4
 567 86 567 86 707 86 c 0,5,6
 848 86 848 86 920 199 c 0,7,8
 993 312 993 312 993 532 c 0,9,10
 993 753 993 753 920 865 c 0,11,12
 848 977 848 977 707 977 c 0,13,14
 567 977 567 977 494 876 c 0,15,16
 420 775 420 775 420 584 c 2,0,-1
235 1115 m 2,17,18
 235 1281 235 1281 332 1373 c 0,19,20
 430 1466 430 1466 601 1466 c 0,21,22
 668 1466 668 1466 738 1449 c 0,23,24
 804 1433 804 1433 866 1400 c 1,25,-1
 866 1181 l 1,26,-1
 771 1181 l 1,27,28
 771 1277 771 1277 722 1322 c 0,29,30
 679 1367 679 1367 597 1367 c 0,31,32
 506 1367 506 1367 462 1305 c 0,33,34
 420 1245 420 1245 420 1115 c 2,35,-1
 420 897 l 1,36,37
 474 997 474 997 558 1044 c 0,38,39
 641 1092 641 1092 764 1092 c 0,40,41
 960 1092 960 1092 1084 937 c 0,42,43
 1208 782 1208 782 1208 532 c 0,44,45
 1208 282 1208 282 1084 126 c 0,46,47
 960 -29 960 -29 764 -29 c 0,48,49
 641 -29 641 -29 558 18 c 0,50,51
 474 66 474 66 420 166 c 1,52,-1
 420 -319 l 1,53,-1
 594 -319 l 1,54,-1
 594 -426 l 1,55,-1
 59 -426 l 1,56,-1
 59 -319 l 1,57,-1
 235 -319 l 1,58,-1
 235 1115 l 2,17,18
EndSplineSet
EndChar
StartChar: uni01A6
Encoding: 422 422 422
Width: 1542
Flags: W
LayerCount: 2
Fore
SplineSet
303 1386 m 1,0,-1
 113 1386 l 1,1,-1
 113 1493 l 1,2,-1
 717 1493 l 1,3,-1
 717 1386 l 1,4,-1
 506 1386 l 1,5,-1
 506 1168 l 1,6,-1
 870 1168 l 2,7,8
 1088 1168 1088 1168 1206.5 1064 c 128,-1,9
 1325 960 1325 960 1325 769 c 0,10,11
 1325 615 1325 615 1238.5 526.5 c 128,-1,12
 1152 438 1152 438 981 416 c 1,0,1
 1051 397 1051 397 1101.5 351.5 c 0,2,3
 1151.7 306.27 1151.7 306.27 1192 224 c 2,4,-1
 1409 -219 l 1,5,-1
 1591 -219 l 1,6,-1
 1591 -325 l 1,7,-1
 1239 -325 l 1,8,-1
 1006 150 l 2,9,10
 937.927 288.776 937.927 288.776 883 328.5 c 0,11,12
 827 369 827 369 729 369 c 2,13,-1
 506 369 l 1,14,-1
 506 106 l 1,15,-1
 717 106 l 1,16,-1
 717 0 l 1,17,-1
 113 0 l 1,18,-1
 113 106 l 1,19,-1
 303 106 l 1,20,-1
 303 1386 l 1,0,-1
506 476 m 1,28,-1
 801 476 l 2,29,30
 952 476 952 476 1024 547.5 c 128,-1,31
 1096 619 1096 619 1096 769 c 0,32,33
 1096 919 1096 919 1024 990 c 128,-1,34
 952 1061 952 1061 801 1061 c 2,35,-1
 506 1061 l 1,36,-1
 506 476 l 1,28,-1
EndSplineSet
EndChar
StartChar: uni01A7
Encoding: 423 423 423
Width: 1403
Flags: W
AnchorPoint: "above" 702 1465 basechar 0
LayerCount: 2
Fore
SplineSet
1235 72 m 1,0,1
 1103 21 1103 21 976 -4 c 0,2,3
 848 -29 848 -29 725 -29 c 0,4,5
 450 -29 450 -29 311 81 c 128,-1,6
 172 191 172 191 172 408 c 0,7,8
 172 567 172 567 258 662 c 0,9,10
 345 756 345 756 548 817 c 2,11,-1
 733 872 l 2,12,13
 934 932 934 932 996 993 c 128,-1,14
 1058 1054 1058 1054 1058 1161 c 0,15,16
 1058 1284 1058 1284 976 1348 c 0,17,18
 893 1413 893 1413 735 1413 c 0,19,20
 554 1413 554 1413 466 1342 c 0,21,22
 377 1272 377 1272 360 1114 c 1,23,-1
 247 1114 l 1,24,-1
 247 1432 l 1,25,26
 387 1475 387 1475 511 1498 c 0,27,28
 635 1520 635 1520 739 1520 c 0,29,30
 983 1520 983 1520 1118 1415 c 128,-1,31
 1253 1310 1253 1310 1253 1120 c 0,32,33
 1253 951 1253 951 1166 854 c 0,34,35
 1078 757 1078 757 864 692 c 2,36,-1
 667 633 l 2,37,38
 485 578 485 578 428 520 c 0,39,40
 372 462 372 462 372 354 c 0,41,42
 372 219 372 219 466 148 c 0,43,44
 559 78 559 78 737 78 c 0,45,46
 928 78 928 78 1022 160 c 0,47,48
 1115 241 1115 241 1120 412 c 1,49,-1
 1235 412 l 1,50,-1
 1235 72 l 1,0,1
EndSplineSet
EndChar
StartChar: uni01A8
Encoding: 424 424 424
Width: 1051
Flags: W
AnchorPoint: "above" 526 1092 basechar 0
LayerCount: 2
Fore
SplineSet
946 59 m 1,0,1
 848 15 848 15 750 -7 c 128,-1,2
 652 -29 652 -29 549 -29 c 0,3,4
 346 -29 346 -29 230 58 c 0,5,6
 115 144 115 144 115 295 c 0,7,8
 115 406 115 406 182 476 c 0,9,10
 248 547 248 547 399 594 c 2,11,-1
 545 639 l 2,12,13
 680 681 680 681 725 722 c 0,14,15
 770 762 770 762 770 829 c 0,16,17
 770 911 770 911 710 952 c 0,18,19
 651 993 651 993 535 993 c 0,20,21
 418 993 418 993 350 935 c 128,-1,22
 282 877 282 877 278 774 c 1,23,-1
 172 774 l 1,24,-1
 172 1006 l 1,25,26
 271 1048 271 1048 364 1070 c 128,-1,27
 457 1092 457 1092 541 1092 c 0,28,29
 730 1092 730 1092 837 1009 c 128,-1,30
 944 926 944 926 944 780 c 0,31,32
 944 678 944 678 882 612 c 0,33,34
 821 546 821 546 684 502 c 1,35,-1
 551 457 l 1,36,37
 398 408 398 408 350 365 c 0,38,39
 303 322 303 322 303 252 c 0,40,41
 303 163 303 163 368 116 c 0,42,43
 433 70 433 70 557 70 c 0,44,45
 695 70 695 70 766 129 c 0,46,47
 836 188 836 188 840 307 c 1,48,-1
 946 307 l 1,49,-1
 946 59 l 1,0,1
EndSplineSet
EndChar
StartChar: uni01AA
Encoding: 426 426 426
Width: 664
Flags: W
LayerCount: 2
Fore
SplineSet
180.046 1459 m 0,0,1
 21.0459 1459 21.0459 1459 21.0459 1352 c 0,2,3
 21.0459 1229 21.0459 1229 332.046 1229 c 0,4,5
 346.046 1229 346.046 1229 360.046 1230 c 1,6,7
 368.046 1325 368.046 1325 315.046 1397 c 0,8,9
 269.046 1459 269.046 1459 180.046 1459 c 0,0,1
533.046 1333 m 1,10,11
 564.046 1394 564.046 1394 564.046 1489 c 2,12,-1
 564.046 1553 l 1,13,-1
 664.046 1553 l 1,14,-1
 663.046 1489 l 2,15,16
 660.046 1269 660.046 1269 538.046 1183 c 1,17,18
 449.046 643 449.046 643 341.046 -105 c 0,19,20
 325.046 -214 325.046 -214 384.046 -295 c 0,21,22
 427.046 -357 427.046 -357 518.046 -357 c 0,23,24
 600.046 -357 600.046 -357 643.046 -311 c 0,25,26
 685.046 -267 685.046 -267 692.046 -171 c 1,27,-1
 787.046 -171 l 1,28,-1
 787.046 -389 l 1,29,30
 725.046 -423 725.046 -423 660.046 -439 c 0,31,32
 594.046 -455 594.046 -455 522.046 -455 c 0,33,34
 351.046 -455 351.046 -455 254.046 -362 c 0,35,36
 134.046 -247 134.046 -247 156.046 -105 c 1,37,38
 151.046 -91 151.046 -91 345.046 1129 c 1,39,40
 340.046 1129 340.046 1129 336.046 1129 c 0,41,42
 -201.954 1129 -201.954 1129 -196.954 1359 c 0,43,44
 -192.954 1558 -192.954 1558 182.046 1558 c 0,45,46
 343.046 1558 343.046 1558 445.046 1465 c 0,47,48
 510.046 1404 510.046 1404 533.046 1333 c 1,10,11
EndSplineSet
EndChar
StartChar: uni01AB
Encoding: 427 427 427
Width: 823
Flags: W
LayerCount: 2
Fore
SplineSet
221 956 m 1,0,-1
 59 956 l 1,1,-1
 59 1063 l 1,2,-1
 221 1063 l 1,3,-1
 221 1393 l 1,4,-1
 406 1393 l 1,5,-1
 406 1063 l 1,6,-1
 752 1063 l 1,7,-1
 752 956 l 1,8,-1
 406 956 l 1,9,-1
 406 281 l 2,10,11
 406 146 406 146 432 108 c 0,12,13
 458 70 458 70 528 70 c 0,14,15
 600 70 600 70 633 112.5 c 0,16,17
 666 155 666 155 668 250 c 1,18,-1
 807 250 l 1,19,-1
 807 -104 l 2,20,21
 807 -268 807 -268 709.5 -361.5 c 0,22,23
 612 -455 612 -455 441 -455 c 0,24,25
 369 -455 369 -455 303.5 -438.5 c 0,26,27
 238 -422 238 -422 176 -389 c 1,28,-1
 176 -170 l 1,29,-1
 271 -170 l 1,30,31
 278 -266 278 -266 320.5 -311 c 0,32,33
 363 -356 363 -356 445 -356 c 0,34,35
 535.969 -356 535.969 -356 579.5 -294.5 c 0,36,37
 622 -234.457 622 -234.457 622 -104 c 2,38,-1
 622 -16.869 l 1,39,40
 573.699 -29 573.699 -29 512 -29 c 0,41,42
 353 -29 353 -29 287 41.5 c 0,43,44
 221 112 221 112 221 281 c 2,45,-1
 221 956 l 1,0,-1
EndSplineSet
EndChar
StartChar: uni01AC
Encoding: 428 428 428
Width: 1366
Flags: W
AnchorPoint: "above" 677 1465 basechar 0
LayerCount: 2
Fore
SplineSet
582 1493 m 10,0,-1
 1346 1493 l 17,1,-1
 1346 1141 l 1,2,-1
 1223 1141 l 1,3,-1
 1223 1374 l 1,4,-1
 784 1374 l 1,5,-1
 784 106 l 1,6,-1
 975 106 l 1,7,-1
 975 0 l 1,8,-1
 391 0 l 1,9,-1
 391 106 l 1,10,-1
 582 106 l 1,11,-1
 582 1374 l 0,12,13
 355 1374 355 1374 286 1285 c 0,14,15
 216 1194 216 1194 216 1008 c 1,16,-1
 87 1008 l 1,17,-1
 87 1364 l 1,18,19
 189 1440 189 1440 369 1476 c 0,20,21
 489 1493 489 1493 582 1493 c 10,0,-1
EndSplineSet
EndChar
StartChar: uni01AD
Encoding: 429 429 429
Width: 823
Flags: W
LayerCount: 2
Fore
SplineSet
406 1063 m 1,0,-1
 752 1063 l 1,1,-1
 752 956 l 1,2,-1
 406 956 l 1,3,-1
 406 281 l 2,4,5
 406 146 406 146 432 108 c 128,-1,6
 458 70 458 70 528 70 c 0,7,8
 600 70 600 70 633 112 c 0,9,10
 666 155 666 155 668 250 c 1,11,-1
 807 250 l 1,12,13
 807 105 807 105 728 38 c 0,14,15
 657 -29 657 -29 512 -29 c 0,16,17
 353 -29 353 -29 287 42 c 0,18,19
 221 112 221 112 221 281 c 2,20,-1
 221 956 l 1,21,-1
 59 956 l 1,22,-1
 59 1063 l 1,23,-1
 221 1063 l 1,24,-1
 221 1205 l 2,25,26
 221 1367 221 1367 319 1462 c 0,27,28
 416 1556 416 1556 587 1556 c 0,29,30
 664 1556 664 1556 725 1540 c 0,31,32
 790 1523 790 1523 852 1490 c 1,33,-1
 852 1271 l 1,34,-1
 757 1271 l 1,35,36
 757 1367 757 1367 707 1412 c 0,37,38
 665 1457 665 1457 583 1457 c 0,39,40
 492 1457 492 1457 449 1396 c 0,41,42
 406 1337 406 1337 406 1205 c 2,43,-1
 406 1063 l 1,0,-1
EndSplineSet
EndChar
StartChar: uni01AE
Encoding: 430 430 430
Width: 1366
Flags: W
LayerCount: 2
Fore
SplineSet
1290 -358 m 1,0,1
 1217 -392 1217 -392 1144 -409 c 0,2,3
 1070 -426 1070 -426 999 -426 c 0,4,5
 779 -426 779 -426 680 -316 c 0,6,7
 581 -206 581 -206 582 41 c 2,8,-1
 582 1374 l 1,9,-1
 143 1374 l 1,10,-1
 143 1141 l 1,11,-1
 20 1141 l 1,12,-1
 20 1493 l 1,13,-1
 1346 1493 l 1,14,-1
 1346 1141 l 1,15,-1
 1223 1141 l 1,16,-1
 1223 1374 l 1,17,-1
 784 1374 l 1,18,-1
 784 49 l 2,19,20
 784 -166 784 -166 831 -244 c 0,21,22
 876 -319 876 -319 997 -319 c 0,23,24
 1085 -319 1085 -319 1129 -270 c 0,25,26
 1173 -222 1173 -222 1176 -123 c 1,27,-1
 1290 -123 l 1,28,-1
 1290 -358 l 1,0,1
EndSplineSet
EndChar
StartChar: uni01B1
Encoding: 433 433 433
Width: 1698
Flags: W
LayerCount: 2
Fore
SplineSet
580 1356 m 1,0,-1
 244 1356 l 1,1,-1
 244 1219 l 1,2,-1
 127 1219 l 1,3,-1
 127 1520 l 1,4,-1
 719 1520 l 1,5,-1
 719 1338 l 1,6,7
 539 1268 539 1268 446 1112 c 0,8,9
 354 957 354 957 354 725 c 0,10,11
 354 446 354 446 491 276 c 0,12,13
 628 107 628 107 850 107 c 128,-1,14
 1072 107 1072 107 1209 276 c 0,15,16
 1346 446 1346 446 1346 725 c 0,17,18
 1346 958 1346 958 1254 1113 c 128,-1,19
 1162 1268 1162 1268 983 1338 c 1,20,-1
 983 1520 l 1,21,-1
 1573 1520 l 1,22,-1
 1573 1219 l 1,23,-1
 1456 1219 l 1,24,-1
 1456 1356 l 1,25,-1
 1122 1356 l 1,26,27
 1331 1269 1331 1269 1453 1093 c 128,-1,28
 1575 917 1575 917 1575 703 c 0,29,30
 1575 552 1575 552 1518 421 c 0,31,32
 1460 290 1460 290 1350 187 c 0,33,34
 1251 96 1251 96 1123 48 c 128,-1,35
 995 0 995 0 850 0 c 128,-1,36
 705 0 705 0 578 48 c 0,37,38
 451 95 451 95 352 187 c 0,39,40
 241 290 241 290 183 422 c 0,41,42
 125 553 125 553 125 703 c 0,43,44
 125 916 125 916 248 1092 c 0,45,46
 370 1269 370 1269 580 1356 c 1,0,-1
EndSplineSet
EndChar
StartChar: uni01B2
Encoding: 434 434 434
Width: 1556
Flags: W
LayerCount: 2
Fore
SplineSet
708 0 m 24,0,1
 495.341 -11.0953 495.341 -11.0953 420 54 c 0,2,3
 303 155.089 303 155.089 303 351 c 2,4,-1
 303 1386 l 1,5,-1
 113 1386 l 1,6,-1
 113 1493 l 1,7,-1
 696 1493 l 1,8,-1
 696 1386 l 1,9,-1
 506 1386 l 1,10,-1
 506 351 l 2,11,12
 506 226.325 506 226.325 548 160 c 0,13,14
 577.919 112.753 577.919 112.753 708 107 c 24,15,16
 922.338 97.52 922.338 97.52 1067 276.5 c 0,17,18
 1204 446 1204 446 1204 725 c 0,19,20
 1204 973.905 1204 973.905 1112 1113 c 0,21,22
 1024 1244 1024 1244 872 1272 c 1,23,-1
 872 1386 l 1,24,-1
 980 1386 l 1,25,26
 1201.56 1303.35 1201.56 1303.35 1308 1128 c 0,27,28
 1433 919.998 1433 919.998 1433 703 c 0,29,30
 1433 552 1433 552 1375.5 421 c 0,31,32
 1316.61 286.834 1316.61 286.834 1208 187 c 0,33,34
 1109 96 1109 96 981 48 c 0,35,36
 876.434 8.78791 876.434 8.78791 708 0 c 24,0,1
EndSplineSet
EndChar
StartChar: uni01B3
Encoding: 435 435 435
Width: 1512
Flags: W
AnchorPoint: "above" 673 1472 basechar 0
LayerCount: 2
Fore
SplineSet
780 106 m 17,0,-1
 971 106 l 1,1,-1
 971 0 l 1,2,-1
 387 0 l 1,3,-1
 387 106 l 1,4,-1
 578 106 l 1,5,-1
 578 643 l 1,6,-1
 117 1386 l 1,7,-1
 -23 1386 l 1,8,-1
 -23 1493 l 1,9,-1
 532 1493 l 1,10,-1
 532 1386 l 1,11,-1
 358 1386 l 1,12,-1
 731 782 l 1,13,-1
 1104 1386 l 1,14,15
 1233.73 1493 1233.73 1493 1370 1493 c 0,16,17
 1436.88 1493 1436.88 1493 1507 1476 c 0,18,19
 1573 1460 1573 1460 1635 1427 c 1,20,-1
 1635 1208 l 1,21,-1
 1540 1208 l 1,22,23
 1533 1304 1533 1304 1491 1349 c 0,24,25
 1448 1394 1448 1394 1366 1394 c 0,26,27
 1240.1 1394 1240.1 1394 1189 1322 c 0,28,-1
 780 662 l 9,29,-1
 780 106 l 17,0,-1
EndSplineSet
EndChar
StartChar: uni01B4
Encoding: 436 436 436
Width: 1357
Flags: W
AnchorPoint: "above" 572.5 1092 basechar 0
LayerCount: 2
Fore
SplineSet
981 825 m 10,0,-1
 545 -240 l 1,1,2
 495 -364 495 -364 434 -409.5 c 128,-1,3
 373 -455 373 -455 262 -455 c 0,4,5
 215 -455 215 -455 165.5 -447 c 128,-1,6
 116 -439 116 -439 66 -424 c 1,7,-1
 66 -221 l 1,8,-1
 160 -221 l 1,9,10
 166 -289 166 -289 194.5 -318.5 c 128,-1,11
 223 -348 223 -348 283 -348 c 0,12,13
 338 -348 338 -348 371.5 -317.5 c 128,-1,14
 405 -287 405 -287 442 -195 c 1,15,-1
 512 -18 l 1,16,-1
 115 956 l 1,17,-1
 -6 956 l 1,18,-1
 -6 1063 l 1,19,-1
 483 1063 l 1,20,-1
 483 956 l 1,21,-1
 313 956 l 1,22,-1
 612 225 l 1,23,-1
 878 870 l 18,24,25
 928 994 928 994 989 1039.5 c 128,-1,26
 1050 1085 1050 1085 1161 1085 c 0,27,28
 1208 1085 1208 1085 1257.5 1077 c 128,-1,29
 1307 1069 1307 1069 1357 1054 c 1,30,-1
 1357 851 l 1,31,-1
 1263 851 l 1,32,33
 1257 919 1257 919 1228.5 948.5 c 128,-1,34
 1200 978 1200 978 1140 978 c 0,35,36
 1085 978 1085 978 1051.5 947.5 c 128,-1,37
 1018 917 1018 917 981 825 c 10,0,-1
EndSplineSet
EndChar
StartChar: uni01B5
Encoding: 437 437 437
Width: 1423
Flags: W
AnchorPoint: "above" 713 1465 basechar 0
AnchorPoint: "below" 713 0 basechar 0
LayerCount: 2
Fore
SplineSet
92 0 m 1,0,-1
 92 72 l 1,1,-1
 556 719 l 1,2,-1
 250 719 l 1,3,-1
 250 844 l 1,4,-1
 645 844 l 1,5,-1
 1022 1370 l 1,6,-1
 250 1370 l 1,7,-1
 250 1147 l 1,8,-1
 127 1147 l 1,9,-1
 127 1493 l 1,10,-1
 1307 1493 l 1,11,-1
 1307 1421 l 1,12,-1
 894 844 l 1,13,-1
 1221 844 l 1,14,-1
 1221 719 l 1,15,-1
 804 719 l 1,16,-1
 377 123 l 1,17,-1
 1221 123 l 1,18,-1
 1221 332 l 1,19,-1
 1343 332 l 1,20,-1
 1343 0 l 1,21,-1
 92 0 l 1,0,-1
EndSplineSet
EndChar
StartChar: uni01B6
Encoding: 438 438 438
Width: 1079
Flags: W
AnchorPoint: "below" 529 0 basechar 0
AnchorPoint: "above" 529 1092 basechar 0
LayerCount: 2
Fore
SplineSet
82 0 m 1,0,-1
 82 86 l 1,1,-1
 371 464 l 1,2,-1
 221 464 l 1,3,-1
 221 570 l 1,4,-1
 453 570 l 1,5,-1
 748 956 l 1,6,-1
 221 956 l 1,7,-1
 221 772 l 1,8,-1
 115 772 l 1,9,-1
 115 1063 l 1,10,-1
 985 1063 l 1,11,-1
 985 977 l 1,12,-1
 674 570 l 1,13,-1
 897 570 l 1,14,-1
 897 464 l 1,15,-1
 593 464 l 1,16,-1
 319 106 l 1,17,-1
 897 106 l 1,18,-1
 897 299 l 1,19,-1
 1004 299 l 1,20,-1
 1004 0 l 1,21,-1
 82 0 l 1,0,-1
EndSplineSet
EndChar
StartChar: uni01B7
Encoding: 439 439 439
Width: 1156
Flags: W
AnchorPoint: "above" 557 1465 basechar 0
AnchorPoint: "below" 557 0 basechar 0
LayerCount: 2
Fore
SplineSet
528 852 m 2,0,-1
 433 852 l 1,1,-1
 433 954 l 1,2,-1
 777 1370 l 1,3,-1
 250 1370 l 1,4,-1
 250 1147 l 1,5,-1
 127 1147 l 1,6,-1
 127 1493 l 1,7,-1
 1000 1493 l 1,8,-1
 1000 1368 l 1,9,-1
 631 923 l 1,10,-1
 710 916 l 0,11,12
 894 887 894 887 996 766 c 0,13,14
 1097 646 1097 646 1097 454 c 0,15,16
 1097 220 1097 220 956 95 c 0,17,18
 816 -29 816 -29 552 -29 c 0,19,20
 435 -29 435 -29 324 -1 c 0,21,22
 212 27 212 27 102 84 c 1,23,-1
 102 408 l 1,24,-1
 214 408 l 1,25,26
 224 247 224 247 311 164 c 128,-1,27
 398 81 398 81 556 81 c 0,28,29
 709 81 709 81 798 181 c 0,30,31
 886 280 886 280 886 452 c 0,32,33
 886 649 886 649 795 751 c 0,34,35
 704 852 704 852 528 852 c 2,0,-1
EndSplineSet
AlternateSubs2: "'aalt' Access All Alternates" uni01B7.alt
EndChar
StartChar: uni01B8
Encoding: 440 440 440
Width: 1156
Flags: W
LayerCount: 2
Fore
SplineSet
671 852 m 2,0,1
 495 852 495 852 404 751 c 0,2,3
 313 649 313 649 313 452 c 0,4,5
 313 280 313 280 401 181 c 0,6,7
 490 81 490 81 643 81 c 0,8,9
 801 81 801 81 888 164 c 128,-1,10
 975 247 975 247 985 408 c 1,11,-1
 1097 408 l 1,12,-1
 1097 84 l 1,13,14
 987 27 987 27 875 -1 c 0,15,16
 764 -29 764 -29 647 -29 c 0,17,18
 383 -29 383 -29 243 95 c 0,19,20
 102 220 102 220 102 454 c 0,21,22
 102 646 102 646 203 766 c 0,23,24
 305 887 305 887 489 916 c 0,25,-1
 568 923 l 1,26,-1
 199 1368 l 1,27,-1
 199 1493 l 1,28,-1
 1072 1493 l 1,29,-1
 1072 1147 l 1,30,-1
 949 1147 l 1,31,-1
 949 1370 l 1,32,-1
 422 1370 l 1,33,-1
 766 954 l 1,34,-1
 766 852 l 1,35,-1
 671 852 l 2,0,1
EndSplineSet
EndChar
StartChar: uni01B9
Encoding: 441 441 441
Width: 1156
Flags: W
LayerCount: 2
Fore
SplineSet
671 423 m 2,0,1
 495 423 495 423 404 322 c 0,2,3
 313 220 313 220 313 23 c 0,4,5
 313 -149 313 -149 401 -248 c 0,6,7
 490 -348 490 -348 643 -348 c 0,8,9
 801 -348 801 -348 888 -265 c 128,-1,10
 975 -182 975 -182 985 -21 c 1,11,-1
 1097 -21 l 1,12,-1
 1097 -345 l 1,13,14
 987 -402 987 -402 875 -430 c 0,15,16
 764 -458 764 -458 647 -458 c 0,17,18
 383 -458 383 -458 243 -334 c 0,19,20
 102 -209 102 -209 102 25 c 0,21,22
 102 217 102 217 203 337 c 0,23,24
 305 458 305 458 489 487 c 0,25,-1
 568 494 l 1,26,-1
 199 977 l 1,27,-1
 199 1063 l 1,28,-1
 1069 1063 l 1,29,-1
 1069 772 l 1,30,-1
 963 772 l 1,31,-1
 963 956 l 1,32,-1
 436 956 l 1,33,-1
 766 525 l 1,34,-1
 766 423 l 1,35,-1
 671 423 l 2,0,1
EndSplineSet
EndChar
StartChar: uni01BA
Encoding: 442 442 442
Width: 1156
Flags: W
AnchorPoint: "above" 529 1092 basechar 0
AnchorPoint: "below" 579 -430 basechar 0
LayerCount: 2
Fore
SplineSet
528 423 m 2,0,-1
 433 423 l 1,1,-1
 433 525 l 1,2,-1
 763 956 l 1,3,-1
 236 956 l 1,4,-1
 236 772 l 1,5,-1
 130 772 l 1,6,-1
 130 1063 l 1,7,-1
 1000 1063 l 1,8,-1
 1000 977 l 1,9,-1
 631 494 l 1,10,11
 1070 455 1070 455 1070 282 c 0,12,13
 1070 89 1070 89 694 -19.5 c 128,-1,14
 318 -128 318 -128 318 -231 c 0,15,16
 318 -348 318 -348 597.5 -348 c 128,-1,17
 877 -348 877 -348 921 -130 c 1,18,-1
 1016 -130 l 1,19,-1
 1016 -284 l 1,20,21
 896 -458 896 -458 513 -458 c 128,-1,22
 130 -458 130 -458 130 -246 c 0,23,24
 130 -62 130 -62 496 25 c 128,-1,25
 862 112 862 112 862 292 c 0,26,27
 862 423 862 423 528 423 c 2,0,-1
EndSplineSet
EndChar
StartChar: uni01BB
Encoding: 443 443 443
Width: 1303
Flags: W
LayerCount: 2
Fore
SplineSet
262 1137 m 1,0,-1
 150 1137 l 1,1,-1
 150 1403 l 1,2,3
 257 1460 257 1460 365.5 1490 c 128,-1,4
 474 1520 474 1520 578 1520 c 0,5,6
 811 1520 811 1520 946 1407 c 128,-1,7
 1081 1294 1081 1294 1081 1100 c 0,8,9
 1081 984 1081 984 995 844 c 1,10,-1
 1122 844 l 1,11,-1
 1122 719 l 1,12,-1
 906 719 l 1,13,14
 850 650 850 650 775 576 c 1,15,-1
 739 541 l 1,16,-1
 362 164 l 1,17,-1
 985 164 l 1,18,-1
 985 348 l 1,19,-1
 1102 348 l 1,20,-1
 1102 0 l 1,21,-1
 139 0 l 1,22,-1
 139 109 l 1,23,-1
 592 561 l 2,24,25
 675 644 675 644 731 719 c 1,26,-1
 262 719 l 1,27,-1
 262 844 l 1,28,-1
 810 844 l 1,29,30
 870 966 870 966 870 1100 c 0,31,32
 870 1251 870 1251 791.5 1336 c 128,-1,33
 713 1421 713 1421 575 1421 c 0,34,35
 432 1421 432 1421 354 1350 c 128,-1,36
 276 1279 276 1279 262 1137 c 1,0,-1
EndSplineSet
EndChar
StartChar: uni01BC
Encoding: 444 444 444
Width: 1406
Flags: W
LayerCount: 2
Fore
SplineSet
867 840 m 0,0,1
 1051 814 1051 814 1152.5 706.5 c 0,2,3
 1254 599 1254 599 1254 403 c 0,4,5
 1254 194 1254 194 1113.5 82.5 c 0,6,7
 973 -29 973 -29 709 -29 c 0,8,9
 592 -29 592 -29 480.5 -4 c 0,10,11
 369 21 369 21 259 72 c 1,12,-1
 259 362 l 1,13,-1
 371 362 l 1,14,15
 381 218 381 218 468 144 c 0,16,17
 555 70 555 70 713 70 c 0,18,19
 866 70 866 70 954.5 158.5 c 0,20,21
 1043 247 1043 247 1043 401 c 0,22,23
 1043 577 1043 577 952 667.5 c 0,24,25
 861 758 861 758 685 758 c 2,26,-1
 303 758 l 1,27,-1
 303 1386 l 1,28,-1
 113 1386 l 1,29,-1
 113 1493 l 1,30,-1
 1198 1493 l 1,31,-1
 1198 1161 l 1,32,-1
 1075 1161 l 1,33,-1
 1075 1370 l 1,34,-1
 506 1370 l 1,35,-1
 506 860 l 1,36,-1
 640 860 l 2,37,38
 725.464 860 725.464 860 867 840 c 0,0,1
EndSplineSet
EndChar
StartChar: uni01BD
Encoding: 445 445 445
Width: 1156
Flags: W
LayerCount: 2
Fore
SplineSet
528 525 m 1,0,-1
 710 504 l 2,1,2
 894 475 894 475 996 354 c 0,3,4
 1097 234 1097 234 1097 25 c 0,5,6
 1097 -209 1097 -209 956 -334 c 0,7,8
 816 -458 816 -458 552 -458 c 0,9,10
 435.498 -458 435.498 -458 324 -430 c 0,11,12
 211.528 -401.755 211.528 -401.755 102 -345 c 1,13,-1
 102 -21 l 1,14,-1
 214 -21 l 1,15,16
 224 -182 224 -182 311 -265 c 0,17,18
 398 -348 398 -348 556 -348 c 0,19,20
 709 -348 709 -348 798 -248 c 0,21,22
 886 -149 886 -149 886 23 c 0,23,24
 886 220 886 220 795 322 c 0,25,26
 704 423 704 423 528 423 c 2,27,-1
 216 423 l 1,28,-1
 216 958 l 1,29,-1
 39 958 l 1,30,-1
 39 1063 l 1,31,-1
 992 1063 l 1,32,-1
 992 796 l 1,33,-1
 887 796 l 1,34,-1
 887 940 l 1,35,-1
 400 940 l 1,36,-1
 400 525 l 1,37,-1
 528 525 l 1,0,-1
EndSplineSet
EndChar
StartChar: uni01BE
Encoding: 446 446 446
Width: 1098
Flags: W
LayerCount: 2
Fore
SplineSet
398 1393 m 1,0,-1
 582 1393 l 1,1,-1
 582 1064 l 1,2,-1
 756 1064 l 1,3,-1
 756 958 l 1,4,-1
 582 958 l 1,5,-1
 582 787 l 1,6,7
 696.003 778.999 696.003 778.999 778 702 c 0,8,9
 876 608.002 876 608.002 876 380 c 0,10,11
 876 156 876 156 778 63 c 0,12,13
 681.001 -30 681.001 -30 510 -30 c 0,14,15
 438.004 -30 438.004 -30 372 -14 c 0,16,17
 307.009 2 307.009 2 245 36 c 1,18,-1
 245 254 l 1,19,-1
 340 254 l 1,20,21
 346.999 158 346.999 158 390 114 c 1,22,23
 432.001 68 432.001 68 514 68 c 0,24,25
 605.002 68 605.002 68 648 130 c 0,26,27
 691 190 691 190 691 380 c 0,28,29
 691 573.999 691 573.999 648 634 c 0,30,31
 605.002 696 605.002 696 514 696 c 2,32,-1
 398 696 l 1,33,-1
 398 958 l 1,34,-1
 222 958 l 1,35,-1
 222 1064 l 1,36,-1
 398 1064 l 1,37,-1
 398 1393 l 1,0,-1
EndSplineSet
EndChar
StartChar: uni01BF
Encoding: 447 447 447
Width: 1300
Flags: W
LayerCount: 2
Fore
SplineSet
420 950 m 1,0,1
 575 1147 575 1147 848 1147 c 0,2,3
 1032 1147 1032 1147 1109.5 1034.5 c 128,-1,4
 1187 922 1187 922 1187 769 c 0,5,6
 1187 315 1187 315 420 -122 c 1,7,-1
 420 -319 l 1,8,-1
 594 -319 l 1,9,-1
 594 -426 l 1,10,-1
 59 -426 l 1,11,-1
 59 -319 l 1,12,-1
 236 -319 l 1,13,-1
 236 956 l 1,14,-1
 59 956 l 1,15,-1
 59 1063 l 1,16,-1
 420 1063 l 1,17,-1
 420 950 l 1,0,1
420 -10 m 1,18,19
 1003 358 1003 358 1003 769 c 0,20,21
 1003 902 1003 902 943 977 c 128,-1,22
 883 1052 883 1052 763 1052 c 0,23,24
 593 1052 593 1052 420 813 c 1,25,-1
 420 -10 l 1,18,19
EndSplineSet
EndChar
StartChar: uni01C0
Encoding: 448 448 448
Width: 604
Flags: W
LayerCount: 2
Fore
SplineSet
383 1493 m 1,0,-1
 383 0 l 1,1,-1
 221 0 l 1,2,-1
 221 1493 l 1,3,-1
 383 1493 l 1,0,-1
EndSplineSet
EndChar
StartChar: uni01C2
Encoding: 450 450 450
Width: 940
Flags: W
LayerCount: 2
Fore
SplineSet
389 851 m 1,0,-1
 18 851 l 1,1,-1
 18 1013 l 1,2,-1
 389 1013 l 1,3,-1
 389 1493 l 1,4,-1
 551 1493 l 1,5,-1
 551 1013 l 1,6,-1
 922 1013 l 1,7,-1
 922 851 l 1,8,-1
 551 851 l 1,9,-1
 551 642 l 1,10,-1
 922 642 l 1,11,-1
 922 480 l 1,12,-1
 551 480 l 1,13,-1
 551 0 l 1,14,-1
 389 0 l 1,15,-1
 389 480 l 1,16,-1
 18 480 l 1,17,-1
 18 642 l 1,18,-1
 389 642 l 1,19,-1
 389 851 l 1,0,-1
EndSplineSet
EndChar
StartChar: uni01C3
Encoding: 451 451 451
Width: 604
Flags: W
LayerCount: 2
Fore
SplineSet
383 156 m 1,0,-1
 383 0 l 1,1,-1
 221 0 l 1,2,-1
 221 156 l 1,3,-1
 383 156 l 1,0,-1
383 1493 m 1,4,-1
 383 312 l 1,5,-1
 221 312 l 1,6,-1
 221 1493 l 1,7,-1
 383 1493 l 1,4,-1
EndSplineSet
EndChar
StartChar: uni01E4
Encoding: 484 484 484
Width: 1736
Flags: W
LayerCount: 2
Fore
SplineSet
1311 1047 m 1,0,1
 1276 1234 1276 1234 1165 1323.5 c 128,-1,2
 1054 1413 1054 1413 856 1413 c 0,3,4
 598 1413 598 1413 471 1247 c 128,-1,5
 344 1081 344 1081 344 745 c 0,6,7
 344 416 344 416 475 247 c 128,-1,8
 606 78 606 78 860 78 c 0,9,10
 973 78 973 78 1076 106 c 128,-1,11
 1179 134 1179 134 1272 190 c 1,12,-1
 1272 320 l 1,13,-1
 828 320 l 1,14,-1
 828 427 l 1,15,-1
 1272 427 l 1,16,-1
 1272 575 l 1,17,-1
 991 575 l 1,18,-1
 991 682 l 1,19,-1
 1475 682 l 1,20,-1
 1475 427 l 1,21,-1
 1676 427 l 1,22,-1
 1676 320 l 1,23,-1
 1475 320 l 1,24,-1
 1475 125 l 1,25,26
 1342 48 1342 48 1188.5 9.5 c 128,-1,27
 1035 -29 1035 -29 860 -29 c 0,28,29
 522 -29 522 -29 318.5 182.5 c 128,-1,30
 115 394 115 394 115 745 c 0,31,32
 115 1099 115 1099 319 1309.5 c 128,-1,33
 523 1520 523 1520 868 1520 c 0,34,35
 996 1520 996 1520 1132.5 1490.5 c 128,-1,36
 1269 1461 1269 1461 1423 1401 c 1,37,-1
 1423 1047 l 1,38,-1
 1311 1047 l 1,0,1
EndSplineSet
EndChar
StartChar: uni01E5
Encoding: 485 485 485
Width: 1311
Flags: W
LayerCount: 2
Fore
SplineSet
891 479 m 1,0,-1
 650 479 l 1,1,-1
 650 586 l 1,2,-1
 890.998 586 l 1,3,4
 890.615 775.529 890.615 775.529 817.5 876 c 0,5,6
 744 977 744 977 604 977 c 0,7,8
 462 977 462 977 389.5 865 c 128,-1,9
 317 753 317 753 317 532 c 0,10,11
 317 312 317 312 389.5 199 c 128,-1,12
 462 86 462 86 604 86 c 0,13,14
 744 86 744 86 817.5 186.5 c 128,-1,15
 891 287 891 287 891 479 c 1,0,-1
1075 479 m 1,16,-1
 1075 23 l 2,17,18
 1075 -206 1075 -206 949 -330.5 c 128,-1,19
 823 -455 823 -455 590 -455 c 0,20,21
 485 -455 485 -455 389 -436 c 128,-1,22
 293 -417 293 -417 205 -379 c 1,23,-1
 205 -156 l 1,24,-1
 301 -156 l 1,25,26
 319 -260 319 -260 386 -308 c 128,-1,27
 453 -356 453 -356 578 -356 c 0,28,29
 740 -356 740 -356 815.5 -264.5 c 128,-1,30
 891 -173 891 -173 891 23 c 2,31,-1
 891 166 l 1,32,33
 837 66 837 66 753.5 18.5 c 128,-1,34
 670 -29 670 -29 547 -29 c 0,35,36
 351 -29 351 -29 226.5 126.5 c 128,-1,37
 102 282 102 282 102 532 c 128,-1,38
 102 782 102 782 226 937 c 128,-1,39
 350 1092 350 1092 547 1092 c 0,40,41
 670 1092 670 1092 753.5 1044.5 c 128,-1,42
 837 997 837 997 891 897 c 1,43,-1
 891 1063 l 1,44,-1
 1251 1063 l 1,45,-1
 1251 956 l 1,46,-1
 1075 956 l 1,47,-1
 1075 586 l 1,48,-1
 1251 586 l 1,49,-1
 1251 479 l 1,50,-1
 1075 479 l 1,16,-1
EndSplineSet
EndChar
StartChar: uni01F6
Encoding: 502 502 502
Width: 2363
Flags: W
LayerCount: 2
Fore
SplineSet
1280 594 m 2,0,-1
 1280 748 l 1,1,-1
 506 748 l 1,2,-1
 506 106 l 1,3,-1
 696 106 l 1,4,-1
 696 0 l 1,5,-1
 113 0 l 1,6,-1
 113 106 l 1,7,-1
 303 106 l 1,8,-1
 303 1386 l 1,9,-1
 113 1386 l 1,10,-1
 113 1493 l 1,11,-1
 696 1493 l 1,12,-1
 696 1386 l 1,13,-1
 506 1386 l 1,14,-1
 506 870 l 1,15,-1
 1280 870 l 1,16,-1
 1280 1386 l 1,17,-1
 1090 1386 l 1,18,-1
 1090 1493 l 1,19,-1
 1673 1493 l 1,20,-1
 1673 1386 l 1,21,-1
 1483 1386 l 1,22,-1
 1483 614 l 2,23,24
 1483 328 1483 328 1576 215 c 0,25,26
 1670 102 1670 102 1800 102 c 0,27,28
 1944 102 1944 102 2014 215 c 0,29,30
 2088 333 2088 333 2088 614 c 2,31,-1
 2088 955 l 1,32,-1
 1914 955 l 1,33,-1
 1914 1063 l 1,34,-1
 2272 1063 l 1,35,-1
 2272 594 l 2,36,37
 2272 253 2272 253 2140 112 c 0,38,39
 2010 -29 2010 -29 1810 -29 c 0,40,41
 1549 -29 1549 -29 1414 113 c 0,42,43
 1280 255 1280 255 1280 594 c 2,0,-1
EndSplineSet
EndChar
StartChar: uni01F7
Encoding: 503 503 503
Width: 1447
Flags: W
LayerCount: 2
Fore
SplineSet
506 281 m 17,0,1
 1129 711 1129 711 1129 1114 c 0,2,3
 1129 1257 1129 1257 1068.5 1335 c 128,-1,4
 1008 1413 1008 1413 879 1413 c 0,5,6
 692 1413 692 1413 506 1156 c 1,7,-1
 506 281 l 17,0,1
506 1308 m 1,8,9
 671 1520 671 1520 970 1520 c 0,10,11
 1168 1520 1168 1520 1251.5 1399 c 128,-1,12
 1335 1278 1335 1278 1335 1114 c 0,13,14
 1335 629 1335 629 506 156 c 1,15,-1
 506 -320 l 1,16,-1
 737 -320 l 1,17,-1
 737 -426 l 1,18,-1
 113 -426 l 1,19,-1
 113 -320 l 1,20,-1
 303 -320 l 1,21,-1
 303 1386 l 1,22,-1
 113 1386 l 1,23,-1
 113 1493 l 1,24,-1
 506 1493 l 1,25,-1
 506 1308 l 1,8,9
EndSplineSet
EndChar
StartChar: Aringacute
Encoding: 506 506 506
Width: 1479
Flags: W
LayerCount: 2
Fore
SplineSet
702 1206 m 9,0,-1
 668 1208 l 17,1,-1
 410 541 l 1,2,-1
 958 541 l 1,3,-1
 702 1206 l 9,0,-1
887 1459 m 128,-1,5
 887 1522 887 1522 842.5 1566.5 c 128,-1,6
 798 1611 798 1611 735 1611 c 0,7,8
 671 1611 671 1611 627.5 1567.5 c 128,-1,9
 584 1524 584 1524 584 1459 c 0,10,11
 584 1396 584 1396 627.5 1352 c 128,-1,12
 671 1308 671 1308 735 1308 c 0,13,14
 798 1308 798 1308 842.5 1352 c 128,-1,4
 887 1396 887 1396 887 1459 c 128,-1,5
828 1899 m 1,15,-1
 1025 1899 l 1,16,-1
 814.511 1723.06 l 1,17,18
 878.681 1704.32 878.681 1704.32 929.5 1653.5 c 0,19,20
 1010 1573 1010 1573 1010 1459 c 0,21,22
 1010 1379 1010 1379 971 1315.5 c 0,23,24
 947.658 1277.5 947.658 1277.5 912.496 1249.7 c 1,25,-1
 1352 106 l 1,26,-1
 1499 106 l 1,27,-1
 1499 0 l 1,28,-1
 956 0 l 1,29,-1
 956 106 l 1,30,-1
 1122 106 l 1,31,-1
 997 434 l 1,32,-1
 369 434 l 1,33,-1
 244 106 l 1,34,-1
 408 106 l 1,35,-1
 408 0 l 1,36,-1
 -12 0 l 1,37,-1
 -12 106 l 1,38,-1
 119 106 l 1,39,-1
 557.486 1249.2 l 1,40,41
 521.503 1277.58 521.503 1277.58 498.5 1315 c 0,42,43
 461 1376 461 1376 461 1459 c 0,44,45
 461 1573 461 1573 541 1653.5 c 0,46,47
 603.901 1716.79 603.901 1716.79 687.82 1730.32 c 1,48,-1
 828 1899 l 1,15,-1
EndSplineSet
EndChar
StartChar: aringacute
Encoding: 507 507 507
Width: 1221
Flags: W
LayerCount: 2
Fore
SplineSet
815 334 m 2,0,-1
 815 559 l 1,1,-1
 578 559 l 2,2,3
 441 559 441 559 374 500 c 128,-1,4
 307 441 307 441 307 319 c 0,5,6
 307 208 307 208 375 143 c 128,-1,7
 443 78 443 78 559 78 c 0,8,9
 674 78 674 78 744.5 149 c 128,-1,10
 815 220 815 220 815 334 c 2,0,-1
999 664 m 2,11,-1
 999 106 l 1,12,-1
 1163 106 l 1,13,-1
 1163 0 l 1,14,-1
 815 0 l 1,15,-1
 815 115 l 1,16,17
 754 41 754 41 674 6 c 128,-1,18
 594 -29 594 -29 487 -29 c 0,19,20
 310 -29 310 -29 206 65 c 128,-1,21
 102 159 102 159 102 319 c 0,22,23
 102 484 102 484 221 575 c 128,-1,24
 340 666 340 666 557 666 c 2,25,-1
 815 666 l 1,26,-1
 815 739 l 2,27,28
 815 860 815 860 741.5 926.5 c 128,-1,29
 668 993 668 993 535 993 c 0,30,31
 425 993 425 993 360 943 c 128,-1,32
 295 893 295 893 279 795 c 1,33,-1
 184 795 l 1,34,-1
 184 1010 l 1,35,36
 280 1051 280 1051 370.5 1071.5 c 128,-1,37
 461 1092 461 1092 547 1092 c 0,38,39
 768 1092 768 1092 883.5 982.5 c 128,-1,40
 999 873 999 873 999 664 c 2,11,-1
661 1899 m 1,0,-1
 858 1899 l 1,1,-1
 673.99 1713.59 l 1,2,3
 723.287 1693.71 723.287 1693.71 763.5 1653.5 c 0,4,5
 843 1574 843 1574 843 1459 c 128,-1,7
 843 1344 843 1344 763.5 1264 c 128,-1,9
 684 1184 684 1184 569 1184 c 128,-1,11
 454 1184 454 1184 374.5 1264 c 128,-1,13
 295 1344 295 1344 295 1459 c 128,-1,15
 295 1574 295 1574 374.5 1653.5 c 0,16,17
 445.921 1724.92 445.921 1724.92 545.995 1732.18 c 1,18,-1
 661 1899 l 1,0,-1
721 1459 m 0,19,20
 721 1522 721 1522 677 1566 c 128,-1,22
 633 1610 633 1610 569 1610 c 0,23,24
 504 1610 504 1610 460.5 1566.5 c 128,-1,26
 417 1523 417 1523 417 1459 c 0,27,28
 417 1394 417 1394 460.5 1350.5 c 128,-1,30
 504 1307 504 1307 569 1307 c 0,31,32
 633 1307 633 1307 677 1351 c 128,-1,34
 721 1395 721 1395 721 1459 c 0,19,20
EndSplineSet
EndChar
StartChar: uni021C
Encoding: 540 540 540
Width: 1284
Flags: W
LayerCount: 2
Fore
SplineSet
156 1391 m 1,0,1
 472 1520 472 1520 655 1520 c 128,-1,2
 838 1520 838 1520 971 1415.5 c 128,-1,3
 1104 1311 1104 1311 1104 1137 c 128,-1,4
 1104 963 1104 963 1027.5 857 c 128,-1,5
 951 751 951 751 831 674 c 1,6,7
 969 655 969 655 1054 541 c 128,-1,8
 1139 427 1139 427 1139 314 c 0,9,10
 1139 96 1139 96 999 -36.5 c 128,-1,11
 859 -169 859 -169 618.5 -263 c 128,-1,12
 378 -357 378 -357 156 -430 c 1,13,-1
 156 -315 l 1,14,15
 348 -246 348 -246 524 -159.5 c 128,-1,16
 700 -73 700 -73 808 41.5 c 128,-1,17
 916 156 916 156 916 291.5 c 128,-1,18
 916 427 916 427 846 498 c 0,19,20
 727 619 727 619 559 537 c 2,21,-1
 328 424 l 1,22,-1
 328 532 l 1,23,-1
 562 655 l 2,24,25
 700 728 700 728 801 864 c 0,26,27
 877 967 877 967 877 1123 c 128,-1,28
 877 1279 877 1279 793 1346 c 128,-1,29
 709 1413 709 1413 590.5 1418 c 128,-1,30
 472 1423 472 1423 377 1320 c 0,31,32
 296 1217 296 1217 269 1047 c 1,33,-1
 156 1047 l 1,34,-1
 156 1391 l 1,0,1
EndSplineSet
EndChar
StartChar: uni021D
Encoding: 541 541 541
Width: 1068
Flags: W
LayerCount: 2
Fore
SplineSet
306 943 m 0,0,1
 203 876 203 876 178 708 c 1,2,-1
 71 708 l 1,3,-1
 71 980 l 1,4,5
 161 1023 161 1023 288.5 1056.5 c 128,-1,6
 416 1090 416 1090 554 1085.5 c 128,-1,7
 692 1081 692 1081 808 999 c 128,-1,8
 924 917 924 917 924 791.5 c 128,-1,9
 924 666 924 666 855.5 580 c 128,-1,10
 787 494 787 494 679 431 c 1,11,12
 803 416 803 416 879.5 328.5 c 128,-1,13
 956 241 956 241 956 160 c 0,14,15
 956 -17 956 -17 828.5 -125.5 c 128,-1,16
 701 -234 701 -234 467.5 -317 c 128,-1,17
 234 -400 234 -400 71 -433 c 1,18,-1
 71 -333 l 1,19,20
 228 -290 228 -290 392.5 -221 c 128,-1,21
 557 -152 557 -152 666 -49 c 0,22,23
 750 31 750 31 750 133.5 c 128,-1,24
 750 236 750 236 688 293 c 0,25,26
 591 381 591 381 432 319 c 2,27,-1
 226 239 l 1,28,-1
 226 339 l 1,29,-1
 432 425 l 2,30,31
 548 473 548 473 634 576 c 0,32,33
 711 670 711 670 711 774.5 c 128,-1,34
 711 879 711 879 639.5 933.5 c 128,-1,35
 568 988 568 988 480 988 c 0,36,37
 375 988 375 988 306 943 c 0,0,1
EndSplineSet
EndChar
StartChar: uni0220
Encoding: 544 544 544
Width: 1726
Flags: W
LayerCount: 2
Fore
SplineSet
96 0 m 1,0,-1
 96 107 l 1,1,-1
 287 107 l 1,2,-1
 287 1386 l 1,3,-1
 111 1386 l 1,4,-1
 111 1493 l 1,5,-1
 490 1493 l 1,6,-1
 490 1292.19 l 1,7,8
 564 1406.11 564 1406.11 681 1464.12 c 128,-1,9
 798 1522.13 798 1522.13 953 1522.13 c 0,10,11
 1205.89 1522.13 1205.89 1522.13 1325 1376.31 c 128,-1,12
 1444 1230.62 1444 1230.62 1444 921.92 c 2,13,-1
 1444 -319 l 1,14,-1
 1634 -319 l 1,15,-1
 1634 -426 l 1,16,-1
 1048.28 -426 l 1,17,-1
 1048.28 -319 l 1,18,-1
 1239.28 -319 l 1,19,-1
 1239.28 880.645 l 2,20,21
 1239.28 1173.39 1239.28 1173.39 1164.35 1282.23 c 128,-1,22
 1089.42 1391.08 1089.42 1391.08 898.981 1391.08 c 0,23,24
 699.174 1391.08 699.174 1391.08 594.587 1262.37 c 128,-1,25
 490 1133.66 490 1133.66 490 887.253 c 2,26,-1
 490 107 l 1,27,-1
 680 107 l 1,28,-1
 680 0 l 1,29,-1
 96 0 l 1,0,-1
EndSplineSet
EndChar
StartChar: uni0221
Encoding: 545 545 545
Width: 1667
Flags: W
LayerCount: 2
Fore
SplineSet
1255 -51 m 0,0,1
 1522 -51 1522 -51 1522 56 c 0,2,3
 1522 179 1522 179 1103 179 c 0,4,5
 1089 179 1089 179 1075 178 c 1,6,7
 1067 83 1067 83 1120 11 c 0,8,9
 1166 -51 1166 -51 1255 -51 c 0,0,1
891 479 m 2,10,-1
 891 584 l 2,11,12
 891 775 891 775 817.5 876 c 128,-1,13
 744 977 744 977 604 977 c 0,14,15
 462 977 462 977 389.5 865 c 128,-1,16
 317 753 317 753 317 532 c 0,17,18
 317 312 317 312 389.5 199 c 128,-1,19
 462 86 462 86 604 86 c 0,20,21
 744 86 744 86 817.5 186.5 c 128,-1,22
 891 287 891 287 891 479 c 2,10,-1
1075 279.224 m 1,23,24
 1082.43 279.255 1082.43 279.255 1090 279 c 2,25,-1
 1099 279 l 2,26,27
 1636.81 279 1636.81 279 1632 49 c 0,28,29
 1627.84 -150 1627.84 -150 1253 -150 c 0,30,31
 1092 -150 1092 -150 990 -57 c 0,32,33
 925 4 925 4 902 75 c 1,34,35
 871 14 871 14 871 -81 c 2,36,-1
 871 -145 l 1,37,-1
 771 -145 l 1,38,-1
 772 -81 l 2,39,40
 773.03 -15.0764 773.03 -15.0764 784.636 38.7935 c 1,41,42
 769.618 27.6687 769.618 27.6687 753.5 18.5 c 0,43,44
 670 -29 670 -29 547 -29 c 0,45,46
 351 -29 351 -29 226.5 126.5 c 128,-1,47
 102 282 102 282 102 532 c 128,-1,48
 102 782 102 782 226 937 c 128,-1,49
 350 1092 350 1092 547 1092 c 0,50,51
 670 1092 670 1092 753.5 1044.5 c 128,-1,52
 837 997 837 997 891 897 c 1,53,-1
 891 1450 l 1,54,-1
 717 1450 l 1,55,-1
 717 1556 l 1,56,-1
 1075 1556 l 1,57,-1
 1075 279.224 l 1,23,24
EndSplineSet
EndChar
StartChar: uni0222
Encoding: 546 546 546
Width: 1171
Flags: W
AnchorPoint: "above" 585 1465 basechar 0
AnchorPoint: "below" 585 0 basechar 0
LayerCount: 2
Fore
SplineSet
306 1156 m 0,0,1
 306 1051 306 1051 650 882 c 1,2,3
 871 998 871 998 871 1194 c 0,4,5
 871 1423 871 1423 651 1423 c 1,6,-1
 651 1520 l 1,7,8
 1036 1520 1036 1520 1036 1170 c 0,9,10
 1036 970 1036 970 757 823 c 1,11,12
 1114 611 1114 611 1114 368 c 0,13,14
 1114 -29 1114 -29 585 -29 c 0,15,16
 82 -29 82 -29 82 368 c 0,17,18
 82 603 82 603 406 772 c 1,19,20
 136 929 136 929 136 1110 c 0,21,22
 136 1384 136 1384 489 1382 c 1,23,-1
 489 1284 l 1,24,25
 306 1284 306 1284 306 1156 c 0,0,1
585 70 m 0,26,27
 884 70 884 70 884 368 c 0,28,29
 884 543 884 543 514 715 c 1,30,31
 249 583 249 583 249 368 c 0,32,33
 249 70 249 70 585 70 c 0,26,27
EndSplineSet
EndChar
StartChar: uni0223
Encoding: 547 547 547
Width: 1131
Flags: W
AnchorPoint: "below" 565 0 basechar 0
AnchorPoint: "above" 565 1536 basechar 0
LayerCount: 2
Fore
SplineSet
565 70 m 0,0,1
 844 70 844 70 844 378 c 0,2,3
 844 588 844 588 500 757 c 1,4,5
 249 629 249 629 249 378 c 0,6,7
 249 70 249 70 565 70 c 0,0,1
820 1252 m 0,8,9
 820 1348 820 1348 690 1497 c 1,10,-1
 802 1556 l 1,11,12
 969 1400 969 1400 969 1208 c 0,13,14
 969 989 969 989 728 860 c 1,15,16
 1028 668 1028 668 1028 378 c 0,17,18
 1028 -29 1028 -29 565 -29 c 128,-1,19
 102 -29 102 -29 102 378 c 0,20,21
 102 649 102 649 397 814 c 1,22,23
 146 965 146 965 146 1189 c 0,24,25
 146 1339 146 1339 324 1556 c 1,26,-1
 407 1504 l 1,27,28
 286 1347 286 1347 286 1238 c 0,29,30
 286 1095 286 1095 623 920 c 1,31,32
 820 1028 820 1028 820 1252 c 0,8,9
EndSplineSet
EndChar
StartChar: uni0224
Encoding: 548 548 548
Width: 1423
Flags: W
LayerCount: 2
Fore
SplineSet
92 0 m 1,0,-1
 92 72 l 1,1,-1
 1022 1370 l 1,2,-1
 250 1370 l 1,3,-1
 250 1147 l 1,4,-1
 127 1147 l 1,5,-1
 127 1493 l 1,6,-1
 1307 1493 l 1,7,-1
 1307 1421 l 1,8,-1
 377 123 l 1,9,-1
 1146 123 l 1,10,-1
 1343 123 l 1,11,12
 1335 -48 1335 -48 1262.5 -170.5 c 128,-1,14
 1190 -293 1190 -293 1044 -383 c 1,15,-1
 964 -303 l 1,16,17
 1058 -234 1058 -234 1102 -140.5 c 0,18,19
 1131.02 -78.8393 1131.02 -78.8393 1140.9 -2.4096e-07 c 1,20,-1
 92 0 l 1,0,-1
EndSplineSet
EndChar
StartChar: uni0225
Encoding: 549 549 549
Width: 1079
Flags: W
LayerCount: 2
Fore
SplineSet
82 0 m 1,0,-1
 82 86 l 1,1,-1
 748 956 l 1,2,-1
 221 956 l 1,3,-1
 221 772 l 1,4,-1
 115 772 l 1,5,-1
 115 1063 l 1,6,-1
 985 1063 l 1,7,-1
 985 977 l 1,8,-1
 319 106 l 1,9,-1
 807 106 l 1,10,-1
 1004 106 l 1,11,12
 996 -65 996 -65 923.5 -187.5 c 128,-1,14
 851 -310 851 -310 705 -400 c 1,15,-1
 625 -320 l 1,16,17
 719 -251 719 -251 763 -157.5 c 0,18,19
 795.109 -89.2677 795.109 -89.2677 803.787 3.9304e-07 c 1,20,-1
 82 0 l 1,0,-1
EndSplineSet
EndChar
StartChar: uni0234
Encoding: 564 564 564
Width: 1025
Flags: W
LayerCount: 2
Fore
SplineSet
515 164 m 1,0,1
 583 70 583 70 721 70 c 0,2,3
 880 68 880 68 880 177 c 0,4,5
 880 301 880 301 769 300 c 0,6,7
 589 298 589 298 515 164 c 1,0,1
420 532 m 2,8,9
 420 373 420 373 456 268 c 1,10,11
 596.61 408 596.61 408 786 408 c 0,12,13
 990 408 990 408 990 170 c 0,14,15
 990 -29.0596 990 -29.0596 719 -29 c 0,16,17
 565.949 -28.9658 565.949 -28.9658 459 42 c 1,18,19
 450 10 450 10 451 -75 c 1,20,-1
 451 -219 l 1,21,-1
 337 -219 l 1,22,-1
 338 -75 l 1,23,24
 341 26 341 26 365 105 c 1,25,-1
 346 124 l 0,26,27
 236 294.669 236 294.669 236 532 c 2,28,-1
 236 1450 l 1,29,-1
 59 1450 l 1,30,-1
 59 1556 l 1,31,-1
 420 1556 l 1,32,-1
 420 532 l 2,8,9
EndSplineSet
EndChar
StartChar: uni0235
Encoding: 565 565 565
Width: 1703
Flags: W
LayerCount: 2
Fore
SplineSet
1193 164 m 1,0,1
 1261 70 1261 70 1399 70 c 0,2,3
 1558 68 1558 68 1558 177 c 0,4,5
 1558 301 1558 301 1447 300 c 0,6,7
 1267 298 1267 298 1193 164 c 1,0,1
913 618 m 18,8,9
 913 813 913 813 865 885.5 c 128,-1,10
 817 958 817 958 696 958 c 0,11,12
 568 958 568 958 501 864.5 c 128,-1,13
 434 771 434 771 434 592 c 2,14,-1
 434 106 l 1,15,-1
 594 106 l 1,16,-1
 594 0 l 1,17,-1
 84 0 l 1,18,-1
 84 106 l 1,19,-1
 250 106 l 1,20,-1
 250 956 l 1,21,-1
 74 956 l 1,22,-1
 74 1063 l 1,23,-1
 434 1063 l 1,24,-1
 434 874 l 1,25,26
 485 982 485 982 566.5 1037 c 128,-1,27
 648 1092 648 1092 756 1092 c 0,28,29
 932 1092 932 1092 1015 991 c 128,-1,30
 1098 890 1098 890 1098 676 c 10,31,-1
 1098 532 l 18,32,33
 1098 354.932 1098 354.932 1134 268 c 1,34,35
 1274.61 408 1274.61 408 1464 408 c 0,36,37
 1668 408 1668 408 1668 170 c 0,38,39
 1668 -29.0596 1668 -29.0596 1397 -29 c 0,40,41
 1243.95 -28.9658 1243.95 -28.9658 1137 42 c 1,42,43
 1128 10 1128 10 1129 -75 c 1,44,-1
 1129 -219 l 1,45,-1
 1015 -219 l 1,46,-1
 1016 -75 l 1,47,48
 1019 26 1019 26 1043 105 c 1,49,-1
 1024 124 l 0,50,51
 913 296.222 913 296.222 913 532 c 10,52,-1
 913 618 l 18,8,9
EndSplineSet
EndChar
StartChar: uni0236
Encoding: 566 566 566
Width: 1011
Flags: W
LayerCount: 2
Fore
SplineSet
501 164 m 1,0,1
 569 70 569 70 707 70 c 0,2,3
 866 68 866 68 866 177 c 0,4,5
 866 301 866 301 755 300 c 0,6,7
 575 298 575 298 501 164 c 1,0,1
406 956 m 9,8,-1
 406 532 l 2,9,10
 406 373 406 373 442 268 c 1,11,12
 582.611 408 582.611 408 772 408 c 0,13,14
 976 408 976 408 976 170 c 0,15,16
 976 -29.06 976 -29.06 705 -29 c 0,17,18
 551.949 -28.9661 551.949 -28.9661 445 42 c 1,19,20
 436 10 436 10 437 -75 c 1,21,-1
 437 -219 l 1,22,-1
 323 -219 l 1,23,-1
 324 -75 l 1,24,25
 327 26 327 26 351 105 c 1,26,-1
 332 124 l 0,27,28
 221 296.221 221 296.221 221 532 c 10,29,-1
 221 956 l 17,30,-1
 59 956 l 1,31,-1
 59 1063 l 1,32,-1
 221 1063 l 1,33,-1
 221 1393 l 1,34,-1
 406 1393 l 1,35,-1
 406 1063 l 1,36,-1
 752 1063 l 1,37,-1
 752 956 l 1,38,-1
 406 956 l 9,8,-1
EndSplineSet
EndChar
StartChar: dotlessj
Encoding: 567 567 567
Width: 635
Flags: W
AnchorPoint: "below" 118 -430 basechar 0
AnchorPoint: "above" 328 1092 basechar 0
LayerCount: 2
Fore
SplineSet
250 956 m 1,0,-1
 76 956 l 1,1,-1
 76 1063 l 1,2,-1
 434 1063 l 1,3,-1
 434 -104 l 2,4,5
 434 -268 434 -268 336.5 -361.5 c 128,-1,6
 239 -455 239 -455 68 -455 c 0,7,8
 -4 -455 -4 -455 -69.5 -438.5 c 128,-1,9
 -135 -422 -135 -422 -197 -389 c 1,10,-1
 -197 -170 l 1,11,-1
 -102 -170 l 1,12,13
 -95 -266 -95 -266 -52.5 -311 c 128,-1,14
 -10 -356 -10 -356 72 -356 c 0,15,16
 163 -356 163 -356 206.5 -294.5 c 128,-1,17
 250 -233 250 -233 250 -104 c 2,18,-1
 250 956 l 1,0,-1
EndSplineSet
EndChar
StartChar: uni0238
Encoding: 568 568 568
Width: 1966
Flags: W
LayerCount: 2
Fore
SplineSet
891 479 m 2,0,-1
 891 584 l 2,1,2
 891 775 891 775 817.5 876 c 128,-1,3
 744 977 744 977 604 977 c 0,4,5
 462 977 462 977 389.5 865 c 128,-1,6
 317 753 317 753 317 532 c 0,7,8
 317 312 317 312 389.5 199 c 128,-1,9
 462 86 462 86 604 86 c 0,10,11
 744 86 744 86 817.5 186.5 c 128,-1,12
 891 287 891 287 891 479 c 2,0,-1
1075 479 m 2,13,14
 1075 287 1075 287 1148.5 186.5 c 128,-1,15
 1222 86 1222 86 1362 86 c 0,16,17
 1503 86 1503 86 1575.5 199 c 128,-1,18
 1648 312 1648 312 1648 532 c 0,19,20
 1648 753 1648 753 1575.5 865 c 128,-1,21
 1503 977 1503 977 1362 977 c 0,22,23
 1222 977 1222 977 1148.5 876 c 128,-1,24
 1075 775 1075 775 1075 584 c 2,25,-1
 1075 479 l 2,13,14
891 0 m 1,26,-1
 891 166 l 1,27,28
 837 66 837 66 753.5 18.5 c 128,-1,29
 670 -29 670 -29 547 -29 c 0,30,31
 351 -29 351 -29 226.5 126.5 c 128,-1,32
 102 282 102 282 102 532 c 128,-1,33
 102 782 102 782 226 937 c 128,-1,34
 350 1092 350 1092 547 1092 c 0,35,36
 670 1092 670 1092 753.5 1044.5 c 128,-1,37
 837 997 837 997 891 897 c 1,38,-1
 891 1450 l 1,39,-1
 714 1450 l 1,40,-1
 714 1556 l 1,41,-1
 1075 1556 l 1,42,-1
 1075 897 l 1,43,44
 1129 997 1129 997 1212.5 1044.5 c 128,-1,45
 1296 1092 1296 1092 1419 1092 c 0,46,47
 1615 1092 1615 1092 1739 937 c 128,-1,48
 1863 782 1863 782 1863 532 c 128,-1,49
 1863 282 1863 282 1739 126.5 c 128,-1,50
 1615 -29 1615 -29 1419 -29 c 0,51,52
 1296 -29 1296 -29 1212.5 18.5 c 128,-1,53
 1129 66 1129 66 1075 166 c 1,54,-1
 1075 0 l 1,55,-1
 891 0 l 1,26,-1
EndSplineSet
EndChar
StartChar: uni0239
Encoding: 569 569 569
Width: 1966
Flags: W
LayerCount: 2
Fore
SplineSet
891 584 m 2,0,1
 891 775 891 775 817.5 876 c 128,-1,2
 744 977 744 977 604 977 c 0,3,4
 462 977 462 977 389.5 865 c 128,-1,5
 317 753 317 753 317 532 c 0,6,7
 317 312 317 312 389.5 199 c 128,-1,8
 462 86 462 86 604 86 c 0,9,10
 744 86 744 86 817.5 186.5 c 128,-1,11
 891 287 891 287 891 479 c 2,12,-1
 891 584 l 2,0,1
891 956 m 1,13,-1
 891 1063 l 1,14,-1
 1075 1063 l 1,15,-1
 1075 956 l 1,16,-1
 1075 897 l 1,17,18
 1129 997 1129 997 1212.5 1044.5 c 128,-1,19
 1296 1092 1296 1092 1419 1092 c 0,20,21
 1615 1092 1615 1092 1739 937 c 128,-1,22
 1863 782 1863 782 1863 532 c 128,-1,23
 1863 282 1863 282 1739 126.5 c 128,-1,24
 1615 -29 1615 -29 1419 -29 c 0,25,26
 1296 -29 1296 -29 1212.5 18.5 c 128,-1,27
 1129 66 1129 66 1075 166 c 1,28,-1
 1075 -319 l 1,29,-1
 1249 -319 l 1,30,-1
 1251 -319 l 1,31,-1
 1251 -426 l 1,32,-1
 1249 -426 l 1,33,-1
 717 -426 l 1,34,-1
 717 -319 l 1,35,-1
 891 -319 l 1,36,-1
 891 166 l 1,37,38
 837 66 837 66 753.5 18.5 c 128,-1,39
 670 -29 670 -29 547 -29 c 0,40,41
 351 -29 351 -29 226.5 126.5 c 128,-1,42
 102 282 102 282 102 532 c 128,-1,43
 102 782 102 782 226 937 c 128,-1,44
 350 1092 350 1092 547 1092 c 0,45,46
 670 1092 670 1092 753.5 1044.5 c 128,-1,47
 837 997 837 997 891 897 c 1,48,-1
 891 956 l 1,13,-1
1075 584 m 2,49,-1
 1075 479 l 2,50,51
 1075 287 1075 287 1148.5 186.5 c 128,-1,52
 1222 86 1222 86 1362 86 c 0,53,54
 1503 86 1503 86 1575.5 199 c 128,-1,55
 1648 312 1648 312 1648 532 c 0,56,57
 1648 753 1648 753 1575.5 865 c 128,-1,58
 1503 977 1503 977 1362 977 c 0,59,60
 1222 977 1222 977 1148.5 876 c 128,-1,61
 1075 775 1075 775 1075 584 c 2,49,-1
EndSplineSet
EndChar
StartChar: uni023A
Encoding: 570 570 570
Width: 1479
Flags: W
LayerCount: 2
Fore
SplineSet
-12 0 m 1,0,-1
 -12 106 l 1,1,-1
 87.2601 106 l 1,2,-1
 142.257 166.635 l 1,3,-1
 651 1493 l 1,4,-1
 819 1493 l 1,5,-1
 975.623 1085.43 l 1,6,-1
 1397 1550 l 1,7,-1
 1477 1479 l 1,8,-1
 1018.22 974.574 l 1,9,-1
 1352 106 l 1,10,-1
 1499 106 l 1,11,-1
 1499 0 l 1,12,-1
 956 0 l 1,13,-1
 956 106 l 1,14,-1
 1122 106 l 1,15,-1
 997 434 l 1,16,-1
 526.567 434 l 1,17,-1
 255.36 135.808 l 1,18,-1
 244 106 l 1,19,-1
 408 106 l 1,20,-1
 408 0 l 1,21,-1
 131.842 0 l 1,22,-1
 80 -57 l 1,23,-1
 15.5652 1.66533e-16 l 1,24,-1
 -12 0 l 1,0,-1
357.578 404.027 m 1,25,-1
 384.763 434 l 1,26,-1
 369 434 l 1,27,-1
 357.578 404.027 l 1,25,-1
815.868 909.297 m 1,28,-1
 684 1251 l 1,29,-1
 410 541 l 1,30,-1
 481.815 541 l 1,31,-1
 815.868 909.297 l 1,28,-1
623.884 541 m 1,32,-1
 958 541 l 1,33,-1
 858.464 798.921 l 1,34,-1
 623.884 541 l 1,32,-1
EndSplineSet
EndChar
StartChar: uni023B
Encoding: 571 571 571
Width: 1567
Flags: W
LayerCount: 2
Fore
SplineSet
124 -57 m 1,0,-1
 46 12 l 1,1,-1
 263.448 251.738 l 1,2,3
 204.569 330.805 204.569 330.805 169.5 422.5 c 0,4,5
 115 565 115 565 115 745 c 0,6,7
 115 1093 115 1093 316 1306.5 c 128,-1,9
 517 1520 517 1520 846 1520 c 0,10,11
 968 1520 968 1520 1106 1488 c 0,12,13
 1209.36 1464.03 1209.36 1464.03 1324.5 1421.55 c 1,14,-1
 1441 1550 l 1,15,-1
 1521 1479 l 1,16,-1
 1403 1349.26 l 1,17,-1
 1403 1047 l 1,18,-1
 1290 1047 l 1,19,20
 1275.38 1121.27 1275.38 1121.27 1249.14 1180.09 c 1,21,-1
 439.549 289.945 l 1,22,23
 452.409 267.607 452.409 267.607 467 247.5 c 0,24,25
 590 78 590 78 829 78 c 0,26,27
 996 78 996 78 1104 157.5 c 128,-1,29
 1212 237 1212 237 1260 395 c 1,30,-1
 1444 395 l 1,31,32
 1378 186 1378 186 1222.5 78.5 c 128,-1,34
 1067 -29 1067 -29 829 -29 c 0,35,36
 683 -29 683 -29 558 21 c 128,-1,38
 433 71 433 71 336 168 c 2,39,-1
 332.157 171.869 l 1,40,-1
 124 -57 l 1,0,-1
392.882 394.441 m 1,41,-1
 1191.38 1274.79 l 1,42,43
 1168.65 1302.33 1168.65 1302.33 1141.5 1324 c 0,44,45
 1030 1413 1030 1413 829 1413 c 0,46,47
 590 1413 590 1413 467 1243.5 c 128,-1,49
 344 1074 344 1074 344 745 c 0,50,51
 344 538.225 344 538.225 392.882 394.441 c 1,41,-1
EndSplineSet
EndChar
StartChar: uni023C
Encoding: 572 572 572
Width: 1147
Flags: W
LayerCount: 2
Fore
SplineSet
113 -94 m 1,0,-1
 37 -31 l 1,1,-1
 205.793 170.129 l 1,2,3
 102 314.075 102 314.075 102 532 c 0,4,5
 102 787 102 787 243 939.5 c 128,-1,7
 384 1092 384 1092 616 1092 c 0,8,9
 717 1092 717 1092 817 1068.5 c 0,10,11
 873.712 1055.17 873.712 1055.17 930.746 1033.97 c 1,12,-1
 1034 1157 l 1,13,-1
 1110 1094 l 1,14,-1
 1018 984.375 l 1,15,-1
 1018 725 l 1,16,-1
 911 725 l 1,17,18
 902.429 782.142 902.429 782.142 885.611 826.624 c 1,19,-1
 374.433 217.517 l 1,20,21
 382.85 200.827 382.85 200.827 392.5 186 c 0,22,23
 468 70 468 70 618 70 c 0,24,25
 737 70 737 70 808 132 c 128,-1,27
 879 194 879 194 905 319 c 1,28,-1
 1053 319 l 1,29,30
 1014 149 1014 149 903 60 c 128,-1,32
 792 -29 792 -29 616 -29 c 0,33,34
 407.106 -29 407.106 -29 271.989 95.4468 c 1,35,-1
 113 -94 l 1,0,-1
336.817 326.254 m 1,36,-1
 832.148 916.478 l 1,37,38
 826.037 923.066 826.037 923.066 819.5 929 c 0,39,40
 749 993 749 993 618 993 c 0,41,42
 469 993 469 993 393 877.5 c 128,-1,44
 317 762 317 762 317 532 c 0,45,46
 317 414.166 317 414.166 336.817 326.254 c 1,36,-1
EndSplineSet
EndChar
StartChar: uni023D
Encoding: 573 573 573
Width: 1360
Flags: W
AnchorPoint: "below" 760 0 basechar 0
AnchorPoint: "above" 406 1465 basechar 0
LayerCount: 2
Fore
SplineSet
113 0 m 1,0,-1
 113 106 l 1,1,-1
 303 106 l 1,2,-1
 303 719 l 1,3,-1
 103 719 l 1,4,-1
 103 844 l 1,5,-1
 303 844 l 1,6,-1
 303 1386 l 1,7,-1
 113 1386 l 1,8,-1
 113 1493 l 1,9,-1
 696 1493 l 1,10,-1
 696 1386 l 1,11,-1
 506 1386 l 1,12,-1
 506 844 l 1,13,-1
 842 844 l 1,14,-1
 842 719 l 1,15,-1
 506 719 l 1,16,-1
 506 123 l 1,17,-1
 1188 123 l 1,18,-1
 1188 373 l 1,19,-1
 1311 373 l 1,20,-1
 1311 0 l 1,21,-1
 113 0 l 1,0,-1
EndSplineSet
EndChar
StartChar: uni023E
Encoding: 574 574 574
Width: 1366
Flags: W
LayerCount: 2
Fore
SplineSet
975 0 m 1,0,-1
 391 0 l 1,22,-1
 391 106 l 1,21,-1
 582 106 l 1,20,-1
 582 557.07 l 1,19,-1
 23.5 -57 l 1,18,-1
 -54.5 12 l 1,17,-1
 582 713.747 l 1,16,-1
 582 1374 l 1,15,-1
 143 1374 l 1,14,-1
 143 1141 l 1,13,-1
 20 1141 l 1,12,-1
 20 1493 l 1,11,-1
 1288.8 1493 l 1,10,-1
 1340.5 1550 l 1,9,-1
 1420.5 1479 l 1,8,-1
 1346 1397.09 l 1,7,-1
 1346 1141 l 1,6,-1
 1223 1141 l 1,5,-1
 1223 1261.85 l 1,4,-1
 784 779.169 l 1,3,-1
 784 106 l 1,2,-1
 975 106 l 1,1,-1
 975 0 l 1,0,-1
1180.86 1374 m 1,23,-1
 784 1374 l 1,25,-1
 784 936.454 l 1,24,-1
 1180.86 1374 l 1,23,-1
EndSplineSet
EndChar
StartChar: uni023F
Encoding: 575 575 575
Width: 1051
Flags: W
LayerCount: 2
Fore
SplineSet
408 -33 m 1,0,-1
 482 -195 l 2,1,2
 524.406 -287.835 524.406 -287.835 552.5 -317.5 c 0,3,4
 581.385 -348 581.385 -348 661 -348 c 0,5,6
 704 -348 704 -348 732.5 -318.5 c 128,-1,8
 761 -289 761 -289 767 -221 c 1,9,-1
 861 -221 l 1,10,-1
 861 -424 l 1,11,12
 811 -439 811 -439 761.5 -447 c 128,-1,14
 712 -455 712 -455 651 -455 c 0,15,16
 509.349 -455 509.349 -455 447 -415 c 0,17,18
 353.709 -355.148 353.709 -355.148 304 -240 c 2,19,-1
 225 -57 l 2,20,21
 195.96 10.2694 195.96 10.2694 163.609 38.5287 c 1,22,23
 139.304 48.0878 139.304 48.0878 115 59 c 1,24,-1
 115 307 l 1,25,-1
 221 307 l 1,26,27
 225 188 225 188 295.5 129 c 128,-1,29
 366 70 366 70 504 70 c 0,30,31
 628 70 628 70 693 116.5 c 128,-1,33
 758 163 758 163 758 252 c 0,34,35
 758 322 758 322 710.5 365 c 128,-1,37
 663 408 663 408 510 457 c 2,38,-1
 377 502 l 2,39,40
 240 546 240 546 178.5 612 c 128,-1,42
 117 678 117 678 117 780 c 0,43,44
 117 926 117 926 224 1009 c 128,-1,46
 331 1092 331 1092 520 1092 c 0,47,48
 604 1092 604 1092 697 1070 c 128,-1,50
 790 1048 790 1048 889 1006 c 1,51,-1
 889 774 l 1,52,-1
 783 774 l 1,53,54
 779 877 779 877 711 935 c 128,-1,56
 643 993 643 993 526 993 c 0,57,58
 410 993 410 993 350.5 952 c 128,-1,60
 291 911 291 911 291 829 c 0,61,62
 291 762 291 762 336 721.5 c 128,-1,64
 381 681 381 681 516 639 c 2,65,-1
 662 594 l 2,66,67
 813 547 813 547 879.5 476.5 c 128,-1,69
 946 406 946 406 946 295 c 0,70,71
 946 144 946 144 830.5 57.5 c 128,-1,73
 715 -29 715 -29 512 -29 c 0,74,75
 456.882 -29 456.882 -29 403.195 -22.7 c 1,76,-1
 408 -33 l 1,0,-1
EndSplineSet
EndChar
